<svg width="100" height="100" viewBox="0 0 100 100" fill="none" xmlns="http://www.w3.org/2000/svg">
  <path
    d="M45.2859 22.0214L48.1131 16.3277C48.1954 16.1629 48.322 16.0243 48.4786 15.9275C48.6353 15.8306 48.8158 15.7793 49 15.7793C49.1842 15.7793 49.3648 15.8306 49.5214 15.9275C49.6781 16.0243 49.8046 16.1629 49.8869 16.3277L52.7142 22.0214L59.0346 22.9398C59.217 22.9651 59.3885 23.0411 59.5297 23.1592C59.6708 23.2773 59.7759 23.4327 59.833 23.6077C59.8901 23.7827 59.8968 23.9702 59.8525 24.1488C59.8081 24.3274 59.7144 24.49 59.582 24.6179L55.0093 29.047L56.0888 35.3044C56.227 36.1075 55.3782 36.7191 54.6523 36.3404L49 33.3847L43.3466 36.3404C42.6219 36.7201 41.7731 36.1075 41.9113 35.3033L42.9908 29.0459L38.418 24.6168C38.2863 24.4888 38.1932 24.3264 38.1492 24.1481C38.1052 23.9698 38.1121 23.7827 38.1691 23.6082C38.2261 23.4336 38.331 23.2785 38.4718 23.1606C38.6125 23.0426 38.7836 22.9665 38.9654 22.9409L45.2859 22.0214Z"
    fill="#00AAFF" stroke="#CFCFCF" stroke-width="1.63235" stroke-linecap="round" stroke-linejoin="round" />
  <mask id="path-2-inside-1_150_458" fill="white">
    <rect x="12" y="68.5588" width="21.7647" height="23.9412" rx="2.17647" />
  </mask>
  <rect x="12" y="68.5588" width="21.7647" height="23.9412" rx="2.17647" stroke="#CFCFCF" stroke-width="5"
    mask="url(#path-2-inside-1_150_458)" />
  <mask id="path-3-inside-2_150_458" fill="white">
    <rect x="38.1177" y="42.4412" width="21.7647" height="50.0588" rx="2.17647" />
  </mask>
  <rect x="38.1177" y="42.4412" width="21.7647" height="50.0588" rx="2.17647" fill="#00AAFF" stroke="#CFCFCF"
    stroke-width="5" mask="url(#path-3-inside-2_150_458)" />
  <mask id="path-4-inside-3_150_458" fill="white">
    <rect x="64" y="78" width="22" height="14" rx="2.17647" />
  </mask>
  <rect x="64" y="78" width="22" height="14" rx="2.17647" stroke="#CFCFCF" stroke-width="5"
    mask="url(#path-4-inside-3_150_458)" />
  <path
    d="M28.917 31.1158L25.1022 33.3182C24.5557 33.6337 24.3685 34.3324 24.684 34.8788C24.9995 35.4255 25.6985 35.6123 26.2446 35.297L30.0594 33.0946C30.6058 32.7791 30.7931 32.0804 30.4776 31.534C30.1623 30.9876 29.4632 30.8005 28.917 31.1158Z"
    fill="#CFCFCF" />
  <path
    d="M23.1425 26.0035H27.5474C28.1785 26.0035 28.6899 25.4921 28.6899 24.861C28.6899 24.2299 28.1785 23.7185 27.5474 23.7185H23.1425C22.5114 23.7185 22 24.2299 22 24.861C22 25.4921 22.5114 26.0035 23.1425 26.0035Z"
    fill="#CFCFCF" />
  <path
    d="M25.1022 16.4044L28.917 18.6068C29.4641 18.9225 30.1626 18.7346 30.4776 18.1887C30.7931 17.6423 30.6058 16.9435 30.0594 16.6281L26.2446 14.4257C25.6979 14.1104 24.9993 14.2973 24.684 14.8438C24.3685 15.3902 24.5557 16.0888 25.1022 16.4044Z"
    fill="#CFCFCF" />
  <path
    d="M71.8976 33.3183L68.0828 31.1159C67.5361 30.8005 66.8373 30.9875 66.5221 31.5341C66.2067 32.0805 66.3939 32.7792 66.9403 33.0947L70.7551 35.2971C71.3023 35.6127 72.0007 35.4249 72.3157 34.8789C72.6313 34.3325 72.444 33.6338 71.8976 33.3183Z"
    fill="#CFCFCF" />
  <path
    d="M73.8576 23.7185H69.4525C68.8214 23.7185 68.3101 24.2299 68.3101 24.861C68.3101 25.4921 68.8214 26.0035 69.4525 26.0035H73.8576C74.4887 26.0035 75.0001 25.4921 75.0001 24.861C75.0001 24.2299 74.4886 23.7185 73.8576 23.7185Z"
    fill="#CFCFCF" />
  <path
    d="M68.0828 18.607L71.8976 16.4046C72.444 16.0891 72.6312 15.3904 72.3157 14.844C72.0004 14.2974 71.3013 14.1107 70.7551 14.4259L66.9403 16.6282C66.3939 16.9437 66.2067 17.6425 66.5221 18.1889C66.8376 18.7354 67.5367 18.9223 68.0828 18.607Z"
    fill="#CFCFCF" />
</svg>