<svg width="100" height="100" viewBox="0 0 100 100" fill="none" xmlns="http://www.w3.org/2000/svg">
	<path
		d="M79.7245 66.3359C75.7659 66.3359 72.5566 63.1266 72.5566 59.168V47.5669H86.8924V59.168C86.8924 63.1266 83.6831 66.3359 79.7245 66.3359Z"
		fill="#00AAFF" />
	<path
		d="M53.0484 59.6853C53.0484 66.2146 47.7551 71.5079 41.2258 71.5079C34.6964 71.5079 29.4026 66.2146 29.4026 59.6853C29.4026 53.1553 34.6964 47.8621 41.2258 47.8621C47.7551 47.8621 53.0484 53.1553 53.0484 59.6853Z"
		fill="#00AAFF" />
	<path d="M22.3093 18.3792H24.526V20.5958H22.3093V18.3792Z" fill="white" />
	<path d="M65.6104 18.3792H67.827V20.5958H65.6104V18.3792Z" fill="white" />
	<path
		d="M67.827 60.5718H65.6104V58.3551H67.827V60.5718ZM67.827 56.1379H65.6104V53.9213H67.827V56.1379ZM67.827 51.7047H65.6104V49.488H67.827V51.7047ZM67.827 47.2708H65.6104V45.0542H67.827V47.2708Z"
		fill="white" />
	<path
		d="M27.9786 37.2959C24.4042 37.2959 21.4966 34.3877 21.4966 30.8133H23.7132C23.7132 33.1654 25.6265 35.0787 27.9786 35.0787C30.3308 35.0787 32.2446 33.1654 32.2446 30.8133V22.1475H34.4613V30.8133C34.4613 34.3877 31.553 37.2959 27.9786 37.2959Z"
		fill="#00AAFF" />
	<path
		d="M44.2016 37.2959C40.1271 37.2959 36.8123 33.981 36.8123 29.9065V28.9658C36.8123 24.8913 40.1271 21.5764 44.2016 21.5764C48.2761 21.5764 51.591 24.8913 51.591 28.9658V29.9065C51.591 33.981 48.2761 37.2959 44.2016 37.2959ZM44.2016 23.7936C41.3493 23.7936 39.0295 26.1141 39.0295 28.9658V29.9065C39.0295 32.7582 41.3493 35.0787 44.2016 35.0787C47.0539 35.0787 49.3743 32.7582 49.3743 29.9065V28.9658C49.3743 26.1141 47.0539 23.7936 44.2016 23.7936Z"
		fill="#00AAFF" />
	<path
		d="M60.9957 30.6454H53.7136V21.7783H60.9957C63.4402 21.7783 65.429 23.7671 65.429 26.2116C65.429 28.6566 63.4402 30.6454 60.9957 30.6454ZM55.9308 28.4282H60.9957C62.2179 28.4282 63.2123 27.4338 63.2123 26.2116C63.2123 24.9894 62.2179 23.995 60.9957 23.995H55.9308V28.4282Z"
		fill="#00AAFF" />
	<path
		d="M60.9957 37.2959H53.7136V28.4282H60.9957C63.4402 28.4282 65.429 30.4176 65.429 32.8621C65.429 35.3065 63.4402 37.2959 60.9957 37.2959ZM55.9308 35.0787H60.9957C62.2179 35.0787 63.2123 34.0843 63.2123 32.8621C63.2123 31.6398 62.2179 30.6454 60.9957 30.6454H55.9308V35.0787Z"
		fill="#00AAFF" />
	<path
		d="M54.1571 59.6854C54.1571 52.555 48.3562 46.7542 41.2259 46.7542C40.8423 46.7542 40.4553 46.7709 40.0757 46.8043L40.2707 49.0123C40.5856 48.9846 40.9069 48.9708 41.2259 48.9708C47.134 48.9708 51.9405 53.7772 51.9405 59.6854C51.9405 65.5935 47.134 70.4 41.2259 70.4C39.2296 70.4 37.2823 69.8474 35.5946 68.8028L34.4277 70.6872C36.4661 71.9492 38.8172 72.6166 41.2259 72.6166C48.3562 72.6166 54.1571 66.8157 54.1571 59.6854Z"
		fill="#CFCFCF" />
	<path
		d="M38.2987 49.3752L37.6947 47.2422C32.1598 48.8099 28.2947 53.9267 28.2947 59.6849C28.2947 63.3043 29.8267 66.7824 32.4984 69.2268L33.9946 67.5916C31.7808 65.5659 30.5113 62.6842 30.5113 59.6854C30.5113 54.9136 33.7137 50.6741 38.2987 49.3752Z"
		fill="#CFCFCF" />
	<path d="M18.984 16.1619H46.6939V13.9453H16.7673V42.3941H18.984V16.1619Z" fill="#CFCFCF" />
	<path
		d="M73.6649 46.4582V13.9453H45.7302L41.6775 16.1619H71.4483V59.168C71.4483 61.5588 72.4687 63.7149 74.0952 65.2272H59.2364C59.7768 63.4743 60.0687 61.613 60.0687 59.6853C60.0687 54.9441 58.3014 50.4139 55.0932 46.9277L53.462 48.4291C56.293 51.5046 57.852 55.5018 57.852 59.6853C57.852 68.8524 50.3935 76.311 41.2259 76.311C32.0582 76.311 24.6003 68.8524 24.6003 59.6853C24.6003 50.5177 32.0582 43.0592 41.2259 43.0592C45.1556 43.0592 48.9688 44.4556 51.9629 46.9906L53.3957 45.2989C50.0013 42.4253 45.6793 40.8425 41.2259 40.8425C30.836 40.8425 22.383 49.2949 22.383 59.6853C22.383 61.5997 22.6709 63.4484 23.2044 65.1903C20.8297 64.9019 18.984 62.875 18.984 60.4242V37.078L16.7673 40.5536V60.4242C16.7673 64.2945 19.9167 67.4439 23.787 67.4439H24.0558C24.2536 67.8811 24.4687 68.3085 24.6983 68.7266L14.2214 79.1598C13.0718 80.3093 12.4385 81.8378 12.4385 83.4632C12.4385 85.0892 13.0718 86.6178 14.2214 87.7673C15.4078 88.9538 16.9669 89.5473 18.5254 89.5473C20.0833 89.5473 21.6419 88.9544 22.8272 87.769L33.6883 76.9529C35.9978 77.9646 38.5472 78.5282 41.2259 78.5282C48.8517 78.5282 55.4335 73.9743 58.396 67.4439H80.8017L80.8045 67.3712C84.8589 66.8399 88.0001 63.3653 88.0001 59.168V46.4582H73.6649ZM21.2612 86.1996C19.7523 87.7091 17.2974 87.7085 15.7885 86.1996C15.0577 85.4688 14.6551 84.4969 14.6551 83.4632C14.6551 82.4296 15.0577 81.4577 15.7868 80.7286L25.9038 70.6549C27.426 72.7804 29.3663 74.5604 31.6112 75.8928L21.2612 86.1996ZM85.7835 59.168C85.7835 62.4644 83.1365 65.1528 79.8569 65.2238L79.6758 65.2261C76.3569 65.1995 73.6649 62.4926 73.6649 59.168V48.6749H85.7835V59.168Z"
		fill="#CFCFCF" />
</svg>