<svg width="60" height="60" viewBox="0 0 60 60" fill="none" xmlns="http://www.w3.org/2000/svg">
  <path
    d="M9.97917 0C4.46784 0 0 4.46784 0 9.97917V49.8958C0 55.4073 4.46784 59.875 9.97917 59.875H49.8958C55.4073 59.875 59.875 55.4073 59.875 49.8958V9.97917C59.875 4.46784 55.4073 0 49.8958 0H9.97917ZM34.3762 43.426C36.7669 45.353 39.1573 46.3043 41.5479 46.28C43.0115 46.28 44.1335 46.0116 44.9142 45.4751C45.6703 44.9628 46.0485 44.231 46.0485 43.2796C46.0485 42.304 45.6703 41.4744 44.9142 40.7915C44.1335 40.1086 42.6579 39.4254 40.4868 38.7425C37.8766 37.9864 35.8641 37.0104 34.4494 35.8152C33.059 34.6201 32.3515 32.9489 32.3272 30.8024C32.3272 28.7776 33.2053 27.0825 34.9617 25.7163C36.6691 24.3502 38.8526 23.6673 41.5113 23.6673C45.2193 23.6673 48.1951 24.5697 50.4394 26.3749L47.878 30.3633C46.9756 29.6558 45.9388 29.1435 44.7679 28.8265C43.597 28.4606 42.5482 28.2776 41.6211 28.2776C40.3528 28.2776 39.3402 28.5095 38.5841 28.9728C37.828 29.4362 37.4498 30.0463 37.4498 30.8024C37.4498 31.6316 37.9132 32.3392 38.8402 32.9246C39.7673 33.4858 41.3527 34.1078 43.597 34.7907C46.3047 35.5957 48.2316 36.6691 49.3782 38.0106C50.5249 39.3522 51.098 41.0599 51.098 43.1333C51.098 45.2555 50.2807 47.085 48.6464 48.6218C47.0365 50.1343 44.6947 50.927 41.6211 51.0002C37.5962 51.0002 34.2299 49.7927 31.5222 47.3778L34.3762 43.426ZM15.9801 45.5482C16.7607 46.0362 17.6999 46.28 18.7976 46.28C19.9441 46.28 20.8954 45.9507 21.6516 45.2921C22.4079 44.6092 22.7859 43.426 22.7859 41.7429V24.1063H27.7258V42.6942C27.6526 45.5725 26.823 47.6462 25.2376 48.9145C24.3349 49.6706 23.3469 50.2075 22.2737 50.5245C21.2004 50.8415 20.1636 51.0002 19.1635 51.0002C17.334 51.0002 15.7118 50.6832 14.297 50.0488C12.7846 49.3659 11.5161 48.1585 10.4916 46.4264L13.9311 43.609C14.5653 44.4628 15.2483 45.1092 15.9801 45.5482Z"
    fill="#04A9FF" />
</svg>