<svg width="90" height="57" viewBox="0 0 90 57" fill="none" xmlns="http://www.w3.org/2000/svg">
  <path
    d="M56.6438 21.0719C56.4043 24.3952 53.939 26.9552 51.2507 26.9552C48.5623 26.9552 46.0929 24.396 45.8576 21.0719C45.6124 17.6146 48.0123 15.1885 51.2507 15.1885C54.489 15.1885 56.8889 17.6775 56.6438 21.0719Z"
    fill="#04A9FF" stroke="#04A9FF" stroke-width="2.61484" stroke-linecap="round" stroke-linejoin="round" />
  <path
    d="M51.2496 32.1846C45.9243 32.1846 40.8033 34.8296 39.5204 39.9809C39.3505 40.6624 39.7778 41.3365 40.4781 41.3365H62.0219C62.7222 41.3365 63.1471 40.6624 62.9796 39.9809C61.6967 34.7471 56.5757 32.1846 51.2496 32.1846Z"
    fill="#04A9FF" stroke="#04A9FF" stroke-width="2.61484" stroke-miterlimit="10" />
  <path
    d="M40.1366 22.5377C39.9454 25.1918 37.9532 27.282 35.8058 27.282C33.6584 27.282 31.6629 25.1926 31.475 22.5377C31.2797 19.7766 33.2187 17.8032 35.8058 17.8032C38.3929 17.8032 40.3319 19.8273 40.1366 22.5377Z"
    fill="#04A9FF" stroke="#04A9FF" stroke-width="2.61484" stroke-linecap="round" stroke-linejoin="round" />
  <path
    d="M40.6272 32.3482C40.6272 32.3482 37.5278 31.4126 35.8061 31.4126C31.557 31.4126 27.4631 33.5249 26.4376 37.6392C26.3028 38.1834 26.6443 38.7219 27.2033 38.7219H36.3781"
    fill="#04A9FF" />
  <path
    d="M40.6272 32.3482C40.6272 32.3482 37.5278 31.4126 35.8061 31.4126C31.557 31.4126 27.4631 33.5249 26.4376 37.6392C26.3028 38.1834 26.6443 38.7219 27.2033 38.7219H36.3781C36.5282 36.5526 39.2734 33.5689 40.6272 32.3482Z"
    stroke="#04A9FF" stroke-width="2.61484" stroke-miterlimit="10" stroke-linecap="round" />
  <path d="M59 3L86.6671 27.7548C87.1114 28.1523 87.1114 28.8477 86.6671 29.2452L59 54" stroke="#04A9FF"
    stroke-width="6" stroke-linecap="round" />
  <path d="M31.5 3L3.83291 27.7548C3.38864 28.1523 3.38864 28.8477 3.83292 29.2452L31.5 54" stroke="#04A9FF"
    stroke-width="6" stroke-linecap="round" />
</svg>