<svg width="100" height="100" viewBox="0 0 100 100" fill="none" xmlns="http://www.w3.org/2000/svg">
	<path
		d="M67.0005 14.0859H64.9926L60.852 16.5403L57.4591 20.7591L54.5322 25.2904V31.2279L59.5237 38.8842L62.8176 41.7488L65.2659 42.3999L67.0003 42.6935C73.193 40.8855 77.7174 35.1664 77.7174 28.3898C77.7176 21.6132 73.1932 15.8939 67.0005 14.0859Z"
		fill="#00AAFF" />
	<path
		d="M56.2835 28.3898C56.2835 21.6132 60.8079 15.8939 67.0006 14.0861C65.6736 13.6986 64.2701 13.49 62.8178 13.49C54.5888 13.49 47.918 20.161 47.918 28.3899C47.918 36.6189 54.5888 43.2897 62.8178 43.2897C64.2701 43.2897 65.6734 43.0812 67.0006 42.6936C60.8079 40.8857 56.2835 35.1664 56.2835 28.3898Z"
		fill="#00AAFF" />
	<path
		d="M11.5546 79.0017L12.8827 79.6462H23.1952L24.328 79.0407L24.8349 78.1051V65.2195C24.8349 64.0837 23.9141 63.1631 22.7785 63.1631H13.228C12.0923 63.1631 11.1716 64.0839 11.1716 65.2195V77.9315L11.5546 79.0017Z"
		fill="#00AAFF" />
	<path
		d="M22.7785 79.3669H13.228C12.0923 79.3669 11.1716 78.4462 11.1716 77.3105V87.4587C11.1716 88.5944 12.0924 89.5151 13.228 89.5151H22.7785C23.9141 89.5151 24.8349 88.5943 24.8349 87.4587V77.3105C24.8349 78.4462 23.9141 79.3669 22.7785 79.3669Z"
		fill="#00AAFF" />
	<path
		d="M68.316 24.7608L62.018 31.059L57.9718 27.0127C57.514 26.5552 56.7721 26.5552 56.3144 27.0127C55.8568 27.4705 55.8568 28.2124 56.3144 28.67L61.1893 33.5449C61.6472 34.0025 62.389 34.0024 62.8466 33.5449L69.9732 26.4183C70.4308 25.9605 70.4308 25.2186 69.9732 24.761C69.5157 24.3033 68.7738 24.3033 68.316 24.7608Z"
		fill="white" />
	<path
		d="M42.731 34.8051L38.818 37.0641C38.2576 37.3877 38.0655 38.1044 38.3891 38.6649C38.7127 39.2257 39.4298 39.4173 39.9899 39.0938L43.9029 36.8348C44.4633 36.5112 44.6554 35.7944 44.3318 35.234C44.0083 34.6735 43.2913 34.4816 42.731 34.8051Z"
		fill="#CFCFCF" />
	<path
		d="M36.8079 29.5613H41.3261C41.9735 29.5613 42.498 29.0367 42.498 28.3894C42.498 27.7421 41.9735 27.2175 41.3261 27.2175H36.8079C36.1605 27.2175 35.636 27.7421 35.636 28.3894C35.636 29.0367 36.1605 29.5613 36.8079 29.5613Z"
		fill="#CFCFCF" />
	<path
		d="M38.818 19.7152L42.731 21.9742C43.2922 22.298 44.0087 22.1053 44.3318 21.5453C44.6554 20.9849 44.4633 20.2681 43.9029 19.9445L39.9899 17.6855C39.4291 17.362 38.7126 17.5538 38.3891 18.1144C38.0655 18.6749 38.2576 19.3914 38.818 19.7152Z"
		fill="#CFCFCF" />
	<path
		d="M86.8177 37.0642L82.9047 34.8052C82.3439 34.4816 81.6272 34.6735 81.3039 35.2341C80.9803 35.7946 81.1724 36.5113 81.7328 36.8349L85.6458 39.0939C86.207 39.4177 86.9234 39.225 87.2466 38.665C87.5703 38.1045 87.3781 37.3878 86.8177 37.0642Z"
		fill="#CFCFCF" />
	<path
		d="M88.828 27.2175H84.3096C83.6622 27.2175 83.1377 27.7421 83.1377 28.3894C83.1377 29.0367 83.6622 29.5613 84.3096 29.5613H88.828C89.4753 29.5613 89.9999 29.0367 89.9999 28.3894C89.9999 27.7421 89.4752 27.2175 88.828 27.2175Z"
		fill="#CFCFCF" />
	<path
		d="M82.9047 21.9744L86.8177 19.7153C87.3781 19.3917 87.5702 18.675 87.2466 18.1146C86.9231 17.5539 86.2061 17.3624 85.6458 17.6857L81.7328 19.9447C81.1724 20.2683 80.9803 20.985 81.3039 21.5455C81.6275 22.1061 82.3445 22.2978 82.9047 21.9744Z"
		fill="#CFCFCF" />
	<path
		d="M65.5379 62.77H52.1405C51.7909 62.77 51.4689 62.6106 51.257 62.3326C51.0453 62.055 50.9767 61.7023 51.0692 61.3653L52.8916 54.7183C54.3216 50.2657 52.4889 47.6113 50.6972 46.168C48.5765 44.4595 45.4162 45.2767 44.3967 47.8006L42.1106 53.4608C41.6868 54.5101 40.893 55.4173 39.8752 56.016C36.7333 57.8641 34.271 60.8078 33.0828 62.3978C32.7166 62.8878 32.2367 63.2729 31.6947 63.5115C30.2117 64.1647 28.638 64.4959 27.0168 64.4959H25.9225C25.5926 63.0636 24.31 61.9914 22.7788 61.9914H13.2285C11.4483 61.9911 10 63.4393 10 65.2194V87.4584C10 89.2388 11.4483 90.6869 13.2283 90.6869H22.7788C24.3098 90.6869 25.5925 89.6147 25.9225 88.1824H28.2736C28.7389 88.1824 29.1986 88.3575 29.5684 88.6758C32.4163 91.1266 35.8402 92.3179 40.0365 92.3179H40.0379H42.9971C43.6445 92.3179 44.169 91.7933 44.169 91.146C44.169 90.4986 43.6445 89.9741 42.9971 89.9741H40.038H40.0363C36.3752 89.9741 33.5346 88.997 31.097 86.8994C30.3023 86.2153 29.2995 85.8386 28.2734 85.8386H26.0072V66.8395H27.0168C28.9651 66.8395 30.8567 66.4414 32.6391 65.6564C33.5499 65.2555 34.3525 64.6137 34.96 63.8008C36.0427 62.3518 38.2752 59.6762 41.0632 58.0362C42.524 57.1771 43.6674 55.864 44.2834 54.3385L46.5695 48.6783C46.9987 47.6156 48.3305 47.2711 49.2266 47.9931C51.0292 49.4452 51.4958 51.4174 50.653 54.0227C50.6475 54.0394 50.6425 54.0565 50.6377 54.0735L48.8086 60.7451C48.5211 61.7931 48.7341 62.8898 49.393 63.7539C50.052 64.618 51.0533 65.1136 52.1402 65.1136H65.5376C66.7901 65.1136 67.7978 66.1427 67.7656 67.402C67.7348 68.598 66.7011 69.571 65.4612 69.571H57.4788C56.8315 69.571 56.3069 70.0955 56.3069 70.7428C56.3069 71.3902 56.8315 71.9147 57.4788 71.9147H65.4612C66.7092 71.9147 67.7314 72.9432 67.6886 74.2207C67.6489 75.4068 66.61 76.372 65.3728 76.3721C64.3748 76.3721 58.4683 76.3721 57.4788 76.3721C56.8315 76.3721 56.3069 76.8966 56.3069 77.544C56.3069 78.1913 56.8315 78.7159 57.4788 78.7159H64.6179C65.874 78.7159 66.8876 79.752 66.8454 81.022C66.8059 82.2081 65.7671 83.1733 64.5295 83.1733C63.4809 83.1733 58.3829 83.1733 57.4788 83.1733C56.8315 83.1733 56.3069 83.6978 56.3069 84.3451C56.3069 84.9925 56.8315 85.517 57.4788 85.517H63.7748C65.0282 85.517 66.0445 86.5506 66.002 87.8228C65.9625 89.0092 64.9234 89.9744 63.6856 89.9744H48.4659C47.8186 89.9744 47.294 90.4989 47.294 91.1463C47.294 91.7936 47.8186 92.3182 48.4659 92.3182H63.6859C66.1736 92.3182 68.2636 90.3366 68.3448 87.9009C68.3847 86.707 67.9717 85.5745 67.1789 84.6926C68.3487 83.8906 69.1389 82.579 69.1881 81.1C69.2278 79.9059 68.8147 78.7732 68.0219 77.8915C69.1915 77.0893 69.9816 75.778 70.0311 74.2994C70.0762 72.9471 69.5401 71.6746 68.5354 70.7586C69.47 69.9435 70.075 68.7678 70.1084 67.4628C70.1755 64.8837 68.109 62.77 65.5379 62.77ZM23.6635 87.4584C23.6635 87.9463 23.2667 88.3431 22.779 88.3431H13.2285C12.7408 88.3431 12.3439 87.9463 12.3439 87.4584V65.2194C12.3439 64.7317 12.7408 64.3348 13.2285 64.3348H22.779C23.2667 64.3348 23.6635 64.7317 23.6635 65.2194V87.4584Z"
		fill="#CFCFCF" />
	<path
		d="M76.3144 25.8692C76.4325 26.5055 77.0444 26.9252 77.6803 26.8077C78.3166 26.6897 78.7369 26.0781 78.6188 25.4417C77.2081 17.8371 70.5629 12.3179 62.818 12.3179C53.9561 12.3179 46.7463 19.5278 46.7463 28.3897C46.7463 37.2517 53.9562 44.4612 62.818 44.4612C70.5629 44.4612 77.2083 38.9421 78.6188 31.3379C78.7369 30.7014 78.3166 30.0899 77.6803 29.9719C77.0436 29.8536 76.4325 30.2739 76.3144 30.9104C75.1097 37.4043 69.4337 42.1176 62.818 42.1176C55.2484 42.1176 49.0901 35.9593 49.0901 28.3899C49.0901 20.8201 55.2484 14.6618 62.818 14.6618C69.4337 14.6616 75.1097 19.3751 76.3144 25.8692Z"
		fill="#CFCFCF" />
</svg>