<svg width="13" height="12" viewBox="0 0 13 12" fill="none" xmlns="http://www.w3.org/2000/svg">
  <path
    d="M5.9751 6.34978L5.2501 5.63728C5.15843 5.54561 5.04376 5.49978 4.9061 5.49978C4.76843 5.49978 4.64976 5.54978 4.5501 5.64978C4.45843 5.74144 4.4126 5.85811 4.4126 5.99978C4.4126 6.14144 4.45843 6.25811 4.5501 6.34978L5.6251 7.42478C5.7251 7.52478 5.84176 7.57478 5.9751 7.57478C6.10843 7.57478 6.2251 7.52478 6.3251 7.42478L8.4501 5.29978C8.5501 5.19978 8.59793 5.08311 8.5936 4.94978C8.58926 4.81644 8.54143 4.69978 8.4501 4.59978C8.3501 4.49978 8.23126 4.44778 8.0936 4.44378C7.95593 4.43978 7.83726 4.48761 7.7376 4.58728L5.9751 6.34978ZM4.5751 10.8748L3.8501 9.64978L2.4751 9.34978C2.3501 9.32478 2.2501 9.26011 2.1751 9.15578C2.1001 9.05144 2.07093 8.93694 2.0876 8.81228L2.2251 7.39978L1.2876 6.32478C1.20426 6.23311 1.1626 6.12478 1.1626 5.99978C1.1626 5.87478 1.20426 5.76644 1.2876 5.67478L2.2251 4.59978L2.0876 3.18728C2.07093 3.06228 2.1001 2.94761 2.1751 2.84328C2.2501 2.73894 2.3501 2.67444 2.4751 2.64978L3.8501 2.34978L4.5751 1.12478C4.64176 1.01644 4.73343 0.943442 4.8501 0.905776C4.96676 0.868109 5.08343 0.874442 5.2001 0.924776L6.5001 1.47478L7.8001 0.924776C7.91676 0.874776 8.03343 0.868442 8.1501 0.905776C8.26676 0.943109 8.35843 1.01611 8.4251 1.12478L9.1501 2.34978L10.5251 2.64978C10.6501 2.67478 10.7501 2.73944 10.8251 2.84378C10.9001 2.94811 10.9293 3.06261 10.9126 3.18728L10.7751 4.59978L11.7126 5.67478C11.7959 5.76644 11.8376 5.87478 11.8376 5.99978C11.8376 6.12478 11.7959 6.23311 11.7126 6.32478L10.7751 7.39978L10.9126 8.81228C10.9293 8.93727 10.9001 9.05194 10.8251 9.15628C10.7501 9.26061 10.6501 9.32511 10.5251 9.34978L9.1501 9.64978L8.4251 10.8748C8.35843 10.9831 8.26676 11.0561 8.1501 11.0938C8.03343 11.1314 7.91676 11.1251 7.8001 11.0748L6.5001 10.5248L5.2001 11.0748C5.08343 11.1248 4.96676 11.1311 4.8501 11.0938C4.73343 11.0564 4.64176 10.9834 4.5751 10.8748Z"
    fill="#2CC69B" />
</svg>