<svg width="61" height="55" viewBox="0 0 61 55" fill="none" xmlns="http://www.w3.org/2000/svg">
  <path
    d="M22.4727 0.55C22.4727 0.507285 22.5073 0.472656 22.55 0.472656H37.95C37.9927 0.472656 38.0273 0.507283 38.0273 0.55V15.95C38.0273 15.9927 37.9927 16.0273 37.95 16.0273H33.55C32.9852 16.0273 32.5273 16.4852 32.5273 17.05V24.2C32.5273 24.7648 32.9852 25.2227 33.55 25.2227H49.5C52.2915 25.2227 54.5273 27.4585 54.5273 30.25V37.95C54.5273 38.5148 54.9852 38.9727 55.55 38.9727H59.95C59.9927 38.9727 60.0273 39.0073 60.0273 39.05V54.45C60.0273 54.4927 59.9927 54.5273 59.95 54.5273H44.55C44.5073 54.5273 44.4727 54.4927 44.4727 54.45V39.05C44.4727 39.0073 44.5073 38.9727 44.55 38.9727H48.95C49.5148 38.9727 49.9727 38.5148 49.9727 37.95V30.8C49.9727 30.2352 49.5148 29.7773 48.95 29.7773H33.55C32.9852 29.7773 32.5273 30.2352 32.5273 30.8V37.95C32.5273 38.5148 32.9852 38.9727 33.55 38.9727H37.95C37.9927 38.9727 38.0273 39.0073 38.0273 39.05V54.45C38.0273 54.4927 37.9927 54.5273 37.95 54.5273H22.55C22.5073 54.5273 22.4727 54.4927 22.4727 54.45V39.05C22.4727 39.0073 22.5073 38.9727 22.55 38.9727H26.95C27.5148 38.9727 27.9727 38.5148 27.9727 37.95V30.8C27.9727 30.2352 27.5148 29.7773 26.95 29.7773H11.55C10.9852 29.7773 10.5273 30.2352 10.5273 30.8V37.95C10.5273 38.5148 10.9852 38.9727 11.55 38.9727H15.95C15.9927 38.9727 16.0273 39.0073 16.0273 39.05V54.45C16.0273 54.4927 15.9927 54.5273 15.95 54.5273H0.55C0.507283 54.5273 0.472656 54.4927 0.472656 54.45V39.05C0.472656 39.0073 0.507283 38.9727 0.55 38.9727H4.95C5.5148 38.9727 5.97266 38.5148 5.97266 37.95V30.25C5.97266 27.4585 8.20854 25.2227 11 25.2227H26.95C27.5148 25.2227 27.9727 24.7648 27.9727 24.2V17.05C27.9727 16.4852 27.5148 16.0273 26.95 16.0273H22.55C22.5073 16.0273 22.4727 15.9927 22.4727 15.95V0.55Z"
    fill="#04A9FF" stroke="#04A9FF" stroke-width="0.945313" />
</svg>