<svg width="100" height="100" viewBox="0 0 100 100" fill="none" xmlns="http://www.w3.org/2000/svg">
	<path fill-rule="evenodd" clip-rule="evenodd"
		d="M35.3393 41.8109C37.2527 42.2663 39.08 43.0248 40.7547 44.056L44.2738 42.4932L48.4213 46.6406L46.8588 50.1584C47.8903 51.8333 48.6489 53.6613 49.1043 55.5752L52.6944 56.9571V62.8224L49.1034 64.2045C48.648 66.1179 47.8895 67.9452 46.8583 69.62L48.4213 73.139L44.2738 77.2865L40.7559 75.724C39.081 76.7556 37.253 77.5141 35.3391 77.9695L33.9572 81.5597H28.0919L26.7096 77.9687C24.7963 77.5133 22.9689 76.7547 21.2942 75.7235L17.7752 77.2863L13.6277 73.139L15.1901 69.6212C14.1586 67.9462 13.4 66.1181 12.9446 64.2043L9.35449 62.8224V56.957L12.9452 55.5749C13.4005 53.6615 14.1591 51.8338 15.1905 50.1591L13.6277 46.6406L17.7752 42.4931L21.2942 44.0559C22.9689 43.0247 24.7963 42.2661 26.7095 41.8107L28.0917 38.2197H33.9568L35.3393 41.8109Z"
		fill="#00AAFF" />
	<path
		d="M39.0591 67.9294C43.5009 63.4875 43.5009 56.2859 39.0591 51.8441C34.6173 47.4022 27.4156 47.4022 22.9738 51.8441C18.532 56.2859 18.532 63.4875 22.9738 67.9294C27.4156 72.3712 34.6173 72.3712 39.0591 67.9294Z"
		fill="white" />
	<path fill-rule="evenodd" clip-rule="evenodd"
		d="M31.0242 48.5137C24.7411 48.5137 19.6484 53.6063 19.6484 59.8896C19.6484 66.1726 24.7411 71.2653 31.0242 71.2653C31.3288 71.2653 31.6305 71.2529 31.929 71.2294C26.069 70.7683 21.4582 65.868 21.4582 59.8896C21.4582 53.9108 26.0692 49.0106 31.929 48.5494C31.6305 48.526 31.3288 48.5137 31.0242 48.5137Z"
		fill="#D1D1D6" />
	<path fill-rule="evenodd" clip-rule="evenodd"
		d="M77.0137 59.2854C78.5165 59.643 79.9518 60.2388 81.2673 61.0488L84.0314 59.8212L87.2891 63.0789L86.0618 65.8421C86.8721 67.1576 87.4679 68.5936 87.8256 70.097L90.6455 71.1824V75.7893L87.8249 76.8751C87.4672 78.3779 86.8715 79.8132 86.0614 81.1287L87.2891 83.8928L84.0314 87.1505L81.2682 85.9233C79.9526 86.7335 78.5167 87.3293 77.0135 87.687L75.9281 90.5069H71.3211L70.2354 87.6863C68.7325 87.3286 67.2973 86.7329 65.9817 85.9228L63.2177 87.1505L59.96 83.8928L61.1873 81.1296C60.3769 79.814 59.7813 78.3779 59.4234 76.8749L56.6035 75.7895V71.1825L59.4239 70.097C59.7816 68.5939 60.3774 67.1585 61.1874 65.8429L59.96 63.0792L63.2177 59.8215L65.9817 61.0492C67.2971 60.2392 68.7325 59.6434 70.2354 59.2857L71.3211 56.4651H75.9281L77.0137 59.2854Z"
		fill="#00AAFF" />
	<path fill-rule="evenodd" clip-rule="evenodd"
		d="M65.9816 85.9225L63.2176 87.1502L62.792 86.7246L65.3835 85.5736C65.5803 85.6947 65.7798 85.8111 65.9816 85.9225ZM77.0137 59.2852C78.5166 59.6429 79.9519 60.2387 81.2674 61.0487L80.4818 61.3976C79.1664 60.5877 77.1328 59.6429 75.6299 59.2852L74.5442 56.4646H75.928L77.0137 59.2852ZM81.2681 85.9229C79.9526 86.7331 78.5166 87.3288 77.0134 87.6865L75.928 90.5064H74.5442L75.6296 87.6865C77.1328 87.3288 79.1667 86.3842 80.4825 85.5738L81.2681 85.9229ZM62.792 60.2466L63.2176 59.821L65.9816 61.0487C65.7796 61.1601 65.5803 61.2765 65.3835 61.3976L62.792 60.2466ZM83.0731 60.2466L84.0313 59.821L87.289 63.0788L86.0617 65.8419C86.8721 67.1575 87.4678 68.5935 87.8255 70.0968L90.6454 71.1822V75.7892L87.8248 76.8749C87.4672 78.3778 86.8714 79.813 86.0614 81.1286L87.289 83.8926L84.0313 87.1503L83.0729 86.7248L85.905 83.8926L84.6774 81.1286C85.4872 79.8132 86.0832 78.3778 86.4409 76.8749L89.2615 75.7892V71.1822L86.4416 70.0968C86.0839 68.5936 85.4881 67.1577 84.6779 65.8419L85.9052 63.0788L83.0731 60.2466Z"
		fill="#837683" />
	<path
		d="M81.0967 78.5633C83.8852 74.4478 82.8093 68.851 78.6938 66.0625C74.5782 63.2741 68.9814 64.3499 66.193 68.4655C63.4045 72.581 64.4804 78.1778 68.5959 80.9663C72.7115 83.7547 78.3083 82.6789 81.0967 78.5633Z"
		fill="white" />
	<path fill-rule="evenodd" clip-rule="evenodd"
		d="M73.6249 64.4858C68.654 64.4858 64.625 68.5148 64.625 73.4857C64.625 78.4566 68.654 82.4855 73.6249 82.4855C73.8658 82.4855 74.1045 82.4759 74.3407 82.4573C69.7046 82.0925 66.0567 78.2156 66.0567 73.4857C66.0567 68.7558 69.7046 64.8789 74.3407 64.5141C74.1045 64.4955 73.8658 64.4858 73.6249 64.4858Z"
		fill="#D1D1D6" />
	<path fill-rule="evenodd" clip-rule="evenodd"
		d="M71.6745 45.7591C71.9426 46.0775 72.3255 46.2401 72.7113 46.2401C73.0196 46.2401 73.3295 46.1368 73.5837 45.9217L79.811 40.6751C80.1164 40.4177 80.2927 40.0383 80.2927 39.6387C80.2927 39.239 80.1164 38.8596 79.811 38.6022L73.5837 33.3539C73.0116 32.8729 72.1569 32.9458 71.6745 33.5182C71.1924 34.0889 71.2654 34.9441 71.8376 35.4268L76.8353 39.6387L71.8376 43.8505C71.2654 44.3315 71.1924 45.1867 71.6745 45.7591ZM57.5685 43.8505L52.5706 39.6387L57.5685 35.4268C58.1407 34.9441 58.2135 34.0889 57.7314 33.5182C57.2492 32.9458 56.3945 32.8729 55.8223 33.3539L49.5952 38.6022C49.2897 38.8596 49.1134 39.239 49.1134 39.6387C49.1134 40.0383 49.2897 40.4177 49.5952 40.6751L55.8223 45.9217C56.0765 46.1368 56.3864 46.2401 56.6948 46.2401C57.0804 46.2401 57.4635 46.0775 57.7316 45.7591C58.2135 45.1867 58.1407 44.3315 57.5685 43.8505ZM65.5065 47.6712C65.6687 48.2758 66.2161 48.6754 66.8142 48.6754C66.9302 48.6754 67.0483 48.6602 67.1658 48.6297C67.8884 48.435 68.3174 47.6932 68.1238 46.97L63.8431 30.9931C63.6493 30.2716 62.9072 29.8432 62.1836 30.0362C61.4608 30.2293 61.0319 30.9728 61.2255 31.6959L65.5065 47.6712ZM81.121 73.1997C81.121 69.0674 77.7581 65.7041 73.6243 65.7041C69.4909 65.7041 66.1282 69.0674 66.1282 73.1997C66.1282 77.3337 69.4909 80.697 73.6243 80.697C77.7581 80.697 81.121 77.3337 81.121 73.1997ZM83.8307 73.1997C83.8307 78.8274 79.2522 83.4067 73.6243 83.4067C67.9968 83.4067 63.4185 78.8274 63.4185 73.1997C63.4185 67.572 67.9968 62.9944 73.6243 62.9944C79.2522 62.9944 83.8307 67.572 83.8307 73.1997ZM89.2903 71.8262V74.5732L87.338 75.3251C86.921 75.486 86.6099 75.8416 86.5066 76.2752C86.1823 77.6385 85.6443 78.9358 84.9076 80.1331C84.6734 80.5124 84.6417 80.9849 84.8229 81.3931L85.6731 83.3068L83.7309 85.2493L81.8179 84.3991C81.4094 84.2179 80.9381 84.2501 80.5575 84.4838C79.3614 85.2205 78.0635 85.7591 76.6998 86.0825C76.2652 86.1858 75.9096 86.4975 75.749 86.9141L74.9978 88.8667H72.2514L71.4998 86.9141C71.3394 86.4975 70.9837 86.1858 70.5492 86.0825C69.186 85.7574 67.8884 85.2205 66.6923 84.4838C66.3117 84.2484 65.8403 84.2179 65.4318 84.3991L63.5181 85.2493L61.5759 83.3068L62.4256 81.3931C62.6071 80.9849 62.5753 80.5141 62.3411 80.1331C61.6044 78.9374 61.0663 77.6385 60.7418 76.2752C60.6384 75.8416 60.3274 75.4843 59.9105 75.3251L57.9585 74.5732V71.8262L59.9108 71.076C60.3278 70.9151 60.6387 70.5595 60.7422 70.1242C61.0665 68.7609 61.6045 67.4637 62.3411 66.268C62.5754 65.887 62.6073 65.4162 62.4257 65.008L61.5759 63.0943L63.5181 61.1518L65.4318 62.002C65.8401 62.1832 66.3119 62.151 66.6923 61.9173C67.8883 61.1806 69.186 60.642 70.549 60.3186C70.9837 60.2153 71.3392 59.9037 71.4996 59.487L72.2514 57.5344H74.9978L75.7492 59.487C75.9096 59.9037 76.2654 60.2153 76.6998 60.3186C78.0629 60.642 79.3605 61.1806 80.5567 61.9173C80.9372 62.151 81.4086 62.1832 81.817 62.002L83.7309 61.1518L85.6731 63.0943L84.8232 65.0063C84.642 65.4145 84.6737 65.887 84.9079 66.2663C85.6448 67.4637 86.1828 68.7609 86.5073 70.1242C86.6106 70.5595 86.9217 70.9151 87.3387 71.076L89.2903 71.8262ZM50.1568 65.2214C50.1849 65.1249 50.2146 65.03 50.2413 64.9335L53.181 63.8005C53.7041 63.6007 54.0491 63.0977 54.0491 62.5371V56.6724C54.0491 56.1118 53.7041 55.6088 53.181 55.4073L50.2422 54.276C49.8083 52.7078 49.1842 51.2022 48.3803 49.7847L49.6594 46.9057C49.8869 46.3925 49.7756 45.793 49.3791 45.3967L45.2316 41.2492C44.8354 40.8529 44.2358 40.7429 43.7239 40.9698L40.8428 42.2484C39.4253 41.4457 37.9203 40.8208 36.3532 40.3872L35.2218 37.4472C35.0204 36.9239 34.5178 36.5801 33.9574 36.5801H28.0921C27.5315 36.5801 27.029 36.9239 26.8277 37.4472L25.6959 40.3872C24.129 40.8208 22.624 41.4457 21.2063 42.2484L18.3254 40.9698C17.9548 40.8055 17.5396 40.8208 17.1877 40.9901V26.1038H84.1568V58.1898C83.9306 58.1695 83.6982 58.2016 83.4811 58.2982L81.3515 59.2432C80.2981 58.6589 79.1851 58.1983 78.0289 57.8663L77.1925 55.6918C76.9911 55.1702 76.4884 54.8247 75.9281 54.8247H71.3211C70.7607 54.8247 70.2581 55.1702 70.0567 55.6918L69.2201 57.8663C68.0637 58.1983 66.9511 58.6589 65.8973 59.2432L63.7677 58.2982C63.2556 58.0712 62.6561 58.1813 62.2598 58.5776L59.0022 61.836C58.6058 62.2323 58.4943 62.8318 58.7219 63.3433L59.5558 65.2214H50.1568ZM48.6167 62.654C48.1998 62.8149 47.8887 63.1705 47.7853 63.6058C47.3635 65.3789 46.6634 67.0674 45.7047 68.6237C45.4704 69.0048 45.4388 69.4756 45.6201 69.8837L46.8055 72.5528L43.9735 75.3844L41.3058 74.2006C40.8973 74.0194 40.4259 74.0499 40.0455 74.2853C38.4888 75.2438 36.7998 75.9433 35.0256 76.3649C34.5911 76.4683 34.2353 76.7799 34.0747 77.1965L33.0271 79.9197H29.0222L27.9742 77.1965C27.8137 76.7799 27.4582 76.4683 27.0235 76.3649C25.25 75.9433 23.5615 75.2421 22.005 74.2836C21.6246 74.0499 21.1531 74.0177 20.7446 74.1989L18.0756 75.3844L15.2436 72.5528L16.4285 69.8854C16.6098 69.4773 16.5783 69.0048 16.3439 68.6254C15.3856 67.0691 14.6853 65.3806 14.2627 63.6058C14.1594 63.1705 13.8485 62.8149 13.4315 62.654L10.7097 61.6057V57.6021L13.4322 56.5538C13.849 56.3929 14.1601 56.0373 14.2634 55.6037C14.6855 53.8289 15.3856 52.1404 16.3443 50.5841C16.5785 50.203 16.6102 49.7322 16.4288 49.3241L15.2436 46.655L18.0756 43.8234L20.7445 45.0089C21.1526 45.1901 21.6241 45.1579 22.0046 44.9242C23.5615 43.9657 25.2501 43.2662 27.0231 42.8429C27.4577 42.7395 27.8133 42.4296 27.9739 42.013L29.022 39.2898H33.0269L34.0749 42.013C34.2353 42.4296 34.5911 42.7395 35.0256 42.8429C36.7988 43.2662 38.4873 43.9657 40.0443 44.9242C40.4247 45.1579 40.8962 45.1901 41.3045 45.0089L43.9733 43.8234L46.8053 46.655L45.6205 49.3224C45.4391 49.7322 45.4706 50.203 45.705 50.5841C46.6637 52.1404 47.3638 53.8289 47.786 55.6037C47.8893 56.0373 48.2003 56.3929 48.6172 56.5538L51.3393 57.6021V61.6057L48.6167 62.654ZM17.1877 16.664V23.3941H84.1568V16.664C84.1568 15.8206 83.4706 15.133 82.6272 15.133H18.7173C17.8739 15.133 17.1877 15.8206 17.1877 16.664ZM92 70.8965V75.5029C92 76.0635 91.6549 76.5665 91.1319 76.768L88.9586 77.6046C88.6271 78.7613 88.1658 79.874 87.581 80.9274L88.527 83.0562C88.7545 83.5693 88.6432 84.1688 88.2468 84.5651L84.9892 87.8218C84.5929 88.2198 83.9936 88.3299 83.4813 88.1029L81.3523 87.1579C80.2986 87.7422 79.1856 88.2029 78.0286 88.5348L77.1925 90.7076C76.9911 91.2309 76.4884 91.5764 75.9281 91.5764H71.3211C70.7605 91.5764 70.2579 91.2309 70.0567 90.7076L69.2201 88.5348C68.0637 88.2029 66.9511 87.7405 65.8975 87.1562L63.7679 88.1029C63.2559 88.3299 62.6564 88.2198 62.2599 87.8218L59.0022 84.5651C58.6058 84.1688 58.4943 83.5693 58.7219 83.0562L59.6675 80.9274C59.0827 79.874 58.6213 78.7613 58.2896 77.6046L56.1171 76.768C55.594 76.5665 55.2488 76.0637 55.2488 75.5029V70.8965C55.2488 70.3359 55.594 69.8329 56.1169 69.6331L58.2899 68.7965C58.3736 68.5052 58.4654 68.2156 58.5651 67.9311H49.1426C48.9094 68.4375 48.656 68.9354 48.38 69.4231L49.6594 72.3038C49.8869 72.8153 49.7756 73.4148 49.3791 73.8111L45.2318 77.9586C44.8355 78.3549 44.2362 78.4666 43.724 78.2397L40.844 76.9594C39.4263 77.7638 37.9209 78.387 36.3529 78.8223L35.2218 81.7606C35.0204 82.2839 34.5178 82.6294 33.9574 82.6294H28.0921C27.5315 82.6294 27.029 82.2839 26.8277 81.7606L25.6961 78.8206C24.1287 78.387 22.6238 77.7638 21.2065 76.9594L18.3254 78.2397C17.8133 78.4666 17.2137 78.3549 16.8175 77.9586L12.6701 73.8111C12.2737 73.4148 12.1624 72.8153 12.39 72.3038L13.6692 69.4231C12.8654 68.0073 12.2413 66.5017 11.8073 64.9318L8.86845 63.8005C8.34498 63.6007 8 63.0977 8 62.5371V56.6724C8 56.1118 8.34498 55.6088 8.86811 55.4073L11.8074 54.276C12.2412 52.7078 12.8652 51.2022 13.669 49.7864L12.3897 46.9057C12.1621 46.3925 12.2735 45.7932 12.6698 45.3967L14.4778 43.5897V16.664C14.4778 14.3252 16.3795 12.4233 18.7171 12.4233H82.6271C84.9645 12.4233 86.8663 14.3252 86.8663 16.664V60.4558L88.2466 61.836C88.6431 62.2323 88.7543 62.8318 88.5269 63.3433L87.5812 65.472C88.1661 66.5254 88.6275 67.6398 88.9592 68.7965L91.1317 69.6331C91.655 69.8329 92 70.3359 92 70.8965ZM41.2789 59.6039C41.2789 53.9491 36.6789 49.3495 31.0245 49.3495C25.3704 49.3495 20.7704 53.9491 20.7704 59.6039C20.7704 65.2587 25.3706 69.8583 31.0245 69.8583C36.6789 69.8583 41.2789 65.2587 41.2789 59.6039ZM43.9886 59.6039C43.9886 52.4554 38.1729 46.6398 31.0245 46.6398C23.8762 46.6398 18.0605 52.4554 18.0605 59.6039C18.0605 66.7524 23.8762 72.568 31.0245 72.568C38.1729 72.568 43.9886 66.7524 43.9886 59.6039ZM38.0264 20.9504C37.0953 20.9504 36.3405 20.195 36.3405 19.2636C36.3405 18.3338 37.0953 17.5785 38.0264 17.5785C38.9574 17.5785 39.712 18.3338 39.712 19.2636C39.712 20.195 38.9574 20.9504 38.0264 20.9504ZM31.5552 20.9504C30.6241 20.9504 29.8695 20.195 29.8695 19.2636C29.8695 18.3338 30.6241 17.5785 31.5552 17.5785C32.4862 17.5785 33.241 18.3338 33.241 19.2636C33.241 20.195 32.4862 20.9504 31.5552 20.9504ZM23.3982 19.2636C23.3982 18.3338 24.1529 17.5785 25.084 17.5785C26.0151 17.5785 26.7698 18.3338 26.7698 19.2636C26.7698 20.195 26.0151 20.9504 25.084 20.9504C24.1529 20.9504 23.3982 20.195 23.3982 19.2636Z"
		fill="black" />
</svg>