<svg width="100" height="100" viewBox="0 0 100 100" fill="none" xmlns="http://www.w3.org/2000/svg">
	<path
		d="M85.7835 26.7679V31.6346H15.2168V26.7679C15.2168 25.4772 15.7295 24.2393 16.6422 23.3267C17.5549 22.414 18.7927 21.9012 20.0835 21.9012H80.9168C82.2075 21.9012 83.4454 22.414 84.358 23.3267C85.2707 24.2393 85.7835 25.4772 85.7835 26.7679Z"
		fill="#21B3FF" />
	<path
		d="M28.6001 19.4679C28.6001 18.124 27.5106 17.0345 26.1667 17.0345C24.8228 17.0345 23.7334 18.124 23.7334 19.4679V24.3345C23.7334 25.6784 24.8228 26.7679 26.1667 26.7679C27.5106 26.7679 28.6001 25.6784 28.6001 24.3345V19.4679Z"
		fill="white" />
	<path
		d="M40.7666 19.4679C40.7666 18.124 39.6771 17.0345 38.3332 17.0345C36.9893 17.0345 35.8999 18.124 35.8999 19.4679V24.3345C35.8999 25.6784 36.9893 26.7679 38.3332 26.7679C39.6771 26.7679 40.7666 25.6784 40.7666 24.3345V19.4679Z"
		fill="white" />
	<path
		d="M52.9336 19.4679C52.9336 18.124 51.8441 17.0345 50.5002 17.0345C49.1563 17.0345 48.0669 18.124 48.0669 19.4679V24.3345C48.0669 25.6784 49.1563 26.7679 50.5002 26.7679C51.8441 26.7679 52.9336 25.6784 52.9336 24.3345V19.4679Z"
		fill="white" />
	<path
		d="M65.1001 19.4679C65.1001 18.124 64.0106 17.0345 62.6667 17.0345C61.3228 17.0345 60.2334 18.124 60.2334 19.4679V24.3345C60.2334 25.6784 61.3228 26.7679 62.6667 26.7679C64.0106 26.7679 65.1001 25.6784 65.1001 24.3345V19.4679Z"
		fill="white" />
	<path
		d="M77.2671 19.4679C77.2671 18.124 76.1776 17.0345 74.8337 17.0345C73.4898 17.0345 72.4004 18.124 72.4004 19.4679V24.3345C72.4004 25.6784 73.4898 26.7679 74.8337 26.7679C76.1776 26.7679 77.2671 25.6784 77.2671 24.3345V19.4679Z"
		fill="white" />
	<path
		d="M80.9167 20.6845H78.4833V19.4679C78.4833 18.4998 78.0988 17.5714 77.4143 16.8869C76.7298 16.2024 75.8014 15.8179 74.8333 15.8179C73.8653 15.8179 72.9369 16.2024 72.2524 16.8869C71.5679 17.5714 71.1833 18.4998 71.1833 19.4679V20.6845H66.3167V19.4679C66.3167 18.4998 65.9321 17.5714 65.2476 16.8869C64.5631 16.2024 63.6347 15.8179 62.6667 15.8179C61.6986 15.8179 60.7702 16.2024 60.0857 16.8869C59.4012 17.5714 59.0167 18.4998 59.0167 19.4679V20.6845H54.15V19.4679C54.15 18.4998 53.7654 17.5714 53.0809 16.8869C52.3964 16.2024 51.468 15.8179 50.5 15.8179C49.532 15.8179 48.6036 16.2024 47.9191 16.8869C47.2346 17.5714 46.85 18.4998 46.85 19.4679V20.6845H41.9833V19.4679C41.9833 18.4998 41.5988 17.5714 40.9143 16.8869C40.2298 16.2024 39.3014 15.8179 38.3333 15.8179C37.3653 15.8179 36.4369 16.2024 35.7524 16.8869C35.0679 17.5714 34.6833 18.4998 34.6833 19.4679V20.6845H29.8167V19.4679C29.8167 18.4998 29.4321 17.5714 28.7476 16.8869C28.0631 16.2024 27.1347 15.8179 26.1667 15.8179C25.1986 15.8179 24.2702 16.2024 23.5857 16.8869C22.9012 17.5714 22.5167 18.4998 22.5167 19.4679V20.6845H20.0833C18.4705 20.6865 16.9243 21.328 15.7839 22.4684C14.6435 23.6089 14.0019 25.1551 14 26.7679V82.7345C14.0019 84.3473 14.6435 85.8935 15.7839 87.034C16.9243 88.1744 18.4705 88.8159 20.0833 88.8179H80.9167C82.5295 88.8159 84.0757 88.1744 85.2161 87.034C86.3565 85.8935 86.9981 84.3473 87 82.7345V26.7679C86.9981 25.1551 86.3565 23.6089 85.2161 22.4684C84.0757 21.328 82.5295 20.6865 80.9167 20.6845ZM73.6167 19.4679C73.6167 19.1452 73.7449 18.8357 73.973 18.6076C74.2012 18.3794 74.5107 18.2512 74.8333 18.2512C75.156 18.2512 75.4655 18.3794 75.6936 18.6076C75.9218 18.8357 76.05 19.1452 76.05 19.4679V24.3345C76.05 24.6572 75.9218 24.9667 75.6936 25.1949C75.4655 25.423 75.156 25.5512 74.8333 25.5512C74.5107 25.5512 74.2012 25.423 73.973 25.1949C73.7449 24.9667 73.6167 24.6572 73.6167 24.3345V19.4679ZM61.45 19.4679C61.45 19.1452 61.5782 18.8357 61.8064 18.6076C62.0345 18.3794 62.344 18.2512 62.6667 18.2512C62.9893 18.2512 63.2988 18.3794 63.527 18.6076C63.7551 18.8357 63.8833 19.1452 63.8833 19.4679V24.3345C63.8833 24.6572 63.7551 24.9667 63.527 25.1949C63.2988 25.423 62.9893 25.5512 62.6667 25.5512C62.344 25.5512 62.0345 25.423 61.8064 25.1949C61.5782 24.9667 61.45 24.6572 61.45 24.3345V19.4679ZM49.2833 19.4679C49.2833 19.1452 49.4115 18.8357 49.6397 18.6076C49.8679 18.3794 50.1773 18.2512 50.5 18.2512C50.8227 18.2512 51.1321 18.3794 51.3603 18.6076C51.5885 18.8357 51.7167 19.1452 51.7167 19.4679V24.3345C51.7167 24.6572 51.5885 24.9667 51.3603 25.1949C51.1321 25.423 50.8227 25.5512 50.5 25.5512C50.1773 25.5512 49.8679 25.423 49.6397 25.1949C49.4115 24.9667 49.2833 24.6572 49.2833 24.3345V19.4679ZM37.1167 19.4679C37.1167 19.1452 37.2449 18.8357 37.473 18.6076C37.7012 18.3794 38.0107 18.2512 38.3333 18.2512C38.656 18.2512 38.9655 18.3794 39.1936 18.6076C39.4218 18.8357 39.55 19.1452 39.55 19.4679V24.3345C39.55 24.6572 39.4218 24.9667 39.1936 25.1949C38.9655 25.423 38.656 25.5512 38.3333 25.5512C38.0107 25.5512 37.7012 25.423 37.473 25.1949C37.2449 24.9667 37.1167 24.6572 37.1167 24.3345V19.4679ZM24.95 19.4679C24.95 19.1452 25.0782 18.8357 25.3064 18.6076C25.5345 18.3794 25.844 18.2512 26.1667 18.2512C26.4893 18.2512 26.7988 18.3794 27.027 18.6076C27.2551 18.8357 27.3833 19.1452 27.3833 19.4679V24.3345C27.3833 24.6572 27.2551 24.9667 27.027 25.1949C26.7988 25.423 26.4893 25.5512 26.1667 25.5512C25.844 25.5512 25.5345 25.423 25.3064 25.1949C25.0782 24.9667 24.95 24.6572 24.95 24.3345V19.4679ZM84.5667 30.4179H20.0833C19.7607 30.4179 19.4512 30.5461 19.223 30.7742C18.9949 31.0024 18.8667 31.3119 18.8667 31.6345C18.8667 31.9572 18.9949 32.2667 19.223 32.4949C19.4512 32.723 19.7607 32.8512 20.0833 32.8512H84.5667V82.7345C84.5667 83.7026 84.1821 84.631 83.4976 85.3155C82.8131 86 81.8847 86.3845 80.9167 86.3845H20.0833C19.1153 86.3845 18.1869 86 17.5024 85.3155C16.8179 84.631 16.4333 83.7026 16.4333 82.7345V26.7679C16.4333 25.7998 16.8179 24.8714 17.5024 24.1869C18.1869 23.5024 19.1153 23.1179 20.0833 23.1179H22.5167V24.3345C22.5167 25.3026 22.9012 26.231 23.5857 26.9155C24.2702 27.6 25.1986 27.9845 26.1667 27.9845C27.1347 27.9845 28.0631 27.6 28.7476 26.9155C29.4321 26.231 29.8167 25.3026 29.8167 24.3345V23.1179H34.6833V24.3345C34.6833 25.3026 35.0679 26.231 35.7524 26.9155C36.4369 27.6 37.3653 27.9845 38.3333 27.9845C39.3014 27.9845 40.2298 27.6 40.9143 26.9155C41.5988 26.231 41.9833 25.3026 41.9833 24.3345V23.1179H46.85V24.3345C46.85 25.3026 47.2346 26.231 47.9191 26.9155C48.6036 27.6 49.532 27.9845 50.5 27.9845C51.468 27.9845 52.3964 27.6 53.0809 26.9155C53.7654 26.231 54.15 25.3026 54.15 24.3345V23.1179H59.0167V24.3345C59.0167 25.3026 59.4012 26.231 60.0857 26.9155C60.7702 27.6 61.6986 27.9845 62.6667 27.9845C63.6347 27.9845 64.5631 27.6 65.2476 26.9155C65.9321 26.231 66.3167 25.3026 66.3167 24.3345V23.1179H71.1833V24.3345C71.1833 25.3026 71.5679 26.231 72.2524 26.9155C72.9369 27.6 73.8653 27.9845 74.8333 27.9845C75.8014 27.9845 76.7298 27.6 77.4143 26.9155C78.0988 26.231 78.4833 25.3026 78.4833 24.3345V23.1179H80.9167C81.8847 23.1179 82.8131 23.5024 83.4976 24.1869C84.1821 24.8714 84.5667 25.7998 84.5667 26.7679V30.4179Z"
		fill="black" />
	<path
		d="M35.8999 75.4345C40.0933 75.4297 44.1135 73.7618 47.0787 70.7966C50.0438 67.8314 51.7118 63.8112 51.7166 59.6179C51.7134 56.9928 52.4823 54.4247 53.9275 52.2333C55.3728 50.0419 57.4306 48.3239 59.8448 47.2932C62.2591 46.2624 64.9231 45.9644 67.5055 46.4362C70.0878 46.9081 72.4743 48.1289 74.3681 49.9468C76.2618 51.7647 77.5791 54.0994 78.156 56.6603C78.733 59.2212 78.544 61.8952 77.6128 64.3495C76.6815 66.8038 75.049 68.9301 72.9185 70.4637C70.7879 71.9972 68.2534 72.8704 65.6304 72.9744L67.1768 71.428C67.3984 71.1986 67.521 70.8912 67.5183 70.5722C67.5155 70.2532 67.3876 69.9481 67.162 69.7225C66.9364 69.4969 66.6312 69.369 66.3122 69.3662C65.9932 69.3634 65.6859 69.4861 65.4564 69.7077L61.8064 73.3577C61.5783 73.5858 61.4502 73.8952 61.4502 74.2179C61.4502 74.5405 61.5783 74.8499 61.8064 75.078L65.4564 78.728C65.6859 78.9497 65.9932 79.0723 66.3122 79.0695C66.6312 79.0668 66.9364 78.9388 67.162 78.7132C67.3876 78.4876 67.5155 78.1825 67.5183 77.8635C67.521 77.5445 67.3984 77.2371 67.1768 77.0077L65.5793 75.4102C68.684 75.3143 71.6916 74.306 74.2266 72.511C76.7616 70.716 78.7116 68.214 79.8331 65.3175C80.9547 62.4209 81.198 59.2581 80.5328 56.224C79.8675 53.1899 78.3232 50.4191 76.0927 48.2575C73.8621 46.0958 71.0441 44.6392 67.9907 44.0696C64.9372 43.4999 61.7836 43.8424 58.9237 45.0543C56.0637 46.2662 53.6241 48.2938 51.9096 50.8839C50.1951 53.4739 49.2816 56.5117 49.2833 59.6179C49.2865 62.2429 48.5176 64.811 47.0723 67.0024C45.6271 69.1938 43.5693 70.9118 41.155 71.9425C38.7408 72.9733 36.0767 73.2713 33.4944 72.7995C30.9121 72.3277 28.5255 71.1068 26.6318 69.2889C24.7381 67.471 23.4208 65.1363 22.8438 62.5754C22.2669 60.0145 22.4558 57.3405 23.3871 54.8862C24.3184 52.4319 25.9509 50.3056 28.0814 48.772C30.212 47.2385 32.7465 46.3653 35.3695 46.2613L33.8231 47.8077C33.7069 47.9199 33.6142 48.0542 33.5504 48.2026C33.4867 48.351 33.4531 48.5107 33.4517 48.6722C33.4503 48.8338 33.4811 48.994 33.5423 49.1435C33.6034 49.293 33.6938 49.4289 33.808 49.5431C33.9222 49.6574 34.0581 49.7477 34.2076 49.8089C34.3571 49.87 34.5173 49.9008 34.6789 49.8994C34.8404 49.898 35.0001 49.8645 35.1485 49.8007C35.297 49.7369 35.4312 49.6442 35.5435 49.528L39.1935 45.878C39.4215 45.6499 39.5497 45.3405 39.5497 45.0179C39.5497 44.6952 39.4215 44.3858 39.1935 44.1577L35.5435 40.5077C35.314 40.286 35.0067 40.1634 34.6876 40.1662C34.3686 40.169 34.0635 40.2969 33.8379 40.5225C33.6123 40.7481 33.4844 41.0532 33.4816 41.3722C33.4788 41.6912 33.6015 41.9986 33.8231 42.228L35.4206 43.8255C31.2716 43.9517 27.3387 45.7046 24.4712 48.7058C21.6037 51.707 20.0317 55.7157 20.0946 59.8661C20.1575 64.0165 21.8504 67.9756 24.8076 70.8885C27.7648 73.8014 31.749 75.4343 35.8999 75.4345Z"
		fill="black" />
</svg>