<svg width="40" height="40" viewBox="0 0 40 40" fill="none" xmlns="http://www.w3.org/2000/svg">
	<circle cx="18" cy="18" r="19" transform="matrix(-1 0 0 1 38 2)" fill="#05A9FF" stroke="white" stroke-width="2" />
	<g clip-path="url(#clip0_0_1)">
		<path
			d="M25.6635 19.5801H14.8104L18.0769 16.3136C18.1359 16.2567 18.1829 16.1886 18.2152 16.1133C18.2476 16.038 18.2646 15.957 18.2653 15.8751C18.266 15.7931 18.2504 15.7119 18.2194 15.636C18.1884 15.5602 18.1425 15.4913 18.0846 15.4333C18.0266 15.3754 17.9577 15.3296 17.8819 15.2985C17.8061 15.2675 17.7248 15.2519 17.6428 15.2526C17.5609 15.2533 17.4799 15.2703 17.4046 15.3027C17.3293 15.335 17.2612 15.382 17.2043 15.441L12.8843 19.761C12.7686 19.8767 12.7036 20.0336 12.7036 20.1973C12.7036 20.3609 12.7686 20.5179 12.8843 20.6336L17.2043 24.9536C17.3207 25.066 17.4766 25.1282 17.6384 25.1268C17.8002 25.1254 17.955 25.0605 18.0694 24.9461C18.1838 24.8317 18.2488 24.6769 18.2502 24.5151C18.2516 24.3533 18.1894 24.1974 18.0769 24.081L14.8104 20.8144H25.6635C25.8272 20.8144 25.9841 20.7494 26.0999 20.6337C26.2156 20.5179 26.2806 20.361 26.2806 20.1973C26.2806 20.0336 26.2156 19.8766 26.0999 19.7609C25.9841 19.6452 25.8272 19.5801 25.6635 19.5801Z"
			fill="white" />
	</g>
	<defs>
		<clipPath id="clip0_0_1">
			<rect width="14.8114" height="14.8114" fill="white" transform="translate(12.0874 12.7918)" />
		</clipPath>
	</defs>
</svg>