<svg width="40" height="40" viewBox="0 0 40 40" fill="none" xmlns="http://www.w3.org/2000/svg">
	<circle cx="20" cy="20" r="19" fill="#05A9FF" stroke="white" stroke-width="2" />
	<g clip-path="url(#clip0_0_1)">
		<path
			d="M14.3365 19.5801H25.1896L21.9231 16.3136C21.8641 16.2567 21.8171 16.1886 21.7848 16.1133C21.7524 16.038 21.7354 15.957 21.7347 15.8751C21.734 15.7931 21.7496 15.7119 21.7806 15.636C21.8116 15.5602 21.8575 15.4913 21.9154 15.4333C21.9734 15.3754 22.0423 15.3296 22.1181 15.2985C22.1939 15.2675 22.2752 15.2519 22.3572 15.2526C22.4391 15.2533 22.5201 15.2703 22.5954 15.3027C22.6707 15.335 22.7388 15.382 22.7957 15.441L27.1157 19.761C27.2314 19.8767 27.2964 20.0336 27.2964 20.1973C27.2964 20.3609 27.2314 20.5179 27.1157 20.6336L22.7957 24.9536C22.6793 25.066 22.5234 25.1282 22.3616 25.1268C22.1998 25.1254 22.045 25.0605 21.9306 24.9461C21.8162 24.8317 21.7512 24.6769 21.7498 24.5151C21.7484 24.3533 21.8106 24.1974 21.9231 24.081L25.1896 20.8144H14.3365C14.1728 20.8144 14.0159 20.7494 13.9001 20.6337C13.7844 20.5179 13.7194 20.361 13.7194 20.1973C13.7194 20.0336 13.7844 19.8766 13.9001 19.7609C14.0159 19.6452 14.1728 19.5801 14.3365 19.5801Z"
			fill="white" />
	</g>
	<defs>
		<clipPath id="clip0_0_1">
			<rect width="14.8114" height="14.8114" fill="white" transform="matrix(-1 0 0 1 27.9126 12.7918)" />
		</clipPath>
	</defs>
</svg>