<svg width="100" height="100" viewBox="0 0 100 100" fill="none" xmlns="http://www.w3.org/2000/svg">
	<path fill-rule="evenodd" clip-rule="evenodd"
		d="M61.3451 69.6655C61.3451 68.0848 60.0637 66.8035 58.4831 66.8035C56.9025 66.8035 55.6211 68.0848 55.6211 69.6655C55.6211 71.2461 56.9025 72.5275 58.4831 72.5275C60.0637 72.5275 61.3451 71.2461 61.3451 69.6655Z"
		fill="#00AAFF" />
	<path fill-rule="evenodd" clip-rule="evenodd"
		d="M42.6391 66.911C42.6391 58.2407 35.6105 51.212 26.9359 51.212C18.2659 51.212 11.2373 58.2408 11.2373 66.911C11.2373 75.5859 18.2659 82.6147 26.9359 82.6147C35.6105 82.6147 42.6391 75.5859 42.6391 66.911Z"
		fill="#00AAFF" />
	<path
		d="M60.0469 48.8328C59.6293 49.2518 59.0745 49.4825 58.4846 49.4825C57.8946 49.4825 57.3398 49.2518 56.9222 48.8328C56.4399 48.3486 55.6564 48.3473 55.1725 48.8297C54.6885 49.312 54.6872 50.0954 55.1694 50.5794C56.0546 51.4678 57.2319 51.9569 58.4846 51.9569C59.7371 51.9569 60.9145 51.4678 61.7998 50.5794C62.2821 50.0954 62.2808 49.3119 61.7966 48.8297C61.3127 48.3474 60.5293 48.3488 60.0469 48.8328Z"
		fill="black" />
	<path
		d="M56.6057 42.2891V40.1915C57.8826 39.73 59.0833 39.73 60.3599 40.1915V42.2891C60.3599 43.7604 61.5548 44.9575 63.0236 44.9575H68.2238C69.6951 44.9575 70.8921 43.7604 70.8921 42.2891V36.6259C70.8921 35.1571 69.6952 33.9622 68.2238 33.9622H63.0236C61.5548 33.9622 60.3599 35.1571 60.3599 36.6259V37.6083C59.1054 37.2943 57.8602 37.2942 56.6057 37.6083V36.6259C56.6057 35.1571 55.4108 33.9622 53.942 33.9622H48.7418C47.273 33.9622 46.0781 35.1571 46.0781 36.6259V42.2891C46.0781 43.7604 47.273 44.9575 48.7418 44.9575H53.942C55.4108 44.9575 56.6057 43.7606 56.6057 42.2891ZM62.8345 36.626C62.8345 36.5289 62.9264 36.437 63.0236 36.437H68.2238C68.3251 36.437 68.4175 36.527 68.4175 36.626V42.2893C68.4175 42.3924 68.3271 42.483 68.2238 42.483H63.0236C62.9246 42.483 62.8345 42.3906 62.8345 42.2893V36.626ZM54.1311 42.2891C54.1311 42.3923 54.0428 42.4828 53.942 42.4828H48.7418C48.6412 42.4828 48.5528 42.3923 48.5528 42.2891V36.6259C48.5528 36.5252 48.641 36.4368 48.7418 36.4368H53.942C54.0427 36.4368 54.1311 36.5251 54.1311 36.6259V42.2891Z"
		fill="black" />
	<path
		d="M62.5814 69.6654C62.5814 67.405 60.7426 65.566 58.4821 65.566C56.2216 65.566 54.3828 67.405 54.3828 69.6654C54.3828 71.9257 56.2216 73.7647 58.4821 73.7647C60.7426 73.7647 62.5814 71.9257 62.5814 69.6654ZM56.8576 69.6654C56.8576 68.7695 57.5863 68.0407 58.4823 68.0407C59.3783 68.0407 60.107 68.7695 60.107 69.6654C60.107 70.5612 59.3783 71.29 58.4823 71.29C57.5863 71.29 56.8576 70.5612 56.8576 69.6654Z"
		fill="black" />
	<path
		d="M61.0432 77.4751C61.0432 76.7918 60.4892 76.2378 59.8059 76.2378H57.1592C56.4759 76.2378 55.9219 76.7918 55.9219 77.4751C55.9219 78.1584 56.4759 78.7124 57.1592 78.7124H59.8059C60.4892 78.7124 61.0432 78.1584 61.0432 77.4751Z"
		fill="black" />
	<path
		d="M29.2571 61.0858C29.3796 60.4135 28.9338 59.7693 28.2613 59.6469C27.5894 59.5246 26.9448 59.9702 26.8224 60.6427L24.6198 72.7409C24.4974 73.4131 24.9432 74.0574 25.6156 74.1798C25.6905 74.1935 25.7651 74.2001 25.8387 74.2001C26.425 74.2001 26.9458 73.7815 27.0546 73.1841L29.2571 61.0858Z"
		fill="white" />
	<path
		d="M31.5221 71.7509C31.7638 71.9928 32.0807 72.1139 32.3976 72.1139C32.714 72.1139 33.0304 71.9933 33.272 71.7521L37.0085 68.02C37.3035 67.7252 37.4658 67.3322 37.4658 66.9133C37.4658 66.4945 37.3033 66.1015 37.0087 65.807L33.2723 62.0705C32.7891 61.5871 32.0056 61.5873 31.5226 62.0705C31.0394 62.5537 31.0394 63.337 31.5226 63.8202L34.6152 66.913L31.5231 70.0012C31.0397 70.4841 31.0392 71.2675 31.5221 71.7509Z"
		fill="white" />
	<path
		d="M22.3534 62.0704C21.8702 61.5872 21.0867 61.5872 20.6037 62.0704L16.8673 65.807C16.5725 66.1018 16.4102 66.4946 16.4102 66.9133C16.4102 67.332 16.5725 67.725 16.8678 68.0203L20.6042 71.7522C20.8457 71.9934 21.1621 72.114 21.4785 72.114C21.7955 72.114 22.1124 71.9931 22.3541 71.751C22.837 71.2675 22.8365 70.4842 22.3529 70.0013L19.2609 66.913L22.3536 63.8203C22.8368 63.3371 22.8368 62.5536 22.3534 62.0704Z"
		fill="white" />
	<path
		d="M81.3355 68.9529C81.3355 68.9529 81.3353 68.9529 81.3353 68.9528L81.9311 59.4223C81.9871 58.477 81.6506 57.5663 80.9808 56.8569C80.2764 56.1096 79.2848 55.6806 78.2587 55.6806H71.8134C74.2082 53.2095 76.0546 50.3087 77.0948 47.4337C80.5136 47.0996 83.7148 45.038 83.7148 41.4195V39.8062C83.7148 37.5277 81.855 35.6742 79.5688 35.6742H78.0424V29.3215C78.0424 25.6547 77.5214 22.4605 76.4941 19.8274C76.2458 19.1908 75.5285 18.8757 74.8917 19.1245C74.2551 19.3728 73.9403 20.0903 74.1887 20.7269C75.1037 23.072 75.5678 25.9637 75.5678 29.3215V31.093C73.3604 28.6696 69.7509 27.0954 64.9318 26.5213C62.8422 26.2749 61.3792 26.6066 60.0884 26.8991C58.2326 27.3198 56.6299 27.6833 53.0715 26.4456C52.5194 26.2539 51.9861 26.1114 51.4709 26.0094C47.9207 23.257 47.3561 17.1938 49.3449 13.7682C51.6428 12.7549 54.4479 12.2409 57.744 12.2409H59.2264C64.7112 12.2409 68.846 13.6531 71.516 16.4382C71.989 16.9315 72.7721 16.948 73.2654 16.4751C73.7587 16.0023 73.7752 15.219 73.3023 14.7257C70.1477 11.4348 65.4117 9.76624 59.2264 9.76624H57.744C54.3212 9.76624 51.3442 10.278 48.8315 11.2923C48.3983 11.4434 47.2601 12.0198 46.9706 12.1823C45.5533 12.9777 44.3189 13.9678 43.2733 15.1522C40.3902 18.4174 38.9283 23.1845 38.9283 29.3213V35.674H37.3972C35.1136 35.674 33.2558 37.5277 33.2558 39.806V41.4193C33.2558 45.0395 36.4576 47.1012 39.8758 47.434C40.9155 50.3084 42.761 53.209 45.1543 55.6806H39.6049C36.5 52.1815 31.9715 49.9741 26.9364 49.9741C17.5971 49.9741 10 57.5729 10 66.9105C10 76.2531 17.5971 83.8519 26.9364 83.8519H26.9711V91.5381C26.9711 93.0245 28.1803 94.2338 29.6668 94.2338H38.8749H38.8757H78.0904H78.0909H87.3027C88.7907 94.2338 90 93.0245 90 91.5381V83.1573C90 76.6837 86.8424 71.51 81.3355 68.9529ZM81.24 39.806V41.4193C81.24 43.2321 79.6899 44.3861 77.8144 44.8173C77.9632 44.017 78.0422 43.2297 78.0422 42.4669V38.1487H79.5686C80.4902 38.1487 81.24 38.8922 81.24 39.806ZM41.403 29.3213C41.403 23.8057 42.6563 19.5897 45.1283 16.7901C45.3853 16.4991 45.6615 16.2262 45.9479 15.9627C45.674 17.3955 45.6417 18.9369 45.8697 20.4883C46.1706 22.5362 46.9169 24.4077 48.0045 25.9238C46.2805 26.1957 44.8894 26.911 43.8637 27.6407C42.9379 28.2994 42.1071 29.1182 41.403 30.038V29.3213ZM35.7304 41.4195V39.8062C35.7304 38.8922 36.4781 38.1488 37.3972 38.1488H38.9283V42.4671C38.9283 43.2302 39.0073 44.0177 39.1562 44.8183C37.281 44.3875 35.7304 43.2332 35.7304 41.4195ZM41.9631 45.9253C41.9573 45.9037 41.951 45.8822 41.9441 45.8611C41.5917 44.6957 41.403 43.5506 41.403 42.4669V36.9113C41.403 34.2717 43.0047 31.2888 45.2982 29.6574C46.7165 28.6484 49.0755 27.6778 52.2592 28.7832C56.4862 30.2533 58.5956 29.7752 60.6355 29.3124C61.8382 29.0397 62.9739 28.7818 64.6403 28.9786C69.3277 29.5371 75.0209 31.3802 75.5676 36.9829V42.4669C75.5676 43.5287 75.3855 44.6495 75.0468 45.7903C75.022 45.8527 75.0026 45.9177 74.9882 45.9845C73.9216 49.4031 71.4511 52.9811 68.1721 55.6806H48.7942C45.4983 52.9648 43.0189 49.3611 41.9631 45.9253ZM26.9364 81.3772C18.9615 81.3772 12.4746 74.8871 12.4746 66.9105C12.4746 58.9372 18.9615 52.4488 26.9364 52.4488C30.7028 52.4488 34.1359 53.8939 36.7112 56.2613C37.3497 56.8454 37.9353 57.4888 38.4616 58.1817C40.306 60.6085 41.4015 63.6341 41.4015 66.9105C41.4015 70.149 40.3324 73.1433 38.5276 75.5569C37.8496 76.4626 37.0692 77.2875 36.2014 78.0101C34.3323 79.5757 32.0622 80.6761 29.5711 81.1364C28.7544 81.2882 27.9131 81.3706 27.0535 81.3756C27.0139 81.3772 26.976 81.3772 26.9364 81.3772ZM29.4457 91.5381V83.6655C31.9863 83.2877 34.3438 82.344 36.3862 80.9648L36.6091 84.5247H36.4339C35.1044 84.5247 34.0228 85.6062 34.0228 86.9358V89.3769C34.0228 90.2422 34.2511 91.0547 34.649 91.7592H29.6668C29.5463 91.7592 29.4457 91.6569 29.4457 91.5381ZM78.0904 91.7592H38.8757H38.8749C37.564 91.7592 36.4974 90.6905 36.4974 89.3769V86.9993H55.6303C56.3136 86.9993 56.8676 86.4453 56.8676 85.762C56.8676 85.0786 56.3136 84.5247 55.6303 84.5247H39.0885L38.7454 79.0428C41.9096 75.966 43.8761 71.6635 43.8761 66.9105C43.8761 63.7083 42.9819 60.7124 41.4312 58.1553H78.2587C78.6002 58.1553 78.945 58.3037 79.1809 58.5529C79.3195 58.7013 79.4795 58.9455 79.4614 59.2721L77.8826 84.5247H61.3401C60.6568 84.5247 60.1028 85.0786 60.1028 85.762C60.1028 86.4453 60.6568 86.9993 61.3401 86.9993H79.0375C79.0402 86.9993 79.043 86.9996 79.0456 86.9996C79.0479 86.9996 79.0502 86.9993 79.0527 86.9993H80.4732V89.3769C80.4732 90.6905 79.4045 91.7592 78.0909 91.7592H78.0904ZM87.5254 91.5381C87.5254 91.6552 87.4214 91.7592 87.3027 91.7592H82.3209C82.7191 91.0547 82.9478 90.2422 82.9478 89.3769V86.9358C82.9478 85.6062 81.8641 84.5247 80.5319 84.5247H80.3618L81.1671 71.642C86.6723 74.6743 87.5252 80.0937 87.5252 83.1573L87.5254 91.5381Z"
		fill="black" />
</svg>