<svg width="100" height="100" viewBox="0 0 100 100" fill="none" xmlns="http://www.w3.org/2000/svg">
	<path fill-rule="evenodd" clip-rule="evenodd"
		d="M38.385 71.4109C35.6735 73.9138 33.8337 77.2208 33.1612 80.8523L33.0493 81.4564L32.4508 81.5945C28.5046 82.5049 24.002 82.655 19.9701 82.2588C16.9193 81.9591 12.5392 81.1651 10.0485 79.2687C9.09882 78.5456 8.3418 77.6064 8.3418 76.3663C8.3418 67.6935 15.4006 60.6389 24.0725 60.6389C30.4525 60.6389 36.187 64.4678 38.6156 70.3659L38.8638 70.9686L38.385 71.4109ZM75.9288 60.6389C84.6021 60.6389 91.6586 67.6926 91.6586 76.3663C91.6586 77.6064 90.9027 78.5454 89.953 79.2687C87.4625 81.1651 83.0817 81.9591 80.0312 82.2588C76 82.6548 71.4979 82.5047 67.5526 81.5943L66.9546 81.4562L66.8424 80.8527C66.1671 77.2217 64.3276 73.9143 61.6164 71.4105L61.1375 70.9684L61.3859 70.3657C63.8153 64.468 69.5483 60.6389 75.9288 60.6389ZM58.1766 54.1828C57.4969 50.2144 54.0316 47.2926 50.0002 47.2926C45.9676 47.2926 42.5063 50.2165 41.8247 54.1842L41.6502 55.1997L40.656 54.9295C38.4259 54.3235 34.2716 52.8104 34.2716 49.943C34.2716 41.2699 41.3271 34.2144 50.0002 34.2144C58.674 34.2144 65.7309 41.2685 65.7309 49.943C65.7309 52.809 61.5742 54.3226 59.3455 54.9284L58.3506 55.1988L58.1766 54.1828Z"
		fill="#00AAFF" />
	<path fill-rule="evenodd" clip-rule="evenodd"
		d="M50.0002 15.5869C46.7174 15.5869 44.0457 18.2584 44.0457 21.5415C44.0457 24.8255 46.7171 27.4969 50.0002 27.4969C53.2854 27.4969 55.9569 24.8255 55.9569 21.5415C55.9569 18.2584 53.2854 15.5869 50.0002 15.5869ZM50.0002 12.3094C55.0931 12.3094 59.2355 16.4507 59.2355 21.5415C59.2355 26.6334 55.0933 30.7756 50.0002 30.7756C44.9095 30.7756 40.7682 26.6334 40.7682 21.5415C40.7682 16.4505 44.9095 12.3094 50.0002 12.3094ZM9.27843 76.3663C9.27843 76.6494 9.27843 77.5067 10.6159 78.5234C14.4024 81.4075 24.8097 82.3958 32.2403 80.6816C32.9631 76.7785 34.9439 73.3125 37.7497 70.7225C35.4803 65.211 30.1121 61.5755 24.0728 61.5755C15.9169 61.5755 9.27843 68.2108 9.27843 76.3663ZM50.0002 69.1991C58.1579 69.1991 64.7943 75.8343 64.7943 83.9899C64.7943 86.8398 58.1558 89.1577 50.0002 89.1577C41.8446 89.1577 35.2082 86.8398 35.2082 83.9899C35.2082 75.8343 41.8446 69.1991 50.0002 69.1991ZM62.2516 70.7225C65.0566 73.3125 67.0373 76.7785 67.7632 80.6816C75.1905 82.3958 85.5992 81.4077 89.3854 78.5234C90.7218 77.5067 90.7218 76.6494 90.7218 76.3663C90.7218 68.2108 84.0865 61.5755 75.9286 61.5755C69.8895 61.5755 64.5222 65.211 62.2516 70.7225ZM8.62959 81.1312C6.45711 79.4787 6.00098 77.6277 6.00098 76.3663C6.00098 66.4028 14.1093 58.2969 24.0725 58.2969C31.1529 58.2969 37.483 62.3885 40.4299 68.6734C43.2072 66.9318 46.4879 65.9202 50 65.9202C53.5153 65.9202 56.7928 66.9316 59.5701 68.6734C62.5204 62.3885 68.8473 58.2969 75.9286 58.2969C85.8942 58.2969 94.0002 66.4028 94.0002 76.3663C94.0002 77.6277 93.5431 79.4785 91.3706 81.1312C88.092 83.6298 81.9414 84.7964 75.9066 84.7985C73.1766 84.7985 70.4742 84.5573 68.0694 84.0955C68.032 86.0742 66.9038 88.7765 61.8627 90.6338C58.7065 91.795 54.4939 92.4361 50 92.4361C45.5075 92.4361 41.2946 91.795 38.1373 90.6338C33.0961 88.7765 31.968 86.0742 31.9305 84.0955C29.5255 84.5571 26.821 84.7985 24.0934 84.7985C18.0599 84.7985 11.9082 83.6296 8.62959 81.1312ZM18.1182 47.9655C18.1182 51.2495 20.7899 53.9212 24.0728 53.9212C27.358 53.9212 30.0294 51.2498 30.0294 47.9655C30.0294 44.6827 27.358 42.011 24.0728 42.011C20.7897 42.0112 18.1182 44.6827 18.1182 47.9655ZM35.2082 49.9432C35.2082 51.5561 37.3465 53.0598 40.9017 54.0259C41.6486 49.6777 45.4417 46.3562 50.0002 46.3562C54.559 46.3562 58.3551 49.6765 59.0999 54.0247C62.6539 53.0586 64.7943 51.5549 64.7943 49.9432C64.7943 41.7864 58.1579 35.1512 50.0002 35.1512C41.8446 35.1512 35.2082 41.7864 35.2082 49.9432ZM55.9569 55.588C55.9569 52.3051 53.2854 49.6346 50.0002 49.6346C46.7174 49.6346 44.0457 52.3049 44.0457 55.588C44.0457 58.872 46.7171 61.5437 50.0002 61.5437C53.2854 61.5437 55.9569 58.8722 55.9569 55.588ZM69.9733 47.9655C69.9733 51.2495 72.6448 53.9212 75.9288 53.9212C79.214 53.9212 81.8855 51.2498 81.8855 47.9655C81.8855 44.6827 79.214 42.011 75.9288 42.011C72.6448 42.0112 69.9733 44.6827 69.9733 47.9655ZM14.8396 47.9655C14.8396 42.8748 18.9818 38.7326 24.0725 38.7326C28.0155 38.7326 31.3854 41.2167 32.7084 44.7003C34.9602 37.286 41.8587 31.8737 50 31.8737C58.1422 31.8737 65.0397 37.2862 67.2928 44.7014C68.616 41.217 71.9868 38.7326 75.9286 38.7326C81.0217 38.7326 85.1627 42.8748 85.1627 47.9655C85.1627 53.0563 81.0217 57.1985 75.9286 57.1985C72.2985 57.1985 69.1512 55.0911 67.644 52.0349C66.5975 54.4774 63.6439 56.3401 59.05 57.4198C58.2008 61.6369 54.466 64.8218 50 64.8218C45.5372 64.8218 41.8025 61.6369 40.9499 57.4198C36.3581 56.3401 33.4057 54.4774 32.3569 52.0358C30.8508 55.0909 27.7036 57.1982 24.0725 57.1982C18.9818 57.1987 14.8396 53.0565 14.8396 47.9655Z"
		fill="black" />
</svg>