<svg width="100" height="100" viewBox="0 0 100 100" fill="none" xmlns="http://www.w3.org/2000/svg">
	<path fill-rule="evenodd" clip-rule="evenodd"
		d="M71.7884 22.9946L84.6883 15.6444C84.9427 15.4994 85.2325 15.5006 85.4855 15.6477C85.7386 15.7948 85.8833 16.0461 85.8833 16.3388V85.0911C85.8833 85.5313 85.5242 85.8904 85.084 85.8904H72.1841C71.7438 85.8904 71.3848 85.5313 71.3848 85.0911L73.8721 71.416L72.1841 59.8206L71.3848 23.6891C71.3848 23.394 71.532 23.1408 71.7884 22.9946Z"
		fill="#21B3FF" />
	<path fill-rule="evenodd" clip-rule="evenodd"
		d="M19.4974 49.1614C23.7972 46.7113 28.0973 44.2611 32.3973 41.8111C32.6516 41.6661 32.9416 41.6674 33.1947 41.8146C33.4477 41.9617 33.5923 42.2131 33.5923 42.5058L32.2655 64.2542L31.2424 69.3698L33.5923 85.0911C33.5923 85.5314 33.2332 85.8904 32.793 85.8904C28.493 85.8904 24.193 85.8904 19.8931 85.8904C19.4528 85.8904 19.0936 85.5312 19.0938 85.091C19.0938 71.3671 19.0938 63.6787 19.0938 49.8563C19.0936 49.561 19.2408 49.3076 19.4974 49.1614Z"
		fill="#21B3FF" />
	<path fill-rule="evenodd" clip-rule="evenodd"
		d="M65.4324 17.839L14.6506 45.2692C14.4813 45.361 14.2994 45.4054 14.1204 45.4054C13.7225 45.4054 13.3374 45.1925 13.1342 44.8171C12.8415 44.2733 13.0432 43.594 13.5877 43.3013L63.9362 16.1027L59.3228 15.0412C58.7202 14.9036 58.3441 14.3025 58.4817 13.7C58.6208 13.0967 59.2219 12.7213 59.823 12.8606L67.3288 14.5871C67.6177 14.654 67.8688 14.8315 68.0275 15.0844C68.1841 15.3357 68.2352 15.6388 68.1697 15.9283L66.4411 23.4341C66.3041 24.0367 65.7024 24.412 65.0998 24.2736C64.4973 24.1359 64.122 23.534 64.2604 22.9323L65.4324 17.839ZM57.9876 73.0425C57.9876 75.4594 56.1145 77.4852 53.6269 77.9659L53.6569 79.1988C53.672 79.8155 53.1823 80.3287 52.5654 80.3429C52.5556 80.3429 52.5459 80.3429 52.5369 80.3429C51.9322 80.3429 51.4334 79.8607 51.4192 79.2514L51.3891 77.9838C49.9042 77.725 48.9557 76.9412 48.0507 76.0875C47.6017 75.664 47.5814 74.9562 48.0049 74.5047C48.4283 74.0557 49.137 74.0346 49.586 74.4604C50.6151 75.4308 51.247 75.837 52.4859 75.837C54.286 75.837 55.7498 74.5831 55.7498 73.0425C55.7498 71.4996 54.286 70.2463 52.4859 70.2463C49.4514 70.2463 46.9833 67.9889 46.9833 65.2139C46.9833 62.7955 48.8587 60.7697 51.3477 60.2882L51.3154 58.9124C51.3012 58.2949 51.7886 57.7817 52.4076 57.7675C53.0229 57.7533 53.5375 58.2421 53.5517 58.859L53.5871 60.3176C54.9381 60.6162 56.584 61.3917 57.3099 62.493C57.6492 63.0091 57.5054 63.7033 56.9888 64.0434C56.4727 64.3826 55.7785 64.2382 55.4399 63.7222C55.0623 63.1505 53.4066 62.4179 52.4858 62.4179C50.6857 62.4179 49.2211 63.6726 49.2211 65.2139C49.2211 66.7553 50.6857 68.0084 52.4858 68.0084C55.5195 68.0084 57.9876 70.266 57.9876 73.0425ZM52.4856 84.241C60.8587 84.241 67.6709 77.4288 67.6709 69.0557C67.6709 60.6834 60.8587 53.8718 52.4856 53.8718C44.1133 53.8718 37.3018 60.6832 37.3018 69.0557C37.3018 77.4286 44.1133 84.241 52.4856 84.241ZM52.4856 51.6339C42.8797 51.6339 35.0632 59.4496 35.0632 69.0557C35.0632 78.6632 42.8797 86.4789 52.4856 86.4789C62.0932 86.4789 69.9088 78.6632 69.9088 69.0557C69.909 59.4496 62.0932 51.6339 52.4856 51.6339ZM84.7617 84.7698H72.5019V79.8591C74.2441 76.6426 75.234 72.9627 75.234 69.0555C75.234 65.1485 74.2441 61.4685 72.5019 58.2521V23.8734L84.7617 16.8875V84.7698ZM52.4856 89.566C63.7954 89.566 72.9961 80.3654 72.9961 69.0555C72.9961 57.7464 63.7955 48.5451 52.4856 48.5451C41.1765 48.5451 31.9752 57.7464 31.9752 69.0555C31.9753 80.3654 41.1765 89.566 52.4856 89.566ZM32.4709 84.7698V79.8591C30.7279 76.6426 29.7373 72.9627 29.7373 69.0555C29.7373 65.1485 30.7279 61.4685 32.4709 58.2521V43.054L20.2095 50.0399V84.7698H32.4709ZM46.3565 36.9562V47.146C48.307 46.6013 50.3622 46.3072 52.4856 46.3072C54.6084 46.3072 56.6642 46.6013 58.6163 47.146V29.971L46.3565 36.9562ZM86.443 13.9943C86.0977 13.7943 85.6728 13.7927 85.3259 13.989L70.8282 22.2508C70.4776 22.4494 70.264 22.8219 70.264 23.2226V54.8788C67.805 51.8029 64.5696 49.3762 60.8544 47.9026V28.0462C60.8544 27.6459 60.6415 27.2788 60.2977 27.0772C59.9524 26.8771 59.5275 26.8756 59.1806 27.0728L44.6829 35.3338C44.3323 35.5338 44.1188 35.9046 44.1188 36.3064V47.9028C40.4028 49.3764 37.1659 51.8031 34.7091 54.879V41.1289C34.7091 40.7294 34.4962 40.3616 34.1511 40.1616C33.8074 39.9608 33.3823 39.9584 33.0355 40.1571L18.5374 48.4173C18.1868 48.6175 17.971 48.9884 17.971 49.3907V85.8891C17.971 86.5075 18.4734 87.0077 19.0903 87.0077H33.5896C34.2065 87.0077 34.709 86.5075 34.709 85.8891V83.2322C38.8795 88.4527 45.2982 91.8039 52.4858 91.8039C59.6727 91.8039 66.0915 88.4527 70.264 83.2322V85.8891C70.264 86.5075 70.7642 87.0077 71.3826 87.0077H85.8804C86.4994 87.0077 86.9996 86.5075 86.9996 85.8891V14.9618C86.9996 14.5631 86.7867 14.196 86.443 13.9943Z"
		fill="black" />
</svg>