<svg width="572" height="376" viewBox="0 0 572 376" fill="none" xmlns="http://www.w3.org/2000/svg">
	<rect x="2" y="59.9606" width="484" height="316.008" rx="20" fill="#1B3A4A" />
	<g filter="url(#filter0_d_236_1211)">
		<rect x="456" y="179" width="71.2128" height="71.2128" rx="14" fill="#00AAFF" />
	</g>
	<path
		d="M483.223 204.126C482.755 203.507 481.875 203.385 481.256 203.852L468.557 213.455C467.939 213.923 467.817 214.803 468.284 215.422C468.362 215.525 468.454 215.617 468.557 215.695L481.256 225.297C481.871 225.769 482.753 225.653 483.225 225.038C483.697 224.423 483.581 223.541 482.966 223.069C482.96 223.065 482.955 223.061 482.95 223.058L471.732 214.575L482.95 206.092C483.568 205.624 483.691 204.744 483.223 204.126Z"
		fill="white" />
	<path
		d="M516.029 213.465L503.33 203.863C502.717 203.388 501.835 203.499 501.36 204.112C500.885 204.725 500.996 205.607 501.609 206.082C501.618 206.089 501.627 206.096 501.637 206.103L512.854 214.585L501.637 223.068C501.013 223.528 500.879 224.407 501.34 225.031C501.8 225.656 502.679 225.789 503.303 225.329C503.312 225.322 503.321 225.315 503.33 225.308L516.029 215.706C516.648 215.238 516.77 214.357 516.302 213.739C516.224 213.635 516.132 213.543 516.029 213.465Z"
		fill="white" />
	<path
		d="M494.089 199.016C493.322 198.901 492.607 199.428 492.49 200.194L488.155 228.836C488.039 229.603 488.567 230.318 489.333 230.434C489.403 230.445 489.474 230.45 489.545 230.45C490.239 230.45 490.828 229.943 490.932 229.257L495.267 200.613C495.382 199.847 494.855 199.132 494.089 199.016Z"
		fill="white" />
	<g opacity="0.5">
		<path d="M397.141 336.921H409.163V342.369H397.141V336.921Z" fill="white" />
		<path d="M386.748 336.921H398.77V342.369H386.748V336.921Z" fill="white" />
		<path d="M381.551 336.921H388.379V342.369H381.551V336.921Z" fill="white" />
		<path d="M371.158 336.921H383.181V342.369H371.158V336.921Z" fill="white" />
		<path d="M360.765 336.921H372.787V342.369H360.765V336.921Z" fill="white" />
		<path d="M355.568 336.921H362.397V342.369H355.568V336.921Z" fill="white" />
		<path d="M350.372 336.921H357.201V342.369H350.372V336.921Z" fill="white" />
		<path d="M339.979 336.921H352.001V342.369H339.979V336.921Z" fill="white" />
		<path d="M334.782 336.921H341.61V342.369H334.782V336.921Z" fill="white" />
		<path d="M318.696 336.921H325.524V342.369H318.696V336.921Z" fill="#BF1E62" />
		<path d="M308.303 336.921H320.326V342.369H308.303V336.921Z" fill="#BF1E62" />
		<path d="M297.909 336.921H309.932V342.369H297.909V336.921Z" fill="#BF1E62" />
		<path d="M292.713 336.921H299.542V342.369H292.713V336.921Z" fill="#BF1E62" />
		<path d="M276.627 336.921H283.456V342.369H276.627V336.921Z" fill="#BF1E62" />
		<path d="M266.233 336.921H278.256V342.369H266.233V336.921Z" fill="#BF1E62" />
		<path d="M244.95 336.921H256.973V342.369H244.95V336.921Z" fill="white" />
		<path d="M234.558 336.921H246.58V342.369H234.558V336.921Z" fill="white" />
		<path d="M224.165 336.921H236.187V342.369H224.165V336.921Z" fill="white" />
		<path d="M218.968 336.921H225.796V342.369H218.968V336.921Z" fill="white" />
		<path d="M208.574 336.921H220.597V342.369H208.574V336.921Z" fill="white" />
		<path d="M198.182 336.921H210.204V342.369H198.182V336.921Z" fill="white" />
		<path d="M192.985 336.921H199.814V342.369H192.985V336.921Z" fill="white" />
		<path d="M171.702 336.921H183.725V342.369H171.702V336.921Z" fill="#1F5773" />
		<path d="M161.309 336.921H173.332V342.369H161.309V336.921Z" fill="#1F5773" />
		<path d="M156.113 336.921H162.941V342.369H156.113V336.921Z" fill="#1F5773" />
		<path d="M150.916 336.921H157.745V342.369H150.916V336.921Z" fill="#1F5773" />
		<path d="M140.523 336.921H152.546V342.369H140.523V336.921Z" fill="#1F5773" />
		<path d="M130.129 336.921H142.152V342.369H130.129V336.921Z" fill="#1F5773" />
		<path d="M103.153 336.921H109.982V342.369H103.153V336.921Z" fill="#C08930" />
		<path d="M92.7607 336.921H104.784V342.369H92.7607V336.921Z" fill="#C08930" />
		<path d="M87.564 336.921H94.3926V342.369H87.564V336.921Z" fill="#C08930" />
		<path d="M77.1709 336.921H89.1937V342.369H77.1709V336.921Z" fill="#C08930" />
		<path d="M71.9746 336.921H78.8033V342.369H71.9746V336.921Z" fill="#C08930" />
		<path d="M66.7778 336.921H73.6065V342.369H66.7778V336.921Z" fill="#C08930" />
		<path d="M56.3843 336.921H68.4071V342.369H56.3843V336.921Z" fill="#C08930" />
		<path d="M51.188 336.921H58.0167V342.369H51.188V336.921Z" fill="#C08930" />
		<path d="M40.7949 336.921H52.8177V342.369H40.7949V336.921Z" fill="#C08930" />
		<path d="M35.5991 336.921H42.4278V342.369H35.5991V336.921Z" fill="#C08930" />
		<path d="M402.337 309.679H414.36V315.127H402.337V309.679Z" fill="#C08930" />
		<path d="M397.141 309.679H403.969V315.127H397.141V309.679Z" fill="#C08930" />
		<path d="M391.944 309.679H398.773V315.127H391.944V309.679Z" fill="#C08930" />
		<path d="M381.551 309.679H393.574V315.127H381.551V309.679Z" fill="#C08930" />
		<path d="M360.268 309.679H372.291V315.127H360.268V309.679Z" fill="#C08930" />
		<path d="M349.875 309.679H361.897V315.127H349.875V309.679Z" fill="#C08930" />
		<path d="M339.481 309.679H351.504V315.127H339.481V309.679Z" fill="#C08930" />
		<path d="M334.285 309.679H341.114V315.127H334.285V309.679Z" fill="#C08930" />
		<path d="M323.892 309.679H335.915V315.127H323.892V309.679Z" fill="#C08930" />
		<path d="M302.609 309.679H314.632V315.127H302.609V309.679Z" fill="#1F5773" />
		<path d="M292.216 309.679H304.239V315.127H292.216V309.679Z" fill="#1F5773" />
		<path d="M287.02 309.679H293.849V315.127H287.02V309.679Z" fill="#1F5773" />
		<path d="M276.627 309.679H288.65V315.127H276.627V309.679Z" fill="#1F5773" />
		<path d="M266.233 309.679H278.256V315.127H266.233V309.679Z" fill="#1F5773" />
		<path d="M261.037 309.679H267.866V315.127H261.037V309.679Z" fill="#1F5773" />
		<path d="M255.84 309.679H262.669V315.127H255.84V309.679Z" fill="#1F5773" />
		<path d="M245.447 309.679H257.47V315.127H245.447V309.679Z" fill="#1F5773" />
		<path d="M240.251 309.679H247.08V315.127H240.251V309.679Z" fill="#1F5773" />
		<path d="M224.165 309.679H230.993V315.127H224.165V309.679Z" fill="#BF1E62" />
		<path d="M213.771 309.679H225.794V315.127H213.771V309.679Z" fill="#BF1E62" />
		<path d="M203.378 309.679H215.401V315.127H203.378V309.679Z" fill="#BF1E62" />
		<path d="M198.182 309.679H205.01V315.127H198.182V309.679Z" fill="#BF1E62" />
		<path d="M182.095 309.679H188.924V315.127H182.095V309.679Z" fill="#BF1E62" />
		<path d="M171.702 309.679H183.725V315.127H171.702V309.679Z" fill="#BF1E62" />
		<path d="M150.419 309.679H162.442V315.127H150.419V309.679Z" fill="white" />
		<path d="M140.026 309.679H152.049V315.127H140.026V309.679Z" fill="white" />
		<path d="M129.633 309.679H141.656V315.127H129.633V309.679Z" fill="white" />
		<path d="M124.437 309.679H131.265V315.127H124.437V309.679Z" fill="white" />
		<path d="M114.043 309.679H126.066V315.127H114.043V309.679Z" fill="white" />
		<path d="M103.65 309.679H115.673V315.127H103.65V309.679Z" fill="white" />
		<path d="M98.4536 309.679H105.282V315.127H98.4536V309.679Z" fill="white" />
		<path d="M77.1709 309.679H89.1937V315.127H77.1709V309.679Z" fill="white" />
		<path d="M66.7778 309.679H78.8006V315.127H66.7778V309.679Z" fill="white" />
		<path d="M61.5815 309.679H68.4102V315.127H61.5815V309.679Z" fill="white" />
		<path d="M56.3843 309.679H63.2129V315.127H56.3843V309.679Z" fill="white" />
		<path d="M45.9917 309.679H58.0145V315.127H45.9917V309.679Z" fill="white" />
		<path d="M35.5991 309.679H47.6219V315.127H35.5991V309.679Z" fill="white" />
		<path d="M392.44 282.437H404.463V287.885H392.44V282.437Z" fill="#1F5773" />
		<path d="M382.047 282.437H394.07V287.885H382.047V282.437Z" fill="#1F5773" />
		<path d="M376.851 282.437H383.679V287.885H376.851V282.437Z" fill="#1F5773" />
		<path d="M366.458 282.437H378.48V287.885H366.458V282.437Z" fill="#1F5773" />
		<path d="M356.065 282.437H368.088V287.885H356.065V282.437Z" fill="#1F5773" />
		<path d="M350.869 282.437H357.697V287.885H350.869V282.437Z" fill="#1F5773" />
		<path d="M329.585 282.437H341.608V287.885H329.585V282.437Z" fill="#1F5773" />
		<path d="M319.192 282.437H331.215V287.885H319.192V282.437Z" fill="#1F5773" />
		<path d="M303.106 282.437H309.935V287.885H303.106V282.437Z" fill="#10AFFF" />
		<path d="M292.713 282.437H304.736V287.885H292.713V282.437Z" fill="#10AFFF" />
		<path d="M271.43 282.437H283.453V287.885H271.43V282.437Z" fill="#1F5773" />
		<path d="M261.037 282.437H273.06V287.885H261.037V282.437Z" fill="#1F5773" />
		<path d="M250.644 282.437H262.666V287.885H250.644V282.437Z" fill="#1F5773" />
		<path d="M245.447 282.437H252.276V287.885H245.447V282.437Z" fill="#1F5773" />
		<path d="M235.054 282.437H247.077V287.885H235.054V282.437Z" fill="#1F5773" />
		<path d="M213.771 282.437H225.794V287.885H213.771V282.437Z" fill="#1F5773" />
		<path d="M203.378 282.437H215.401V287.885H203.378V282.437Z" fill="#1F5773" />
		<path d="M192.985 282.437H205.008V287.885H192.985V282.437Z" fill="#1F5773" />
		<path d="M171.702 282.437H183.725V287.885H171.702V282.437Z" fill="#10AFFF" />
		<path d="M161.309 282.437H173.332V287.885H161.309V282.437Z" fill="#10AFFF" />
		<path d="M145.223 282.437H152.051V287.885H145.223V282.437Z" fill="#BF1E62" />
		<path d="M134.83 282.437H146.852V287.885H134.83V282.437Z" fill="#BF1E62" />
		<path d="M129.633 282.437H136.462V287.885H129.633V282.437Z" fill="#BF1E62" />
		<path d="M119.241 282.437H131.264V287.885H119.241V282.437Z" fill="#BF1E62" />
		<path d="M114.043 282.437H120.872V287.885H114.043V282.437Z" fill="#BF1E62" />
		<path d="M108.847 282.437H115.675V287.885H108.847V282.437Z" fill="#BF1E62" />
		<path d="M98.4536 282.437H110.476V287.885H98.4536V282.437Z" fill="#BF1E62" />
		<path d="M93.2573 282.437H100.086V287.885H93.2573V282.437Z" fill="#BF1E62" />
		<path d="M82.8643 282.437H94.8871V287.885H82.8643V282.437Z" fill="#BF1E62" />
		<path d="M77.6675 282.437H84.4961V287.885H77.6675V282.437Z" fill="#BF1E62" />
		<path d="M56.3843 282.437H68.4071V287.885H56.3843V282.437Z" fill="#1F5773" />
		<path d="M51.188 282.437H58.0167V287.885H51.188V282.437Z" fill="#1F5773" />
		<path d="M45.9917 282.437H52.8204V287.885H45.9917V282.437Z" fill="#1F5773" />
		<path d="M35.5991 282.437H47.6219V287.885H35.5991V282.437Z" fill="#1F5773" />
		<path d="M423.124 255.195H435.147V260.643H423.124V255.195Z" fill="white" />
		<path d="M412.731 255.195H424.754V260.643H412.731V255.195Z" fill="white" />
		<path d="M402.337 255.195H414.36V260.643H402.337V255.195Z" fill="white" />
		<path d="M397.141 255.195H403.969V260.643H397.141V255.195Z" fill="white" />
		<path d="M386.748 255.195H398.77V260.643H386.748V255.195Z" fill="white" />
		<path d="M365.465 255.195H377.488V260.643H365.465V255.195Z" fill="white" />
		<path d="M355.072 255.195H367.095V260.643H355.072V255.195Z" fill="white" />
		<path d="M349.875 255.195H356.703V260.643H349.875V255.195Z" fill="white" />
		<path d="M339.481 255.195H351.504V260.643H339.481V255.195Z" fill="white" />
		<path d="M329.089 255.195H341.112V260.643H329.089V255.195Z" fill="white" />
		<path d="M323.892 255.195H330.721V260.643H323.892V255.195Z" fill="white" />
		<path d="M318.696 255.195H325.524V260.643H318.696V255.195Z" fill="white" />
		<path d="M308.303 255.195H320.326V260.643H308.303V255.195Z" fill="white" />
		<path d="M303.106 255.195H309.935V260.643H303.106V255.195Z" fill="white" />
		<path d="M287.02 255.195H293.849V260.643H287.02V255.195Z" fill="#C08930" />
		<path d="M276.627 255.195H288.65V260.643H276.627V255.195Z" fill="#C08930" />
		<path d="M266.233 255.195H278.256V260.643H266.233V255.195Z" fill="#C08930" />
		<path d="M261.037 255.195H267.866V260.643H261.037V255.195Z" fill="#C08930" />
		<path d="M244.95 255.195H251.779V260.643H244.95V255.195Z" fill="#C08930" />
		<path d="M234.558 255.195H246.58V260.643H234.558V255.195Z" fill="#C08930" />
		<path d="M213.275 255.195H225.298V260.643H213.275V255.195Z" fill="#1F5773" />
		<path d="M202.882 255.195H214.905V260.643H202.882V255.195Z" fill="#1F5773" />
		<path d="M192.488 255.195H204.511V260.643H192.488V255.195Z" fill="#1F5773" />
		<path d="M187.292 255.195H194.121V260.643H187.292V255.195Z" fill="#1F5773" />
		<path d="M176.898 255.195H188.921V260.643H176.898V255.195Z" fill="#1F5773" />
		<path d="M166.506 255.195H178.529V260.643H166.506V255.195Z" fill="#1F5773" />
		<path d="M161.309 255.195H168.138V260.643H161.309V255.195Z" fill="#1F5773" />
		<path d="M140.026 255.195H152.049V260.643H140.026V255.195Z" fill="#1F5773" />
		<path d="M129.633 255.195H141.656V260.643H129.633V255.195Z" fill="#1F5773" />
		<path d="M124.437 255.195H131.265V260.643H124.437V255.195Z" fill="#1F5773" />
		<path d="M119.241 255.195H126.069V260.643H119.241V255.195Z" fill="#1F5773" />
		<path d="M108.847 255.195H120.869V260.643H108.847V255.195Z" fill="#1F5773" />
		<path d="M98.4536 255.195H110.476V260.643H98.4536V255.195Z" fill="#1F5773" />
		<path d="M77.1709 255.195H89.1937V260.643H77.1709V255.195Z" fill="#1F5773" />
		<path d="M66.7778 255.195H78.8006V260.643H66.7778V255.195Z" fill="#1F5773" />
		<path d="M61.5815 255.195H68.4102V260.643H61.5815V255.195Z" fill="#1F5773" />
		<path d="M51.188 255.195H63.2108V260.643H51.188V255.195Z" fill="#1F5773" />
		<path d="M40.7949 255.195H52.8177V260.643H40.7949V255.195Z" fill="#1F5773" />
		<path d="M35.5991 255.195H42.4278V260.643H35.5991V255.195Z" fill="#1F5773" />
		<path d="M418.92 227.953H430.943V233.401H418.92V227.953Z" fill="#BF1E62" />
		<path d="M408.527 227.953H420.55V233.401H408.527V227.953Z" fill="#BF1E62" />
		<path d="M392.44 227.953H399.269V233.401H392.44V227.953Z" fill="#BF1E62" />
		<path d="M382.047 227.953H394.07V233.401H382.047V227.953Z" fill="#BF1E62" />
		<path d="M360.765 227.953H372.787V233.401H360.765V227.953Z" fill="#1F5773" />
		<path d="M350.372 227.953H362.395V233.401H350.372V227.953Z" fill="#1F5773" />
		<path d="M339.979 227.953H352.001V233.401H339.979V227.953Z" fill="#1F5773" />
		<path d="M334.782 227.953H341.61V233.401H334.782V227.953Z" fill="#1F5773" />
		<path d="M324.389 227.953H336.411V233.401H324.389V227.953Z" fill="#1F5773" />
		<path d="M303.106 227.953H315.129V233.401H303.106V227.953Z" fill="#1F5773" />
		<path d="M292.713 227.953H304.736V233.401H292.713V227.953Z" fill="#1F5773" />
		<path d="M282.32 227.953H294.343V233.401H282.32V227.953Z" fill="#1F5773" />
		<path d="M261.037 227.953H273.06V233.401H261.037V227.953Z" fill="#BF1E62" />
		<path d="M250.644 227.953H262.666V233.401H250.644V227.953Z" fill="#BF1E62" />
		<path d="M240.251 227.953H252.274V233.401H240.251V227.953Z" fill="#BF1E62" />
		<path d="M224.165 227.953H230.993V233.401H224.165V227.953Z" fill="white" />
		<path d="M213.771 227.953H225.794V233.401H213.771V227.953Z" fill="white" />
		<path d="M203.378 227.953H215.401V233.401H203.378V227.953Z" fill="white" />
		<path d="M198.182 227.953H205.01V233.401H198.182V227.953Z" fill="white" />
		<path d="M187.789 227.953H199.811V233.401H187.789V227.953Z" fill="white" />
		<path d="M182.592 227.953H189.42V233.401H182.592V227.953Z" fill="white" />
		<path d="M172.198 227.953H184.221V233.401H172.198V227.953Z" fill="white" />
		<path d="M150.916 227.953H162.939V233.401H150.916V227.953Z" fill="white" />
		<path d="M140.523 227.953H152.546V233.401H140.523V227.953Z" fill="white" />
		<path d="M130.129 227.953H142.152V233.401H130.129V227.953Z" fill="white" />
		<path d="M108.847 227.953H120.869V233.401H108.847V227.953Z" fill="white" />
		<path d="M103.65 227.953H110.479V233.401H103.65V227.953Z" fill="white" />
		<path d="M98.4536 227.953H105.282V233.401H98.4536V227.953Z" fill="white" />
		<path d="M88.0605 227.953H100.083V233.401H88.0605V227.953Z" fill="white" />
		<path d="M77.6675 227.953H89.6903V233.401H77.6675V227.953Z" fill="white" />
		<path d="M56.3843 227.953H68.4071V233.401H56.3843V227.953Z" fill="white" />
		<path d="M45.9917 227.953H58.0145V233.401H45.9917V227.953Z" fill="white" />
		<path d="M35.5991 227.953H47.6219V233.401H35.5991V227.953Z" fill="white" />
		<path d="M423.124 200.711H429.953V206.159H423.124V200.711Z" fill="white" />
		<path d="M412.731 200.711H424.754V206.159H412.731V200.711Z" fill="white" />
		<path d="M402.337 200.711H414.36V206.159H402.337V200.711Z" fill="white" />
		<path d="M391.944 200.711H403.967V206.159H391.944V200.711Z" fill="white" />
		<path d="M386.748 200.711H393.576V206.159H386.748V200.711Z" fill="white" />
		<path d="M376.354 200.711H388.377V206.159H376.354V200.711Z" fill="white" />
		<path d="M365.962 200.711H377.985V206.159H365.962V200.711Z" fill="white" />
		<path d="M355.568 200.711H367.591V206.159H355.568V200.711Z" fill="white" />
		<path d="M345.175 200.711H357.198V206.159H345.175V200.711Z" fill="white" />
		<path d="M323.892 200.711H335.915V206.159H323.892V200.711Z" fill="#10AFFF" />
		<path d="M302.609 200.711H314.632V206.159H302.609V200.711Z" fill="#1F5773" />
		<path d="M292.216 200.711H304.239V206.159H292.216V200.711Z" fill="#1F5773" />
		<path d="M287.02 200.711H293.849V206.159H287.02V200.711Z" fill="#1F5773" />
		<path d="M281.823 200.711H288.652V206.159H281.823V200.711Z" fill="#1F5773" />
		<path d="M260.54 200.711H272.563V206.159H260.54V200.711Z" fill="#1F5773" />
		<path d="M250.147 200.711H262.17V206.159H250.147V200.711Z" fill="#1F5773" />
		<path d="M244.95 200.711H251.779V206.159H244.95V200.711Z" fill="#1F5773" />
		<path d="M234.558 200.711H246.58V206.159H234.558V200.711Z" fill="#1F5773" />
		<path d="M229.361 200.711H236.189V206.159H229.361V200.711Z" fill="#1F5773" />
		<path d="M208.078 200.711H220.101V206.159H208.078V200.711Z" fill="#10AFFF" />
		<path d="M202.882 200.711H209.71V206.159H202.882V200.711Z" fill="#10AFFF" />
		<path d="M181.599 200.711H193.622V206.159H181.599V200.711Z" fill="#1F5773" />
		<path d="M171.206 200.711H183.228V206.159H171.206V200.711Z" fill="#1F5773" />
		<path d="M160.812 200.711H172.835V206.159H160.812V200.711Z" fill="#1F5773" />
		<path d="M139.53 200.711H151.553V206.159H139.53V200.711Z" fill="#C08930" />
		<path d="M134.333 200.711H141.162V206.159H134.333V200.711Z" fill="#C08930" />
		<path d="M123.94 200.711H135.963V206.159H123.94V200.711Z" fill="#C08930" />
		<path d="M113.547 200.711H125.57V206.159H113.547V200.711Z" fill="#C08930" />
		<path d="M108.35 200.711H115.179V206.159H108.35V200.711Z" fill="#C08930" />
		<path d="M103.153 200.711H109.982V206.159H103.153V200.711Z" fill="#C08930" />
		<path d="M92.7607 200.711H104.784V206.159H92.7607V200.711Z" fill="#C08930" />
		<path d="M87.564 200.711H94.3926V206.159H87.564V200.711Z" fill="#C08930" />
		<path d="M77.1709 200.711H89.1937V206.159H77.1709V200.711Z" fill="#C08930" />
		<path d="M71.9746 200.711H78.8033V206.159H71.9746V200.711Z" fill="#C08930" />
		<path d="M66.7778 200.711H73.6065V206.159H66.7778V200.711Z" fill="#C08930" />
		<path d="M56.3843 200.711H68.4071V206.159H56.3843V200.711Z" fill="#C08930" />
		<path d="M51.188 200.711H58.0167V206.159H51.188V200.711Z" fill="#C08930" />
		<path d="M40.7949 200.711H52.8177V206.159H40.7949V200.711Z" fill="#C08930" />
		<path d="M35.5991 200.711H42.4278V206.159H35.5991V200.711Z" fill="#C08930" />
		<path d="M402.337 173.469H414.36V178.917H402.337V173.469Z" fill="#1F5773" />
		<path d="M397.141 173.469H403.969V178.917H397.141V173.469Z" fill="#1F5773" />
		<path d="M391.944 173.469H398.773V178.917H391.944V173.469Z" fill="#1F5773" />
		<path d="M381.551 173.469H393.574V178.917H381.551V173.469Z" fill="#1F5773" />
		<path d="M360.268 173.469H372.291V178.917H360.268V173.469Z" fill="#1F5773" />
		<path d="M349.875 173.469H361.897V178.917H349.875V173.469Z" fill="#1F5773" />
		<path d="M339.481 173.469H351.504V178.917H339.481V173.469Z" fill="#1F5773" />
		<path d="M334.285 173.469H341.114V178.917H334.285V173.469Z" fill="#1F5773" />
		<path d="M323.892 173.469H335.915V178.917H323.892V173.469Z" fill="#1F5773" />
		<path d="M302.609 173.469H314.632V178.917H302.609V173.469Z" fill="#C08930" />
		<path d="M292.216 173.469H304.239V178.917H292.216V173.469Z" fill="#C08930" />
		<path d="M287.02 173.469H293.849V178.917H287.02V173.469Z" fill="#C08930" />
		<path d="M276.627 173.469H288.65V178.917H276.627V173.469Z" fill="#C08930" />
		<path d="M266.233 173.469H278.256V178.917H266.233V173.469Z" fill="#C08930" />
		<path d="M261.037 173.469H267.866V178.917H261.037V173.469Z" fill="#C08930" />
		<path d="M255.84 173.469H262.669V178.917H255.84V173.469Z" fill="#C08930" />
		<path d="M245.447 173.469H257.47V178.917H245.447V173.469Z" fill="#C08930" />
		<path d="M240.251 173.469H247.08V178.917H240.251V173.469Z" fill="#C08930" />
		<path d="M224.165 173.469H230.993V178.917H224.165V173.469Z" fill="#1F5773" />
		<path d="M213.771 173.469H225.794V178.917H213.771V173.469Z" fill="#1F5773" />
		<path d="M203.378 173.469H215.401V178.917H203.378V173.469Z" fill="#1F5773" />
		<path d="M198.182 173.469H205.01V178.917H198.182V173.469Z" fill="#1F5773" />
		<path d="M182.095 173.469H188.924V178.917H182.095V173.469Z" fill="#1F5773" />
		<path d="M171.702 173.469H183.725V178.917H171.702V173.469Z" fill="#1F5773" />
		<path d="M150.419 173.469H162.442V178.917H150.419V173.469Z" fill="#BF1E62" />
		<path d="M140.026 173.469H152.049V178.917H140.026V173.469Z" fill="#BF1E62" />
		<path d="M129.633 173.469H141.656V178.917H129.633V173.469Z" fill="#BF1E62" />
		<path d="M124.437 173.469H131.265V178.917H124.437V173.469Z" fill="#BF1E62" />
		<path d="M114.043 173.469H126.066V178.917H114.043V173.469Z" fill="#BF1E62" />
		<path d="M103.65 173.469H115.673V178.917H103.65V173.469Z" fill="#BF1E62" />
		<path d="M98.4536 173.469H105.282V178.917H98.4536V173.469Z" fill="#BF1E62" />
		<path d="M77.1709 173.469H89.1937V178.917H77.1709V173.469Z" fill="#1F5773" />
		<path d="M66.7778 173.469H78.8006V178.917H66.7778V173.469Z" fill="#1F5773" />
		<path d="M61.5815 173.469H68.4102V178.917H61.5815V173.469Z" fill="#1F5773" />
		<path d="M56.3843 173.469H63.2129V178.917H56.3843V173.469Z" fill="#1F5773" />
		<path d="M45.9917 173.469H58.0145V178.917H45.9917V173.469Z" fill="#1F5773" />
		<path d="M35.5991 173.469H47.6219V178.917H35.5991V173.469Z" fill="#1F5773" />
		<path d="M387.244 146.227H399.267V151.675H387.244V146.227Z" fill="#1F5773" />
		<path d="M376.851 146.227H388.873V151.675H376.851V146.227Z" fill="#1F5773" />
		<path d="M371.655 146.227H378.483V151.675H371.655V146.227Z" fill="#1F5773" />
		<path d="M361.261 146.227H373.284V151.675H361.261V146.227Z" fill="#1F5773" />
		<path d="M350.869 146.227H362.891V151.675H350.869V146.227Z" fill="#1F5773" />
		<path d="M345.672 146.227H352.501V151.675H345.672V146.227Z" fill="#1F5773" />
		<path d="M324.389 146.227H336.411V151.675H324.389V146.227Z" fill="#1F5773" />
		<path d="M313.996 146.227H326.019V151.675H313.996V146.227Z" fill="#1F5773" />
		<path d="M297.909 146.227H304.738V151.675H297.909V146.227Z" fill="#BF1E62" />
		<path d="M287.516 146.227H299.538V151.675H287.516V146.227Z" fill="#BF1E62" />
		<path d="M266.233 146.227H278.256V151.675H266.233V146.227Z" fill="#1F5773" />
		<path d="M255.84 146.227H267.863V151.675H255.84V146.227Z" fill="#1F5773" />
		<path d="M245.447 146.227H257.47V151.675H245.447V146.227Z" fill="#1F5773" />
		<path d="M240.251 146.227H247.08V151.675H240.251V146.227Z" fill="#1F5773" />
		<path d="M229.857 146.227H241.88V151.675H229.857V146.227Z" fill="#1F5773" />
		<path d="M208.574 146.227H220.597V151.675H208.574V146.227Z" fill="white" />
		<path d="M198.182 146.227H210.204V151.675H198.182V146.227Z" fill="white" />
		<path d="M187.789 146.227H199.811V151.675H187.789V146.227Z" fill="white" />
		<path d="M166.506 146.227H178.529V151.675H166.506V146.227Z" fill="white" />
		<path d="M156.113 146.227H168.136V151.675H156.113V146.227Z" fill="white" />
		<path d="M145.719 146.227H157.742V151.675H145.719V146.227Z" fill="white" />
		<path d="M129.633 146.227H136.462V151.675H129.633V146.227Z" fill="white" />
		<path d="M119.241 146.227H131.264V151.675H119.241V146.227Z" fill="white" />
		<path d="M108.847 146.227H120.869V151.675H108.847V146.227Z" fill="white" />
		<path d="M103.65 146.227H110.479V151.675H103.65V146.227Z" fill="white" />
		<path d="M93.2573 146.227H105.28V151.675H93.2573V146.227Z" fill="white" />
		<path d="M88.0605 146.227H94.8892V151.675H88.0605V146.227Z" fill="white" />
		<path d="M77.6675 146.227H89.6903V151.675H77.6675V146.227Z" fill="white" />
		<path d="M56.3843 146.227H68.4071V151.675H56.3843V146.227Z" fill="white" />
		<path d="M45.9917 146.227H58.0145V151.675H45.9917V146.227Z" fill="white" />
		<path d="M35.5991 146.227H47.6219V151.675H35.5991V146.227Z" fill="white" />
		<path d="M439.707 118.985H451.729V124.433H439.707V118.985Z" fill="#1F5773" />
		<path d="M434.51 118.985H441.338V124.433H434.51V118.985Z" fill="#1F5773" />
		<path d="M429.313 118.985H436.142V124.433H429.313V118.985Z" fill="#1F5773" />
		<path d="M418.92 118.985H430.943V124.433H418.92V118.985Z" fill="#1F5773" />
		<path d="M408.527 118.985H420.55V124.433H408.527V118.985Z" fill="#1F5773" />
		<path d="M387.244 118.985H399.267V124.433H387.244V118.985Z" fill="#1F5773" />
		<path d="M376.851 118.985H388.873V124.433H376.851V118.985Z" fill="#1F5773" />
		<path d="M366.458 118.985H378.48V124.433H366.458V118.985Z" fill="#1F5773" />
		<path d="M350.372 118.985H357.201V124.433H350.372V118.985Z" fill="white" />
		<path d="M339.979 118.985H352.001V124.433H339.979V118.985Z" fill="white" />
		<path d="M329.585 118.985H341.608V124.433H329.585V118.985Z" fill="white" />
		<path d="M319.192 118.985H331.215V124.433H319.192V118.985Z" fill="white" />
		<path d="M313.996 118.985H320.825V124.433H313.996V118.985Z" fill="white" />
		<path d="M303.603 118.985H315.626V124.433H303.603V118.985Z" fill="white" />
		<path d="M293.209 118.985H305.232V124.433H293.209V118.985Z" fill="white" />
		<path d="M282.816 118.985H294.839V124.433H282.816V118.985Z" fill="white" />
		<path d="M272.423 118.985H284.446V124.433H272.423V118.985Z" fill="white" />
		<path d="M251.14 118.985H263.163V124.433H251.14V118.985Z" fill="#10AFFF" />
		<path d="M229.857 118.985H241.88V124.433H229.857V118.985Z" fill="#C08930" />
		<path d="M219.464 118.985H231.487V124.433H219.464V118.985Z" fill="#C08930" />
		<path d="M214.268 118.985H221.097V124.433H214.268V118.985Z" fill="#C08930" />
		<path d="M209.071 118.985H215.9V124.433H209.071V118.985Z" fill="#C08930" />
		<path d="M187.789 118.985H199.811V124.433H187.789V118.985Z" fill="#1F5773" />
		<path d="M177.396 118.985H189.418V124.433H177.396V118.985Z" fill="#1F5773" />
		<path d="M172.198 118.985H179.027V124.433H172.198V118.985Z" fill="#1F5773" />
		<path d="M161.806 118.985H173.828V124.433H161.806V118.985Z" fill="#1F5773" />
		<path d="M156.609 118.985H163.438V124.433H156.609V118.985Z" fill="#1F5773" />
		<path d="M135.326 118.985H147.349V124.433H135.326V118.985Z" fill="#10AFFF" />
		<path d="M130.129 118.985H136.958V124.433H130.129V118.985Z" fill="#10AFFF" />
		<path d="M108.847 118.985H120.869V124.433H108.847V118.985Z" fill="#BF1E62" />
		<path d="M98.4536 118.985H110.476V124.433H98.4536V118.985Z" fill="#BF1E62" />
		<path d="M88.0605 118.985H100.083V124.433H88.0605V118.985Z" fill="#BF1E62" />
		<path d="M66.7778 118.985H78.8006V124.433H66.7778V118.985Z" fill="#1F5773" />
		<path d="M61.5815 118.985H68.4102V124.433H61.5815V118.985Z" fill="#1F5773" />
		<path d="M51.188 118.985H63.2108V124.433H51.188V118.985Z" fill="#1F5773" />
		<path d="M40.7949 118.985H52.8177V124.433H40.7949V118.985Z" fill="#1F5773" />
		<path d="M35.5991 118.985H42.4278V124.433H35.5991V118.985Z" fill="#1F5773" />
	</g>
	<g filter="url(#filter1_d_236_1211)">
		<rect x="44" y="24" width="71.2128" height="71.2128" rx="14" fill="#00AAFF" />
	</g>
	<g clip-path="url(#clip0_236_1211)">
		<path
			d="M104.593 35.1959L104.593 35.1958C104.164 34.6914 103.631 34.2866 103.029 34.01C102.428 33.7333 101.773 33.5914 101.111 33.5942L101.11 33.5942L58.2281 33.5942H58.2227L58.2227 33.5942C57.562 33.5847 56.9072 33.7187 56.3035 33.9871C55.6998 34.2555 55.1616 34.6518 54.726 35.1486C54.2905 35.6454 53.9681 36.2308 53.781 36.8645C53.594 37.4979 53.5468 38.1644 53.6425 38.8178C53.6426 38.8181 53.6426 38.8183 53.6426 38.8186L58.5453 71.346L58.5455 71.3474C58.684 72.2899 59.0307 73.1896 59.5605 73.9813C60.0903 74.7729 60.7899 75.4366 61.6084 75.9239L61.6091 75.9243L76.2975 84.711C76.2978 84.7112 76.2981 84.7113 76.2984 84.7115C77.3017 85.3055 78.4463 85.6189 79.6123 85.6189C80.7784 85.6189 81.9229 85.3055 82.9263 84.7115C82.9266 84.7113 82.9269 84.7112 82.9272 84.711L97.6156 75.9243L97.6158 75.9242C98.4348 75.4347 99.1357 74.7704 99.6686 73.9788C100.201 73.1873 100.553 72.2879 100.698 71.3448L100.699 71.3427L101.924 63.6678L101.926 63.656L101.927 63.6561C101.965 63.4545 101.962 63.2471 101.918 63.0466C101.874 62.8461 101.789 62.6568 101.669 62.4902C101.549 62.3236 101.397 62.1833 101.22 62.0779C101.044 61.9724 100.848 61.904 100.645 61.8769L100.638 61.876L100.638 61.8759C100.442 61.8459 100.242 61.8549 100.049 61.9024C99.8565 61.9499 99.6752 62.0349 99.5156 62.1525C99.3559 62.2702 99.221 62.4182 99.1186 62.588C99.0164 62.7576 98.9486 62.9456 98.9191 63.1414C98.919 63.1417 98.919 63.1421 98.9189 63.1424L97.7688 70.9858L97.7681 70.9905L97.7681 70.9905C97.6887 71.4875 97.5016 71.961 97.22 72.378C96.9383 72.7951 96.5688 73.1454 96.1375 73.4046L96.1369 73.405L81.4477 82.1921L104.593 35.1959ZM104.593 35.1959L104.597 35.2003M104.593 35.1959L104.597 35.2003M104.597 35.2003C105.028 35.6912 105.348 36.2685 105.538 36.8934C105.726 37.5171 105.78 38.1739 105.695 38.8199L103.338 54.2038L103.338 54.2049C103.309 54.401 103.241 54.5894 103.139 54.7593L103.462 54.9544L103.139 54.7593C103.036 54.9291 102.901 55.0771 102.742 55.1948C102.582 55.3124 102.401 55.3974 102.208 55.4449C102.015 55.4923 101.815 55.5013 101.619 55.4714L101.618 55.4711C101.42 55.4418 101.23 55.3734 101.059 55.2701C100.888 55.1667 100.74 55.0304 100.622 54.8691C100.504 54.7078 100.419 54.5246 100.373 54.3303C100.327 54.136 100.319 53.9344 100.351 53.7372L100.351 53.7372L100.352 53.7325L102.652 38.4059C102.69 38.1849 102.679 37.9581 102.618 37.742L102.254 37.8439L102.618 37.742C102.557 37.5246 102.448 37.3236 102.3 37.1538C102.152 36.984 101.969 36.8476 101.765 36.7538C101.56 36.6598 101.337 36.6107 101.111 36.6097H101.11H58.2301C58.0012 36.6075 57.7745 36.6549 57.5657 36.7486C57.3567 36.8425 57.1705 36.9805 57.02 37.1532C56.8728 37.3197 56.7648 37.517 56.7037 37.7307C56.6429 37.9437 56.6303 38.1676 56.6668 38.386L61.5692 70.9871L61.569 70.9871L61.5711 70.9983C61.659 71.4839 61.8501 71.945 62.1314 72.3505C62.4125 72.7557 62.7772 73.096 63.201 73.3485C63.2012 73.3486 63.2014 73.3487 63.2016 73.3489L77.8899 82.192L77.8901 82.1921M104.597 35.2003L77.8901 82.1921M77.8901 82.1921C78.4272 82.5151 79.0422 82.6858 79.6689 82.6858C80.2954 82.6858 80.91 82.5153 81.447 82.1926L77.8901 82.1921Z"
			fill="white" stroke="#00AAFF" stroke-width="0.756" />
		<path
			d="M69.5397 67.8166L69.5878 67.9696L69.7312 68.0413L73.8421 70.0968L74.3892 70.3703V69.7587V44.5276V44.1496H74.0112H64.5825C64.1826 44.1496 63.7991 43.9907 63.5164 43.708C63.2336 43.4252 63.0748 43.0417 63.0748 42.6418C63.0748 42.242 63.2336 41.8585 63.5164 41.5757C63.7991 41.293 64.1826 41.1341 64.5825 41.1341H75.8969C76.2968 41.1341 76.6803 41.293 76.9631 41.5757C77.2458 41.8585 77.4047 42.242 77.4047 42.6418L77.4047 72.8136L77.4047 72.8144C77.4052 73.0706 77.3404 73.3227 77.2164 73.547C77.0925 73.7711 76.9135 73.96 76.6963 74.0958C76.4596 74.2422 76.187 74.3203 75.9088 74.3213C75.7021 74.3076 75.5004 74.2514 75.3163 74.1561L75.3163 74.1561L75.3117 74.1538L67.7687 70.3823L67.7681 70.382C67.4143 70.2059 67.1438 69.8978 67.0148 69.5242C67.0146 69.5237 67.0145 69.5231 67.0143 69.5226L65.1297 63.8688L65.1293 63.8677C65.0659 63.6795 65.0402 63.4806 65.0537 63.2825C65.0671 63.0843 65.1195 62.8908 65.2077 62.7129C65.296 62.5349 65.4184 62.3761 65.568 62.2455C65.7177 62.1149 65.8916 62.0151 66.0798 61.9517C66.268 61.8883 66.4668 61.8626 66.665 61.876C66.8631 61.8895 67.0567 61.9419 67.2346 62.0301C67.4125 62.1184 67.5713 62.2408 67.7019 62.3904C67.8317 62.5391 67.9311 62.7118 67.9946 62.8987L69.5397 67.8166Z"
			fill="white" stroke="#00AAFF" stroke-width="0.756" />
		<path
			d="M96.0965 43.3214L96.097 43.3203C96.2127 43.0908 96.2678 42.8355 96.257 42.5787C96.2462 42.3219 96.17 42.0722 96.0356 41.8531C95.9011 41.6341 95.7129 41.453 95.4888 41.3272C95.2649 41.2014 95.0125 41.135 94.7557 41.1341H83.4419C83.042 41.1341 82.6585 41.293 82.3758 41.5757C82.093 41.8585 81.9342 42.242 81.9342 42.6418V55.842C81.9342 56.2419 82.093 56.6254 82.3758 56.9081C82.6585 57.1909 83.042 57.3497 83.4419 57.3497H90.702H91.1384L91.0761 57.7817L89.6241 67.8515L89.5959 68.0469L89.4194 68.1354L82.7648 71.4722C82.7644 71.4723 82.7641 71.4725 82.7638 71.4727C82.4092 71.6535 82.1404 71.9672 82.0162 72.3455C81.892 72.7239 81.9225 73.1361 82.1011 73.4921L96.0965 43.3214ZM96.0965 43.3214L94.212 47.0904C94.2118 47.0908 94.2116 47.0912 94.2114 47.0916C94.0305 47.4461 93.7168 47.7148 93.3387 47.839C92.9604 47.9632 92.5484 47.9327 92.1925 47.7543C91.8379 47.5734 91.5691 47.2597 91.4449 46.8814C91.3206 46.5029 91.3512 46.0905 91.5301 45.7344L91.5316 45.7313L92.0407 44.6941L92.3081 44.1496H91.7014H85.3276H84.9496V44.5276V53.9562V54.3342H85.3276L92.8706 54.3343L92.8739 54.3342C93.0905 54.3323 93.3049 54.3772 93.5027 54.4656C93.6998 54.5538 93.8756 54.6832 94.0183 54.8452C94.1586 55.0092 94.2621 55.2014 94.3217 55.4089C94.3816 55.617 94.3959 55.8356 94.3636 56.0497L94.3632 56.0525L92.4776 69.252C92.4776 69.252 92.4776 69.2521 92.4776 69.2521C92.4428 69.4922 92.3507 69.7203 92.209 69.9171C92.0674 70.1138 91.8804 70.2735 91.6639 70.3825C91.6638 70.3826 91.6636 70.3827 91.6634 70.3828L84.1214 74.1538L84.1214 74.1537L84.1121 74.1586C83.9075 74.2682 83.6785 74.3241 83.4464 74.3213L83.443 74.3213M96.0965 43.3214L83.443 74.3213M83.443 74.3213C83.1646 74.3205 82.8918 74.2426 82.655 74.0962C82.4183 73.9499 82.2267 73.741 82.1014 73.4925L83.443 74.3213Z"
			fill="white" stroke="#00AAFF" stroke-width="0.756" />
	</g>
	<defs>
		<filter id="filter0_d_236_1211" x="412" y="155" width="159.213" height="159.213" filterUnits="userSpaceOnUse"
			color-interpolation-filters="sRGB">
			<feFlood flood-opacity="0" result="BackgroundImageFix" />
			<feColorMatrix in="SourceAlpha" type="matrix" values="0 0 0 0 0 0 0 0 0 0 0 0 0 0 0 0 0 0 127 0"
				result="hardAlpha" />
			<feOffset dy="20" />
			<feGaussianBlur stdDeviation="22" />
			<feComposite in2="hardAlpha" operator="out" />
			<feColorMatrix type="matrix" values="0 0 0 0 0.0302781 0 0 0 0 0.253135 0 0 0 0 0.364563 0 0 0 0.45 0" />
			<feBlend mode="normal" in2="BackgroundImageFix" result="effect1_dropShadow_236_1211" />
			<feBlend mode="normal" in="SourceGraphic" in2="effect1_dropShadow_236_1211" result="shape" />
		</filter>
		<filter id="filter1_d_236_1211" x="0" y="0" width="159.213" height="159.213" filterUnits="userSpaceOnUse"
			color-interpolation-filters="sRGB">
			<feFlood flood-opacity="0" result="BackgroundImageFix" />
			<feColorMatrix in="SourceAlpha" type="matrix" values="0 0 0 0 0 0 0 0 0 0 0 0 0 0 0 0 0 0 127 0"
				result="hardAlpha" />
			<feOffset dy="20" />
			<feGaussianBlur stdDeviation="22" />
			<feComposite in2="hardAlpha" operator="out" />
			<feColorMatrix type="matrix" values="0 0 0 0 0.0302781 0 0 0 0 0.253135 0 0 0 0 0.364563 0 0 0 0.45 0" />
			<feBlend mode="normal" in2="BackgroundImageFix" result="effect1_dropShadow_236_1211" />
			<feBlend mode="normal" in="SourceGraphic" in2="effect1_dropShadow_236_1211" result="shape" />
		</filter>
		<clipPath id="clip0_236_1211">
			<rect width="52.7812" height="52.7812" fill="white" transform="translate(53.2163 33.2157)" />
		</clipPath>
	</defs>
</svg>