<svg width="572" height="463" viewBox="0 0 572 463" fill="none" xmlns="http://www.w3.org/2000/svg">
<rect x="2.07812" y="59.9596" width="484" height="316.008" rx="20" fill="#1B3A4A"/>
<g filter="url(#filter0_d_358_3393)">
<rect x="456.078" y="178.999" width="71.2128" height="71.2128" rx="14" fill="#00AAFF"/>
</g>
<path d="M483.301 204.125C482.833 203.506 481.953 203.384 481.334 203.852L468.635 213.454C468.017 213.922 467.895 214.802 468.362 215.421C468.44 215.524 468.532 215.616 468.635 215.694L481.334 225.296C481.949 225.768 482.831 225.652 483.303 225.037C483.775 224.422 483.659 223.54 483.044 223.068C483.039 223.064 483.033 223.06 483.028 223.057L471.81 214.574L483.028 206.091C483.647 205.624 483.769 204.743 483.301 204.125Z" fill="white"/>
<path d="M516.107 213.464L503.408 203.862C502.796 203.387 501.914 203.498 501.438 204.111C500.963 204.724 501.074 205.606 501.687 206.081C501.696 206.088 501.706 206.095 501.715 206.102L512.933 214.584L501.715 223.067C501.091 223.527 500.958 224.406 501.418 225.03C501.878 225.655 502.757 225.788 503.381 225.328C503.39 225.321 503.399 225.314 503.408 225.307L516.107 215.705C516.726 215.237 516.848 214.356 516.38 213.738C516.302 213.634 516.21 213.542 516.107 213.464Z" fill="white"/>
<path d="M494.167 199.015C493.401 198.9 492.686 199.427 492.569 200.193L488.234 228.835C488.118 229.602 488.645 230.317 489.412 230.433C489.482 230.444 489.553 230.449 489.624 230.449C490.317 230.449 490.906 229.942 491.01 229.256L495.345 200.612C495.461 199.846 494.933 199.131 494.167 199.015Z" fill="white"/>
<g opacity="0.5">
<path d="M397.218 336.92H409.241V342.368H397.218V336.92Z" fill="white"/>
<path d="M386.825 336.92H398.848V342.368H386.825V336.92Z" fill="white"/>
<path d="M381.629 336.92H388.458V342.368H381.629V336.92Z" fill="white"/>
<path d="M371.235 336.92H383.258V342.368H371.235V336.92Z" fill="white"/>
<path d="M360.842 336.92H372.865V342.368H360.842V336.92Z" fill="white"/>
<path d="M355.646 336.92H362.474V342.368H355.646V336.92Z" fill="white"/>
<path d="M350.449 336.92H357.278V342.368H350.449V336.92Z" fill="white"/>
<path d="M340.056 336.92H352.078V342.368H340.056V336.92Z" fill="white"/>
<path d="M334.859 336.92H341.688V342.368H334.859V336.92Z" fill="white"/>
<path d="M318.773 336.92H325.602V342.368H318.773V336.92Z" fill="#BF1E62"/>
<path d="M308.38 336.92H320.403V342.368H308.38V336.92Z" fill="#BF1E62"/>
<path d="M297.986 336.92H310.009V342.368H297.986V336.92Z" fill="#BF1E62"/>
<path d="M292.79 336.92H299.619V342.368H292.79V336.92Z" fill="#BF1E62"/>
<path d="M276.704 336.92H283.533V342.368H276.704V336.92Z" fill="#BF1E62"/>
<path d="M266.311 336.92H278.333V342.368H266.311V336.92Z" fill="#BF1E62"/>
<path d="M245.028 336.92H257.051V342.368H245.028V336.92Z" fill="white"/>
<path d="M234.636 336.92H246.659V342.368H234.636V336.92Z" fill="white"/>
<path d="M224.242 336.92H236.265V342.368H224.242V336.92Z" fill="white"/>
<path d="M219.045 336.92H225.874V342.368H219.045V336.92Z" fill="white"/>
<path d="M208.652 336.92H220.675V342.368H208.652V336.92Z" fill="white"/>
<path d="M198.26 336.92H210.283V342.368H198.26V336.92Z" fill="white"/>
<path d="M193.062 336.92H199.891V342.368H193.062V336.92Z" fill="white"/>
<path d="M171.779 336.92H183.802V342.368H171.779V336.92Z" fill="#1F5773"/>
<path d="M161.387 336.92H173.41V342.368H161.387V336.92Z" fill="#1F5773"/>
<path d="M156.19 336.92H163.019V342.368H156.19V336.92Z" fill="#1F5773"/>
<path d="M150.993 336.92H157.822V342.368H150.993V336.92Z" fill="#1F5773"/>
<path d="M140.601 336.92H152.623V342.368H140.601V336.92Z" fill="#1F5773"/>
<path d="M130.207 336.92H142.23V342.368H130.207V336.92Z" fill="#1F5773"/>
<path d="M103.231 336.92H110.06V342.368H103.231V336.92Z" fill="#C08930"/>
<path d="M92.8379 336.92H104.861V342.368H92.8379V336.92Z" fill="#C08930"/>
<path d="M87.6416 336.92H94.4703V342.368H87.6416V336.92Z" fill="#C08930"/>
<path d="M77.249 336.92H89.2718V342.368H77.249V336.92Z" fill="#C08930"/>
<path d="M72.0518 336.92H78.8804V342.368H72.0518V336.92Z" fill="#C08930"/>
<path d="M66.8555 336.92H73.6841V342.368H66.8555V336.92Z" fill="#C08930"/>
<path d="M56.4619 336.92H68.4847V342.368H56.4619V336.92Z" fill="#C08930"/>
<path d="M51.2656 336.92H58.0943V342.368H51.2656V336.92Z" fill="#C08930"/>
<path d="M40.873 336.92H52.8959V342.368H40.873V336.92Z" fill="#C08930"/>
<path d="M35.6768 336.92H42.5054V342.368H35.6768V336.92Z" fill="#C08930"/>
<path d="M402.415 309.678H414.438V315.127H402.415V309.678Z" fill="#C08930"/>
<path d="M397.218 309.678H404.046V315.127H397.218V309.678Z" fill="#C08930"/>
<path d="M392.021 309.678H398.85V315.127H392.021V309.678Z" fill="#C08930"/>
<path d="M381.629 309.678H393.652V315.127H381.629V309.678Z" fill="#C08930"/>
<path d="M360.346 309.678H372.369V315.127H360.346V309.678Z" fill="#C08930"/>
<path d="M349.952 309.678H361.975V315.127H349.952V309.678Z" fill="#C08930"/>
<path d="M339.559 309.678H351.581V315.127H339.559V309.678Z" fill="#C08930"/>
<path d="M334.363 309.678H341.192V315.127H334.363V309.678Z" fill="#C08930"/>
<path d="M323.97 309.678H335.993V315.127H323.97V309.678Z" fill="#C08930"/>
<path d="M302.687 309.678H314.709V315.127H302.687V309.678Z" fill="#1F5773"/>
<path d="M292.294 309.678H304.317V315.127H292.294V309.678Z" fill="#1F5773"/>
<path d="M287.098 309.678H293.926V315.127H287.098V309.678Z" fill="#1F5773"/>
<path d="M276.704 309.678H288.727V315.127H276.704V309.678Z" fill="#1F5773"/>
<path d="M266.311 309.678H278.333V315.127H266.311V309.678Z" fill="#1F5773"/>
<path d="M261.114 309.678H267.943V315.127H261.114V309.678Z" fill="#1F5773"/>
<path d="M255.918 309.678H262.747V315.127H255.918V309.678Z" fill="#1F5773"/>
<path d="M245.525 309.678H257.548V315.127H245.525V309.678Z" fill="#1F5773"/>
<path d="M240.328 309.678H247.157V315.127H240.328V309.678Z" fill="#1F5773"/>
<path d="M224.242 309.678H231.071V315.127H224.242V309.678Z" fill="#BF1E62"/>
<path d="M213.849 309.678H225.871V315.127H213.849V309.678Z" fill="#BF1E62"/>
<path d="M203.456 309.678H215.479V315.127H203.456V309.678Z" fill="#BF1E62"/>
<path d="M198.26 309.678H205.088V315.127H198.26V309.678Z" fill="#BF1E62"/>
<path d="M182.173 309.678H189.002V315.127H182.173V309.678Z" fill="#BF1E62"/>
<path d="M171.779 309.678H183.802V315.127H171.779V309.678Z" fill="#BF1E62"/>
<path d="M150.497 309.678H162.52V315.127H150.497V309.678Z" fill="white"/>
<path d="M140.104 309.678H152.126V315.127H140.104V309.678Z" fill="white"/>
<path d="M129.711 309.678H141.734V315.127H129.711V309.678Z" fill="white"/>
<path d="M124.515 309.678H131.343V315.127H124.515V309.678Z" fill="white"/>
<path d="M114.121 309.678H126.144V315.127H114.121V309.678Z" fill="white"/>
<path d="M103.728 309.678H115.75V315.127H103.728V309.678Z" fill="white"/>
<path d="M98.5312 309.678H105.36V315.127H98.5312V309.678Z" fill="white"/>
<path d="M77.249 309.678H89.2718V315.127H77.249V309.678Z" fill="white"/>
<path d="M66.8555 309.678H78.8783V315.127H66.8555V309.678Z" fill="white"/>
<path d="M61.6592 309.678H68.4878V315.127H61.6592V309.678Z" fill="white"/>
<path d="M56.4619 309.678H63.2906V315.127H56.4619V309.678Z" fill="white"/>
<path d="M46.0693 309.678H58.0922V315.127H46.0693V309.678Z" fill="white"/>
<path d="M35.6768 309.678H47.6996V315.127H35.6768V309.678Z" fill="white"/>
<path d="M392.518 282.436H404.54V287.884H392.518V282.436Z" fill="#1F5773"/>
<path d="M382.125 282.436H394.148V287.884H382.125V282.436Z" fill="#1F5773"/>
<path d="M376.929 282.436H383.757V287.884H376.929V282.436Z" fill="#1F5773"/>
<path d="M366.535 282.436H378.558V287.884H366.535V282.436Z" fill="#1F5773"/>
<path d="M356.143 282.436H368.165V287.884H356.143V282.436Z" fill="#1F5773"/>
<path d="M350.946 282.436H357.775V287.884H350.946V282.436Z" fill="#1F5773"/>
<path d="M329.663 282.436H341.686V287.884H329.663V282.436Z" fill="#1F5773"/>
<path d="M319.27 282.436H331.292V287.884H319.27V282.436Z" fill="#1F5773"/>
<path d="M303.184 282.436H310.012V287.884H303.184V282.436Z" fill="#10AFFF"/>
<path d="M292.79 282.436H304.813V287.884H292.79V282.436Z" fill="#10AFFF"/>
<path d="M271.508 282.436H283.531V287.884H271.508V282.436Z" fill="#1F5773"/>
<path d="M261.114 282.436H273.137V287.884H261.114V282.436Z" fill="#1F5773"/>
<path d="M250.721 282.436H262.744V287.884H250.721V282.436Z" fill="#1F5773"/>
<path d="M245.525 282.436H252.354V287.884H245.525V282.436Z" fill="#1F5773"/>
<path d="M235.132 282.436H247.155V287.884H235.132V282.436Z" fill="#1F5773"/>
<path d="M213.849 282.436H225.871V287.884H213.849V282.436Z" fill="#1F5773"/>
<path d="M203.456 282.436H215.479V287.884H203.456V282.436Z" fill="#1F5773"/>
<path d="M193.062 282.436H205.085V287.884H193.062V282.436Z" fill="#1F5773"/>
<path d="M171.779 282.436H183.802V287.884H171.779V282.436Z" fill="#10AFFF"/>
<path d="M161.387 282.436H173.41V287.884H161.387V282.436Z" fill="#10AFFF"/>
<path d="M145.301 282.436H152.129V287.884H145.301V282.436Z" fill="#BF1E62"/>
<path d="M134.907 282.436H146.93V287.884H134.907V282.436Z" fill="#BF1E62"/>
<path d="M129.711 282.436H136.54V287.884H129.711V282.436Z" fill="#BF1E62"/>
<path d="M119.318 282.436H131.341V287.884H119.318V282.436Z" fill="#BF1E62"/>
<path d="M114.121 282.436H120.95V287.884H114.121V282.436Z" fill="#BF1E62"/>
<path d="M108.925 282.436H115.753V287.884H108.925V282.436Z" fill="#BF1E62"/>
<path d="M98.5312 282.436H110.554V287.884H98.5312V282.436Z" fill="#BF1E62"/>
<path d="M93.335 282.436H100.164V287.884H93.335V282.436Z" fill="#BF1E62"/>
<path d="M82.9414 282.436H94.9642V287.884H82.9414V282.436Z" fill="#BF1E62"/>
<path d="M77.7451 282.436H84.5738V287.884H77.7451V282.436Z" fill="#BF1E62"/>
<path d="M56.4619 282.436H68.4847V287.884H56.4619V282.436Z" fill="#1F5773"/>
<path d="M51.2656 282.436H58.0943V287.884H51.2656V282.436Z" fill="#1F5773"/>
<path d="M46.0693 282.436H52.898V287.884H46.0693V282.436Z" fill="#1F5773"/>
<path d="M35.6768 282.436H47.6996V287.884H35.6768V282.436Z" fill="#1F5773"/>
<path d="M423.201 255.194H435.224V260.642H423.201V255.194Z" fill="white"/>
<path d="M412.809 255.194H424.831V260.642H412.809V255.194Z" fill="white"/>
<path d="M402.415 255.194H414.438V260.642H402.415V255.194Z" fill="white"/>
<path d="M397.218 255.194H404.046V260.642H397.218V255.194Z" fill="white"/>
<path d="M386.825 255.194H398.848V260.642H386.825V255.194Z" fill="white"/>
<path d="M365.542 255.194H377.565V260.642H365.542V255.194Z" fill="white"/>
<path d="M355.149 255.194H367.172V260.642H355.149V255.194Z" fill="white"/>
<path d="M349.952 255.194H356.781V260.642H349.952V255.194Z" fill="white"/>
<path d="M339.559 255.194H351.581V260.642H339.559V255.194Z" fill="white"/>
<path d="M329.167 255.194H341.19V260.642H329.167V255.194Z" fill="white"/>
<path d="M323.97 255.194H330.798V260.642H323.97V255.194Z" fill="white"/>
<path d="M318.773 255.194H325.602V260.642H318.773V255.194Z" fill="white"/>
<path d="M308.38 255.194H320.403V260.642H308.38V255.194Z" fill="white"/>
<path d="M303.184 255.194H310.012V260.642H303.184V255.194Z" fill="white"/>
<path d="M287.098 255.194H293.926V260.642H287.098V255.194Z" fill="#C08930"/>
<path d="M276.704 255.194H288.727V260.642H276.704V255.194Z" fill="#C08930"/>
<path d="M266.311 255.194H278.333V260.642H266.311V255.194Z" fill="#C08930"/>
<path d="M261.114 255.194H267.943V260.642H261.114V255.194Z" fill="#C08930"/>
<path d="M245.028 255.194H251.857V260.642H245.028V255.194Z" fill="#C08930"/>
<path d="M234.636 255.194H246.659V260.642H234.636V255.194Z" fill="#C08930"/>
<path d="M213.353 255.194H225.375V260.642H213.353V255.194Z" fill="#1F5773"/>
<path d="M202.96 255.194H214.983V260.642H202.96V255.194Z" fill="#1F5773"/>
<path d="M192.566 255.194H204.589V260.642H192.566V255.194Z" fill="#1F5773"/>
<path d="M187.369 255.194H194.198V260.642H187.369V255.194Z" fill="#1F5773"/>
<path d="M176.977 255.194H188.999V260.642H176.977V255.194Z" fill="#1F5773"/>
<path d="M166.584 255.194H178.607V260.642H166.584V255.194Z" fill="#1F5773"/>
<path d="M161.387 255.194H168.215V260.642H161.387V255.194Z" fill="#1F5773"/>
<path d="M140.104 255.194H152.126V260.642H140.104V255.194Z" fill="#1F5773"/>
<path d="M129.711 255.194H141.734V260.642H129.711V255.194Z" fill="#1F5773"/>
<path d="M124.515 255.194H131.343V260.642H124.515V255.194Z" fill="#1F5773"/>
<path d="M119.318 255.194H126.147V260.642H119.318V255.194Z" fill="#1F5773"/>
<path d="M108.925 255.194H120.948V260.642H108.925V255.194Z" fill="#1F5773"/>
<path d="M98.5312 255.194H110.554V260.642H98.5312V255.194Z" fill="#1F5773"/>
<path d="M77.249 255.194H89.2718V260.642H77.249V255.194Z" fill="#1F5773"/>
<path d="M66.8555 255.194H78.8783V260.642H66.8555V255.194Z" fill="#1F5773"/>
<path d="M61.6592 255.194H68.4878V260.642H61.6592V255.194Z" fill="#1F5773"/>
<path d="M51.2656 255.194H63.2884V260.642H51.2656V255.194Z" fill="#1F5773"/>
<path d="M40.873 255.194H52.8959V260.642H40.873V255.194Z" fill="#1F5773"/>
<path d="M35.6768 255.194H42.5054V260.642H35.6768V255.194Z" fill="#1F5773"/>
<path d="M418.998 227.952H431.021V233.4H418.998V227.952Z" fill="#BF1E62"/>
<path d="M408.604 227.952H420.627V233.4H408.604V227.952Z" fill="#BF1E62"/>
<path d="M392.518 227.952H399.346V233.4H392.518V227.952Z" fill="#BF1E62"/>
<path d="M382.125 227.952H394.148V233.4H382.125V227.952Z" fill="#BF1E62"/>
<path d="M360.842 227.952H372.865V233.4H360.842V227.952Z" fill="#1F5773"/>
<path d="M350.449 227.952H362.472V233.4H350.449V227.952Z" fill="#1F5773"/>
<path d="M340.056 227.952H352.078V233.4H340.056V227.952Z" fill="#1F5773"/>
<path d="M334.859 227.952H341.688V233.4H334.859V227.952Z" fill="#1F5773"/>
<path d="M324.467 227.952H336.49V233.4H324.467V227.952Z" fill="#1F5773"/>
<path d="M303.184 227.952H315.206V233.4H303.184V227.952Z" fill="#1F5773"/>
<path d="M292.79 227.952H304.813V233.4H292.79V227.952Z" fill="#1F5773"/>
<path d="M282.397 227.952H294.42V233.4H282.397V227.952Z" fill="#1F5773"/>
<path d="M261.114 227.952H273.137V233.4H261.114V227.952Z" fill="#BF1E62"/>
<path d="M250.721 227.952H262.744V233.4H250.721V227.952Z" fill="#BF1E62"/>
<path d="M240.328 227.952H252.351V233.4H240.328V227.952Z" fill="#BF1E62"/>
<path d="M224.242 227.952H231.071V233.4H224.242V227.952Z" fill="white"/>
<path d="M213.849 227.952H225.871V233.4H213.849V227.952Z" fill="white"/>
<path d="M203.456 227.952H215.479V233.4H203.456V227.952Z" fill="white"/>
<path d="M198.26 227.952H205.088V233.4H198.26V227.952Z" fill="white"/>
<path d="M187.866 227.952H199.889V233.4H187.866V227.952Z" fill="white"/>
<path d="M182.669 227.952H189.498V233.4H182.669V227.952Z" fill="white"/>
<path d="M172.275 227.952H184.298V233.4H172.275V227.952Z" fill="white"/>
<path d="M150.993 227.952H163.016V233.4H150.993V227.952Z" fill="white"/>
<path d="M140.601 227.952H152.623V233.4H140.601V227.952Z" fill="white"/>
<path d="M130.207 227.952H142.23V233.4H130.207V227.952Z" fill="white"/>
<path d="M108.925 227.952H120.948V233.4H108.925V227.952Z" fill="white"/>
<path d="M103.728 227.952H110.556V233.4H103.728V227.952Z" fill="white"/>
<path d="M98.5312 227.952H105.36V233.4H98.5312V227.952Z" fill="white"/>
<path d="M88.1387 227.952H100.161V233.4H88.1387V227.952Z" fill="white"/>
<path d="M77.7451 227.952H89.7679V233.4H77.7451V227.952Z" fill="white"/>
<path d="M56.4619 227.952H68.4847V233.4H56.4619V227.952Z" fill="white"/>
<path d="M46.0693 227.952H58.0922V233.4H46.0693V227.952Z" fill="white"/>
<path d="M35.6768 227.952H47.6996V233.4H35.6768V227.952Z" fill="white"/>
<path d="M423.201 200.71H430.03V206.158H423.201V200.71Z" fill="white"/>
<path d="M412.809 200.71H424.831V206.158H412.809V200.71Z" fill="white"/>
<path d="M402.415 200.71H414.438V206.158H402.415V200.71Z" fill="white"/>
<path d="M392.021 200.71H404.044V206.158H392.021V200.71Z" fill="white"/>
<path d="M386.825 200.71H393.654V206.158H386.825V200.71Z" fill="white"/>
<path d="M376.432 200.71H388.454V206.158H376.432V200.71Z" fill="white"/>
<path d="M366.039 200.71H378.062V206.158H366.039V200.71Z" fill="white"/>
<path d="M355.646 200.71H367.668V206.158H355.646V200.71Z" fill="white"/>
<path d="M345.253 200.71H357.276V206.158H345.253V200.71Z" fill="white"/>
<path d="M323.97 200.71H335.993V206.158H323.97V200.71Z" fill="#10AFFF"/>
<path d="M302.687 200.71H314.709V206.158H302.687V200.71Z" fill="#1F5773"/>
<path d="M292.294 200.71H304.317V206.158H292.294V200.71Z" fill="#1F5773"/>
<path d="M287.098 200.71H293.926V206.158H287.098V200.71Z" fill="#1F5773"/>
<path d="M281.901 200.71H288.73V206.158H281.901V200.71Z" fill="#1F5773"/>
<path d="M260.618 200.71H272.641V206.158H260.618V200.71Z" fill="#1F5773"/>
<path d="M250.226 200.71H262.248V206.158H250.226V200.71Z" fill="#1F5773"/>
<path d="M245.028 200.71H251.857V206.158H245.028V200.71Z" fill="#1F5773"/>
<path d="M234.636 200.71H246.659V206.158H234.636V200.71Z" fill="#1F5773"/>
<path d="M229.438 200.71H236.267V206.158H229.438V200.71Z" fill="#1F5773"/>
<path d="M208.155 200.71H220.178V206.158H208.155V200.71Z" fill="#10AFFF"/>
<path d="M202.96 200.71H209.789V206.158H202.96V200.71Z" fill="#10AFFF"/>
<path d="M181.677 200.71H193.7V206.158H181.677V200.71Z" fill="#1F5773"/>
<path d="M171.283 200.71H183.306V206.158H171.283V200.71Z" fill="#1F5773"/>
<path d="M160.891 200.71H172.913V206.158H160.891V200.71Z" fill="#1F5773"/>
<path d="M139.607 200.71H151.63V206.158H139.607V200.71Z" fill="#C08930"/>
<path d="M134.411 200.71H141.24V206.158H134.411V200.71Z" fill="#C08930"/>
<path d="M124.018 200.71H136.04V206.158H124.018V200.71Z" fill="#C08930"/>
<path d="M113.625 200.71H125.648V206.158H113.625V200.71Z" fill="#C08930"/>
<path d="M108.428 200.71H115.256V206.158H108.428V200.71Z" fill="#C08930"/>
<path d="M103.231 200.71H110.06V206.158H103.231V200.71Z" fill="#C08930"/>
<path d="M92.8379 200.71H104.861V206.158H92.8379V200.71Z" fill="#C08930"/>
<path d="M87.6416 200.71H94.4703V206.158H87.6416V200.71Z" fill="#C08930"/>
<path d="M77.249 200.71H89.2718V206.158H77.249V200.71Z" fill="#C08930"/>
<path d="M72.0518 200.71H78.8804V206.158H72.0518V200.71Z" fill="#C08930"/>
<path d="M66.8555 200.71H73.6841V206.158H66.8555V200.71Z" fill="#C08930"/>
<path d="M56.4619 200.71H68.4847V206.158H56.4619V200.71Z" fill="#C08930"/>
<path d="M51.2656 200.71H58.0943V206.158H51.2656V200.71Z" fill="#C08930"/>
<path d="M40.873 200.71H52.8959V206.158H40.873V200.71Z" fill="#C08930"/>
<path d="M35.6768 200.71H42.5054V206.158H35.6768V200.71Z" fill="#C08930"/>
<path d="M402.415 173.468H414.438V178.916H402.415V173.468Z" fill="#1F5773"/>
<path d="M397.218 173.468H404.046V178.916H397.218V173.468Z" fill="#1F5773"/>
<path d="M392.021 173.468H398.85V178.916H392.021V173.468Z" fill="#1F5773"/>
<path d="M381.629 173.468H393.652V178.916H381.629V173.468Z" fill="#1F5773"/>
<path d="M360.346 173.468H372.369V178.916H360.346V173.468Z" fill="#1F5773"/>
<path d="M349.952 173.468H361.975V178.916H349.952V173.468Z" fill="#1F5773"/>
<path d="M339.559 173.468H351.581V178.916H339.559V173.468Z" fill="#1F5773"/>
<path d="M334.363 173.468H341.192V178.916H334.363V173.468Z" fill="#1F5773"/>
<path d="M323.97 173.468H335.993V178.916H323.97V173.468Z" fill="#1F5773"/>
<path d="M302.687 173.468H314.709V178.916H302.687V173.468Z" fill="#C08930"/>
<path d="M292.294 173.468H304.317V178.916H292.294V173.468Z" fill="#C08930"/>
<path d="M287.098 173.468H293.926V178.916H287.098V173.468Z" fill="#C08930"/>
<path d="M276.704 173.468H288.727V178.916H276.704V173.468Z" fill="#C08930"/>
<path d="M266.311 173.468H278.333V178.916H266.311V173.468Z" fill="#C08930"/>
<path d="M261.114 173.468H267.943V178.916H261.114V173.468Z" fill="#C08930"/>
<path d="M255.918 173.468H262.747V178.916H255.918V173.468Z" fill="#C08930"/>
<path d="M245.525 173.468H257.548V178.916H245.525V173.468Z" fill="#C08930"/>
<path d="M240.328 173.468H247.157V178.916H240.328V173.468Z" fill="#C08930"/>
<path d="M224.242 173.468H231.071V178.916H224.242V173.468Z" fill="#1F5773"/>
<path d="M213.849 173.468H225.871V178.916H213.849V173.468Z" fill="#1F5773"/>
<path d="M203.456 173.468H215.479V178.916H203.456V173.468Z" fill="#1F5773"/>
<path d="M198.26 173.468H205.088V178.916H198.26V173.468Z" fill="#1F5773"/>
<path d="M182.173 173.468H189.002V178.916H182.173V173.468Z" fill="#1F5773"/>
<path d="M171.779 173.468H183.802V178.916H171.779V173.468Z" fill="#1F5773"/>
<path d="M150.497 173.468H162.52V178.916H150.497V173.468Z" fill="#BF1E62"/>
<path d="M140.104 173.468H152.126V178.916H140.104V173.468Z" fill="#BF1E62"/>
<path d="M129.711 173.468H141.734V178.916H129.711V173.468Z" fill="#BF1E62"/>
<path d="M124.515 173.468H131.343V178.916H124.515V173.468Z" fill="#BF1E62"/>
<path d="M114.121 173.468H126.144V178.916H114.121V173.468Z" fill="#BF1E62"/>
<path d="M103.728 173.468H115.75V178.916H103.728V173.468Z" fill="#BF1E62"/>
<path d="M98.5312 173.468H105.36V178.916H98.5312V173.468Z" fill="#BF1E62"/>
<path d="M77.249 173.468H89.2718V178.916H77.249V173.468Z" fill="#1F5773"/>
<path d="M66.8555 173.468H78.8783V178.916H66.8555V173.468Z" fill="#1F5773"/>
<path d="M61.6592 173.468H68.4878V178.916H61.6592V173.468Z" fill="#1F5773"/>
<path d="M56.4619 173.468H63.2906V178.916H56.4619V173.468Z" fill="#1F5773"/>
<path d="M46.0693 173.468H58.0922V178.916H46.0693V173.468Z" fill="#1F5773"/>
<path d="M35.6768 173.468H47.6996V178.916H35.6768V173.468Z" fill="#1F5773"/>
<path d="M387.322 146.226H399.345V151.674H387.322V146.226Z" fill="#1F5773"/>
<path d="M376.929 146.226H388.952V151.674H376.929V146.226Z" fill="#1F5773"/>
<path d="M371.732 146.226H378.561V151.674H371.732V146.226Z" fill="#1F5773"/>
<path d="M361.339 146.226H373.362V151.674H361.339V146.226Z" fill="#1F5773"/>
<path d="M350.946 146.226H362.969V151.674H350.946V146.226Z" fill="#1F5773"/>
<path d="M345.75 146.226H352.579V151.674H345.75V146.226Z" fill="#1F5773"/>
<path d="M324.467 146.226H336.49V151.674H324.467V146.226Z" fill="#1F5773"/>
<path d="M314.073 146.226H326.096V151.674H314.073V146.226Z" fill="#1F5773"/>
<path d="M297.986 146.226H304.815V151.674H297.986V146.226Z" fill="#BF1E62"/>
<path d="M287.594 146.226H299.617V151.674H287.594V146.226Z" fill="#BF1E62"/>
<path d="M266.311 146.226H278.333V151.674H266.311V146.226Z" fill="#1F5773"/>
<path d="M255.918 146.226H267.941V151.674H255.918V146.226Z" fill="#1F5773"/>
<path d="M245.525 146.226H257.548V151.674H245.525V146.226Z" fill="#1F5773"/>
<path d="M240.328 146.226H247.157V151.674H240.328V146.226Z" fill="#1F5773"/>
<path d="M229.936 146.226H241.958V151.674H229.936V146.226Z" fill="#1F5773"/>
<path d="M208.652 146.226H220.675V151.674H208.652V146.226Z" fill="white"/>
<path d="M198.26 146.226H210.283V151.674H198.26V146.226Z" fill="white"/>
<path d="M187.866 146.226H199.889V151.674H187.866V146.226Z" fill="white"/>
<path d="M166.584 146.226H178.607V151.674H166.584V146.226Z" fill="white"/>
<path d="M156.19 146.226H168.213V151.674H156.19V146.226Z" fill="white"/>
<path d="M145.797 146.226H157.82V151.674H145.797V146.226Z" fill="white"/>
<path d="M129.711 146.226H136.54V151.674H129.711V146.226Z" fill="white"/>
<path d="M119.318 146.226H131.341V151.674H119.318V146.226Z" fill="white"/>
<path d="M108.925 146.226H120.948V151.674H108.925V146.226Z" fill="white"/>
<path d="M103.728 146.226H110.556V151.674H103.728V146.226Z" fill="white"/>
<path d="M93.335 146.226H105.358V151.674H93.335V146.226Z" fill="white"/>
<path d="M88.1387 146.226H94.9673V151.674H88.1387V146.226Z" fill="white"/>
<path d="M77.7451 146.226H89.7679V151.674H77.7451V146.226Z" fill="white"/>
<path d="M56.4619 146.226H68.4847V151.674H56.4619V146.226Z" fill="white"/>
<path d="M46.0693 146.226H58.0922V151.674H46.0693V146.226Z" fill="white"/>
<path d="M35.6768 146.226H47.6996V151.674H35.6768V146.226Z" fill="white"/>
<path d="M439.784 118.984H451.807V124.432H439.784V118.984Z" fill="#1F5773"/>
<path d="M434.588 118.984H441.417V124.432H434.588V118.984Z" fill="#1F5773"/>
<path d="M429.391 118.984H436.219V124.432H429.391V118.984Z" fill="#1F5773"/>
<path d="M418.998 118.984H431.021V124.432H418.998V118.984Z" fill="#1F5773"/>
<path d="M408.604 118.984H420.627V124.432H408.604V118.984Z" fill="#1F5773"/>
<path d="M387.322 118.984H399.345V124.432H387.322V118.984Z" fill="#1F5773"/>
<path d="M376.929 118.984H388.952V124.432H376.929V118.984Z" fill="#1F5773"/>
<path d="M366.535 118.984H378.558V124.432H366.535V118.984Z" fill="#1F5773"/>
<path d="M350.449 118.984H357.278V124.432H350.449V118.984Z" fill="white"/>
<path d="M340.056 118.984H352.078V124.432H340.056V118.984Z" fill="white"/>
<path d="M329.663 118.984H341.686V124.432H329.663V118.984Z" fill="white"/>
<path d="M319.27 118.984H331.292V124.432H319.27V118.984Z" fill="white"/>
<path d="M314.073 118.984H320.902V124.432H314.073V118.984Z" fill="white"/>
<path d="M303.681 118.984H315.703V124.432H303.681V118.984Z" fill="white"/>
<path d="M293.287 118.984H305.31V124.432H293.287V118.984Z" fill="white"/>
<path d="M282.894 118.984H294.916V124.432H282.894V118.984Z" fill="white"/>
<path d="M272.501 118.984H284.524V124.432H272.501V118.984Z" fill="white"/>
<path d="M251.218 118.984H263.241V124.432H251.218V118.984Z" fill="#10AFFF"/>
<path d="M229.936 118.984H241.958V124.432H229.936V118.984Z" fill="#C08930"/>
<path d="M219.542 118.984H231.565V124.432H219.542V118.984Z" fill="#C08930"/>
<path d="M214.346 118.984H221.174V124.432H214.346V118.984Z" fill="#C08930"/>
<path d="M209.149 118.984H215.978V124.432H209.149V118.984Z" fill="#C08930"/>
<path d="M187.866 118.984H199.889V124.432H187.866V118.984Z" fill="#1F5773"/>
<path d="M177.474 118.984H189.496V124.432H177.474V118.984Z" fill="#1F5773"/>
<path d="M172.275 118.984H179.104V124.432H172.275V118.984Z" fill="#1F5773"/>
<path d="M161.884 118.984H173.907V124.432H161.884V118.984Z" fill="#1F5773"/>
<path d="M156.687 118.984H163.515V124.432H156.687V118.984Z" fill="#1F5773"/>
<path d="M135.403 118.984H147.426V124.432H135.403V118.984Z" fill="#10AFFF"/>
<path d="M130.207 118.984H137.036V124.432H130.207V118.984Z" fill="#10AFFF"/>
<path d="M108.925 118.984H120.948V124.432H108.925V118.984Z" fill="#BF1E62"/>
<path d="M98.5312 118.984H110.554V124.432H98.5312V118.984Z" fill="#BF1E62"/>
<path d="M88.1387 118.984H100.161V124.432H88.1387V118.984Z" fill="#BF1E62"/>
<path d="M66.8555 118.984H78.8783V124.432H66.8555V118.984Z" fill="#1F5773"/>
<path d="M61.6592 118.984H68.4878V124.432H61.6592V118.984Z" fill="#1F5773"/>
<path d="M51.2656 118.984H63.2884V124.432H51.2656V118.984Z" fill="#1F5773"/>
<path d="M40.873 118.984H52.8959V124.432H40.873V118.984Z" fill="#1F5773"/>
<path d="M35.6768 118.984H42.5054V124.432H35.6768V118.984Z" fill="#1F5773"/>
</g>
<g filter="url(#filter1_d_358_3393)">
<rect x="44.0781" y="23.999" width="71.2128" height="71.2128" rx="14" fill="#00AAFF"/>
</g>
<g clip-path="url(#clip0_358_3393)">
<path d="M104.672 35.1949L104.672 35.1949C104.243 34.6904 103.709 34.2856 103.108 34.009C102.507 33.7323 101.852 33.5904 101.19 33.5932L101.188 33.5932L58.3067 33.5932H58.3013L58.3013 33.5932C57.6407 33.5837 56.9859 33.7177 56.3821 33.9861C55.7784 34.2545 55.2402 34.6508 54.8047 35.1476C54.3691 35.6444 54.0467 36.2299 53.8596 36.8635C53.6726 37.4969 53.6254 38.1634 53.7211 38.8169C53.7212 38.8171 53.7212 38.8173 53.7212 38.8176L58.6239 71.345L58.6241 71.3464C58.7626 72.2889 59.1093 73.1887 59.6391 73.9803C60.1689 74.772 60.8685 75.4356 61.687 75.9229L61.6877 75.9233L76.3761 84.71C76.3764 84.7102 76.3767 84.7104 76.377 84.7105C77.3804 85.3046 78.5249 85.618 79.691 85.618C80.857 85.618 82.0015 85.3046 83.0049 84.7105C83.0052 84.7104 83.0055 84.7102 83.0058 84.71L97.6943 75.9233L97.6944 75.9232C98.5134 75.4337 99.2144 74.7694 99.7472 73.9779C100.28 73.1863 100.632 72.2869 100.777 71.3438L100.777 71.3418L102.003 63.6668L102.005 63.655L102.005 63.6551C102.044 63.4535 102.041 63.2461 101.997 63.0456C101.953 62.8451 101.868 62.6558 101.748 62.4892C101.628 62.3227 101.475 62.1823 101.299 62.0769C101.123 61.9714 100.927 61.9031 100.724 61.8759L100.716 61.875L100.716 61.8749C100.52 61.845 100.32 61.854 100.128 61.9014C99.9351 61.9489 99.7538 62.0339 99.5942 62.1515C99.4345 62.2692 99.2996 62.4172 99.1972 62.587C99.095 62.7566 99.0272 62.9447 98.9977 63.1404C98.9976 63.1408 98.9976 63.1411 98.9975 63.1414L97.8474 70.9848L97.8467 70.9896L97.8467 70.9896C97.7673 71.4865 97.5802 71.9601 97.2986 72.3771C97.0169 72.7941 96.6475 73.1445 96.2161 73.4037L96.2155 73.4041L81.5263 82.1911L104.672 35.1949ZM104.672 35.1949L104.676 35.1994M104.672 35.1949L104.676 35.1994M104.676 35.1994C105.106 35.6902 105.427 36.2675 105.616 36.8924C105.805 37.5161 105.859 38.1729 105.774 38.8189L103.417 54.2028L103.417 54.2039C103.387 54.4 103.32 54.5884 103.217 54.7583L103.541 54.9534L103.217 54.7583C103.115 54.9281 102.98 55.0761 102.82 55.1938C102.661 55.3114 102.479 55.3964 102.287 55.4439C102.094 55.4914 101.894 55.5004 101.698 55.4704L101.696 55.4702C101.499 55.4408 101.309 55.3725 101.138 55.2691C100.967 55.1657 100.818 55.0294 100.701 54.8681C100.583 54.7068 100.498 54.5237 100.452 54.3294C100.405 54.135 100.398 53.9334 100.43 53.7363L100.43 53.7363L100.431 53.7316L102.731 38.4049C102.769 38.1839 102.757 37.9571 102.697 37.741L102.333 37.843L102.697 37.741C102.636 37.5236 102.527 37.3226 102.378 37.1528C102.23 36.983 102.048 36.8466 101.843 36.7528C101.638 36.6589 101.416 36.6097 101.19 36.6087H101.188H58.3087C58.0798 36.6065 57.8531 36.6539 57.6443 36.7477C57.4353 36.8415 57.2491 36.9795 57.0986 37.1522C56.9515 37.3187 56.8434 37.5161 56.7823 37.7298C56.7215 37.9427 56.7089 38.1666 56.7454 38.3851L61.6478 70.9861L61.6477 70.9862L61.6497 70.9973C61.7376 71.4829 61.9287 71.944 62.21 72.3495C62.4911 72.7547 62.8558 73.0951 63.2796 73.3475C63.2798 73.3476 63.28 73.3478 63.2803 73.3479L77.9685 82.191L77.9687 82.1911M104.676 35.1994L77.9687 82.1911M77.9687 82.1911C78.5058 82.5141 79.1208 82.6848 79.7475 82.6848C80.374 82.6848 80.9886 82.5143 81.5256 82.1916L77.9687 82.1911Z" fill="white" stroke="#00AAFF" stroke-width="0.756"/>
<path d="M69.6183 67.8156L69.6664 67.9686L69.8099 68.0404L73.9208 70.0958L74.4678 70.3693V69.7577V44.5266V44.1486H74.0898H64.6611C64.2613 44.1486 63.8778 43.9897 63.595 43.707C63.3122 43.4242 63.1534 43.0407 63.1534 42.6409C63.1534 42.241 63.3122 41.8575 63.595 41.5747C63.8778 41.292 64.2613 41.1331 64.6611 41.1331H75.9755C76.3754 41.1331 76.7589 41.292 77.0417 41.5747C77.3244 41.8575 77.4833 42.241 77.4833 42.6409L77.4833 72.8126L77.4833 72.8134C77.4838 73.0696 77.419 73.3217 77.295 73.546C77.1711 73.7701 76.9921 73.959 76.7749 74.0948C76.5382 74.2412 76.2656 74.3193 75.9874 74.3204C75.7807 74.3066 75.579 74.2504 75.3949 74.1552L75.3949 74.1551L75.3903 74.1528L67.8474 70.3814L67.8468 70.3811C67.4929 70.2049 67.2224 69.8968 67.0934 69.5232C67.0932 69.5227 67.0931 69.5222 67.0929 69.5217L65.2083 63.8678L65.2079 63.8667C65.1445 63.6785 65.1188 63.4796 65.1323 63.2815C65.1457 63.0833 65.1981 62.8898 65.2863 62.7119C65.3746 62.534 65.497 62.3752 65.6467 62.2446C65.7963 62.114 65.9702 62.0141 66.1584 61.9507C66.3466 61.8873 66.5454 61.8616 66.7436 61.8751C66.9417 61.8885 67.1353 61.9409 67.3132 62.0291C67.4911 62.1174 67.6499 62.2398 67.7805 62.3895C67.9103 62.5382 68.0097 62.7108 68.0732 62.8977L69.6183 67.8156Z" fill="white" stroke="#00AAFF" stroke-width="0.756"/>
<path d="M96.1751 43.3204L96.1756 43.3193C96.2913 43.0898 96.3464 42.8345 96.3356 42.5777C96.3249 42.321 96.2486 42.0712 96.1142 41.8521C95.9797 41.6331 95.7915 41.4521 95.5674 41.3262C95.3435 41.2005 95.0911 41.134 94.8343 41.1331H83.5205C83.1206 41.1331 82.7371 41.292 82.4544 41.5747C82.1716 41.8575 82.0128 42.241 82.0128 42.6409V55.841C82.0128 56.2409 82.1716 56.6244 82.4544 56.9071C82.7371 57.1899 83.1206 57.3487 83.5205 57.3487H90.7806H91.217L91.1547 57.7807L89.7027 67.8505L89.6745 68.0459L89.498 68.1345L82.8434 71.4712C82.8431 71.4713 82.8427 71.4715 82.8424 71.4717C82.4878 71.6525 82.219 71.9663 82.0949 72.3445C81.9706 72.7229 82.0011 73.1351 82.1798 73.4911L96.1751 43.3204ZM96.1751 43.3204L94.2906 47.0894C94.2904 47.0898 94.2902 47.0902 94.29 47.0906C94.1091 47.4452 93.7955 47.7138 93.4173 47.838C93.039 47.9622 92.627 47.9317 92.2711 47.7533C91.9165 47.5725 91.6477 47.2587 91.5235 46.8805C91.3992 46.5019 91.4298 46.0895 91.6087 45.7334L91.6102 45.7303L92.1193 44.6932L92.3867 44.1486H91.78H85.4062H85.0282V44.5266V53.9553V54.3333H85.4062L92.9492 54.3333L92.9525 54.3333C93.1691 54.3314 93.3836 54.3762 93.5813 54.4646C93.7784 54.5528 93.9542 54.6823 94.0969 54.8443C94.2372 55.0082 94.3407 55.2004 94.4003 55.4079C94.4602 55.616 94.4745 55.8346 94.4422 56.0488L94.4419 56.0515L92.5562 69.251C92.5562 69.2511 92.5562 69.2511 92.5562 69.2512C92.5214 69.4912 92.4293 69.7193 92.2876 69.9161C92.146 70.1128 91.959 70.2725 91.7425 70.3816C91.7424 70.3817 91.7422 70.3817 91.742 70.3818L84.2 74.1528L84.2 74.1527L84.1907 74.1576C83.9861 74.2672 83.7571 74.3232 83.525 74.3204L83.5216 74.3203M96.1751 43.3204L83.5216 74.3203M83.5216 74.3203C83.2432 74.3195 82.9705 74.2416 82.7336 74.0952C82.4969 73.9489 82.3053 73.74 82.18 73.4915L83.5216 74.3203Z" fill="white" stroke="#00AAFF" stroke-width="0.756"/>
</g>
<path d="M355.525 451.175C356.331 448.896 398.105 396.026 400.902 395.048C401.222 394.919 419.126 408.231 419.126 408.231C419.855 409.246 454.551 402.665 454.551 402.665L454.027 444.345L391.128 441.697C391.128 441.697 382.526 446.517 374.666 450.426C374.653 450.427 374.647 450.435 374.639 450.43C369.803 452.852 365.523 454.888 364.308 455.179C361.144 455.918 354.703 453.443 355.525 451.175Z" fill="#FFD9D1"/>
<path d="M364.31 455.177C365.529 454.892 369.804 452.855 374.638 450.428C374.649 450.438 374.659 450.428 374.668 450.429C382.522 446.52 391.128 441.695 391.128 441.695L405.126 442.288L427.787 407.366C422.957 408.118 419.358 408.554 419.124 408.229C419.124 408.229 401.227 394.918 400.903 395.052C398.105 396.027 356.336 448.895 355.525 451.175C354.706 453.442 361.144 455.923 364.31 455.177Z" fill="white"/>
<path d="M355.153 451.238C356.001 448.902 397.956 396.067 400.83 395.062C401.918 394.677 410.693 400.353 419.128 408.229L392.038 442.26C392.038 442.26 367.441 454.641 364.172 455.404C360.91 456.157 354.305 453.575 355.153 451.238Z" fill="#3094C6"/>
<path d="M357.867 452.159C365.117 443.475 393.541 407.765 400.048 398.63C400.101 398.555 400.053 398.516 399.993 398.586C392.618 407.036 364.484 442.975 357.722 452.045C357.579 452.235 357.714 452.343 357.867 452.159Z" fill="#263238"/>
<path d="M368.771 453.516C370.523 451.484 371.156 448.638 370.815 446.5C370.487 444.445 369.545 442.161 367.658 440.766C367.604 440.726 367.526 440.822 367.573 440.872C370.638 444.131 371.178 449.7 368.659 453.427C368.608 453.503 368.71 453.585 368.771 453.516Z" fill="#263238"/>
<path d="M388.943 444.334C391.806 440.829 393.819 435.725 392.669 431.22C392.624 431.045 392.377 431.111 392.348 431.26C391.455 435.776 390.267 439.8 388.458 444.05C388.33 444.348 388.737 444.585 388.943 444.334Z" fill="#263238"/>
<path d="M385.702 446.223C388.566 442.718 390.579 437.614 389.429 433.108C389.384 432.933 389.137 433 389.107 433.148C388.215 437.664 387.027 441.688 385.218 445.937C385.09 446.237 385.498 446.474 385.702 446.223Z" fill="#263238"/>
<path d="M382.463 448.112C385.327 444.607 387.339 439.503 386.19 434.998C386.146 434.823 385.898 434.89 385.868 435.038C384.976 439.554 383.788 443.578 381.978 447.828C381.851 448.126 382.257 448.364 382.463 448.112Z" fill="#263238"/>
<path d="M379.222 450.003C382.086 446.497 384.098 441.393 382.948 436.889C382.903 436.714 382.657 436.779 382.627 436.928C381.735 441.445 380.546 445.468 378.737 449.718C378.61 450.017 379.017 450.253 379.222 450.003Z" fill="#263238"/>
<path d="M406.671 407.566C409.817 403.579 403.627 398.682 400.475 402.675C397.328 406.662 403.518 411.558 406.671 407.566Z" fill="#263238"/>
<path d="M395.359 455.676C398.272 455.063 398.613 451.649 397.947 449.315C396.868 445.535 394.338 441.519 391.44 438.895C391.368 438.83 391.293 438.864 391.251 438.924C390.937 438.798 390.486 438.929 390.459 439.334C390.2 443.245 389.439 447.393 390.388 451.267C390.942 453.529 392.605 456.256 395.359 455.676ZM391.279 445.345C391.36 443.419 391.534 441.508 391.543 439.58C392.807 441.616 394.152 443.587 395.209 445.749C395.713 446.781 396.212 447.85 396.572 448.943C397.131 450.643 397.332 456.476 393.194 453.765C390.914 452.27 391.184 447.64 391.279 445.345Z" fill="#263238"/>
<path d="M397.12 429.044C394.195 431.754 392.546 435.636 390.608 439.043C390.407 439.396 390.712 439.754 391.044 439.822C391.045 439.896 391.09 439.966 391.185 439.952C395.05 439.358 399.373 437.398 402.355 434.838C404.196 433.257 405.792 430.219 403.699 428.103C401.717 426.101 398.828 427.463 397.12 429.044ZM400.838 428.507C405.783 428.522 402.404 433.28 401.001 434.393C400.1 435.106 399.094 435.725 398.105 436.307C396.032 437.53 393.823 438.434 391.647 439.437C392.702 437.822 393.608 436.133 394.602 434.48C395.786 432.51 398.11 428.498 400.838 428.507Z" fill="#263238"/>
<path d="M456.598 392.752L484.967 390.514C484.967 390.514 525.937 378.639 549.616 384.856C576.76 391.983 580.591 423.7 552.991 436.412C525.688 448.985 405.483 444.351 405.483 444.351L431.251 406.187C431.251 406.187 470.827 396.89 505.472 398.779L456.419 404.428L456.598 392.752Z" fill="#37474F"/>
<path d="M456.883 400.824C461.105 400.129 465.373 399.784 469.632 399.388C473.924 398.99 478.229 398.68 482.531 398.408C491.114 397.868 499.738 397.69 508.333 398.018C509.14 398.048 509.943 398.097 510.748 398.142C510.919 398.088 511.103 398.063 511.281 398.023C511.695 397.931 512.108 397.839 512.527 397.767C513.306 397.634 514.091 397.537 514.874 397.434C516.506 397.219 518.143 397.081 519.767 396.811C519.866 396.795 519.9 396.944 519.801 396.964C518.167 397.291 516.557 397.73 514.921 398.05C514.449 398.142 513.977 398.234 513.504 398.318C516.653 398.55 519.796 398.859 522.938 399.21C523.037 399.221 523.037 399.374 522.935 399.367C518.658 399.026 514.344 398.905 510.054 398.888C505.794 398.871 501.536 398.877 497.277 399.032C488.665 399.346 480.053 399.939 471.466 400.656C466.647 401.059 461.815 401.555 456.981 401.657C456.512 401.667 456.406 400.902 456.883 400.824Z" fill="#263238"/>
<path d="M417.791 443.475C419.382 441.046 420.748 438.446 422.208 435.937C423.674 433.421 425.142 430.904 426.612 428.39C429.545 423.375 440.051 406.521 441.078 405.347C441.144 405.273 441.271 405.363 441.238 405.45C440.732 406.761 434.162 417.928 432.651 420.417C429.63 425.395 426.462 430.27 423.339 435.184C422.446 436.587 421.524 437.97 420.62 439.365C419.718 440.758 418.758 442.128 417.924 443.561C417.872 443.646 417.736 443.56 417.791 443.475Z" fill="#263238"/>
<path d="M558.913 458.863C558.216 456.547 518.992 401.759 516.243 400.651C515.929 400.507 497.416 412.956 497.416 412.956C496.639 413.936 462.294 405.72 462.294 405.72L460.844 447.378L523.798 447.711C523.798 447.711 532.164 452.933 539.828 457.209C539.841 457.211 539.847 457.219 539.855 457.214C544.572 459.862 548.75 462.099 549.95 462.446C553.075 463.335 559.626 461.167 558.913 458.863Z" fill="#FFD9D1"/>
<path d="M549.95 462.445C548.745 462.102 544.572 459.864 539.858 457.213C539.848 457.222 539.838 457.213 539.829 457.211C532.168 452.936 523.801 447.708 523.801 447.708L509.789 447.638L488.807 411.682C493.595 412.662 497.17 413.269 497.42 412.954C497.42 412.954 515.926 400.505 516.243 400.654C518.993 401.76 558.212 456.547 558.913 458.861C559.623 461.167 553.076 463.34 549.95 462.445Z" fill="white"/>
<path d="M559.281 458.944C558.545 456.57 519.137 401.808 516.315 400.669C515.246 400.232 506.211 405.486 497.414 412.955L522.863 448.229C522.863 448.229 546.845 461.761 550.075 462.678C553.298 463.585 560.018 461.317 559.281 458.944Z" fill="#3094C6"/>
<path d="M556.525 459.736C549.694 450.719 522.992 413.702 516.925 404.27C516.875 404.193 516.926 404.157 516.983 404.229C523.948 413.018 550.35 450.249 556.677 459.628C556.809 459.824 556.669 459.926 556.525 459.736Z" fill="#263238"/>
<path d="M545.572 460.574C543.917 458.46 543.419 455.589 543.861 453.469C544.287 451.433 545.336 449.196 547.286 447.891C547.341 447.854 547.416 447.953 547.366 448.002C544.151 451.111 543.347 456.65 545.686 460.491C545.734 460.569 545.628 460.648 545.572 460.574Z" fill="#263238"/>
<path d="M525.856 450.448C523.161 446.81 521.393 441.617 522.754 437.172C522.807 436.999 523.051 437.076 523.073 437.227C523.751 441.78 524.748 445.856 526.354 450.187C526.467 450.491 526.049 450.709 525.856 450.448Z" fill="#263238"/>
<path d="M529.003 452.488C526.307 448.85 524.539 443.658 525.901 439.212C525.954 439.04 526.198 439.117 526.22 439.268C526.897 443.821 527.894 447.896 529.5 452.227C529.613 452.532 529.195 452.749 529.003 452.488Z" fill="#263238"/>
<path d="M532.149 454.529C529.454 450.891 527.685 445.698 529.047 441.253C529.1 441.081 529.344 441.159 529.366 441.308C530.044 445.862 531.041 449.937 532.647 454.268C532.76 454.573 532.342 454.79 532.149 454.529Z" fill="#263238"/>
<path d="M535.296 456.57C532.601 452.932 530.833 447.739 532.195 443.294C532.247 443.122 532.492 443.199 532.514 443.349C533.191 447.903 534.188 451.978 535.794 456.309C535.907 456.614 535.489 456.831 535.296 456.57Z" fill="#263238"/>
<path d="M509.889 412.882C506.934 408.751 513.349 404.152 516.308 408.29C519.263 412.421 512.848 417.02 509.889 412.882Z" fill="#263238"/>
<path d="M524.083 457.305C525.214 453.482 524.651 449.302 524.578 445.383C524.57 444.977 524.125 444.825 523.806 444.936C523.766 444.873 523.693 444.836 523.618 444.897C520.599 447.382 517.882 451.274 516.626 454.997C515.85 457.296 516.029 460.723 518.909 461.474C521.633 462.183 523.423 459.538 524.083 457.305ZM521.162 459.666C516.902 462.178 517.378 456.361 518.017 454.69C518.427 453.615 518.976 452.571 519.529 451.564C520.688 449.453 522.125 447.549 523.483 445.575C523.401 447.503 523.485 449.419 523.474 451.346C523.46 453.644 523.512 458.281 521.162 459.666Z" fill="#263238"/>
<path d="M511.885 433.536C509.694 435.55 511.144 438.661 512.909 440.327C515.766 443.025 519.992 445.187 523.824 445.964C523.918 445.983 523.967 445.915 523.97 445.841C524.305 445.79 524.626 445.447 524.442 445.084C522.668 441.59 521.204 437.635 518.411 434.789C516.781 433.127 513.958 431.632 511.885 433.536ZM520.669 440.336C521.584 442.034 522.409 443.766 523.387 445.429C521.261 444.323 519.098 443.316 517.084 441.996C516.124 441.368 515.149 440.703 514.282 439.947C512.933 438.77 509.783 433.858 514.725 434.076C517.448 434.196 519.579 438.314 520.669 440.336Z" fill="#263238"/>
<path d="M460.729 392.893L432.488 392.143C432.488 392.143 403.327 377.16 379.38 382.248C351.928 388.082 347.531 422.252 367.6 434.907C393.025 450.941 508.057 451.021 508.057 451.021L484.324 408.242C484.324 408.242 446.31 399.181 411.613 399.427L460.345 407.392L460.729 392.893Z" fill="#37474F"/>
<path d="M485.907 411.004C485.877 410.951 485.873 410.846 485.86 410.787C485.847 410.728 485.835 410.668 485.822 410.609C485.791 410.472 485.759 410.335 485.724 410.199C485.652 409.915 485.558 409.644 485.458 409.367C485.357 409.092 485.247 408.824 485.13 408.556C485.009 408.279 484.842 408.054 484.685 407.8C484.669 407.774 484.641 407.769 484.619 407.751C484.607 407.739 484.592 407.729 484.576 407.719C484.554 407.708 484.537 407.695 484.514 407.692C484.492 407.683 484.477 407.67 484.452 407.665C480.269 406.771 451.811 401.925 447.577 401.328C443.308 400.726 439.023 400.213 434.738 399.738C426.192 398.792 417.585 398.207 408.983 398.127C408.177 398.119 407.371 398.129 406.566 398.137C406.397 398.075 406.215 398.039 406.04 397.993C405.63 397.882 405.222 397.769 404.808 397.678C404.037 397.508 403.257 397.375 402.481 397.234C400.86 396.942 399.232 396.726 397.624 396.381C397.526 396.36 397.483 396.507 397.581 396.531C399.199 396.935 400.786 397.448 402.405 397.846C402.871 397.961 403.338 398.075 403.806 398.182C400.649 398.264 397.495 398.424 394.341 398.624C394.242 398.631 394.234 398.784 394.335 398.781C398.624 398.644 402.938 398.726 407.224 398.913C411.481 399.098 415.733 399.305 419.979 399.661C428.567 400.382 437.142 401.381 445.684 402.505C450.477 403.136 479.49 408.16 484.313 408.49C484.335 408.491 484.352 408.484 484.372 408.482C484.408 408.594 484.446 408.706 484.497 408.815C484.622 409.082 484.749 409.344 484.886 409.604C485.017 409.854 485.147 410.103 485.297 410.343C485.372 410.463 485.448 410.581 485.525 410.699C485.563 410.759 485.602 410.818 485.64 410.877C485.673 410.927 485.745 411.004 485.761 411.062C485.795 411.173 485.963 411.104 485.907 411.004Z" fill="#263238"/>
<path d="M499.161 448.224C497.687 445.722 496.445 443.061 495.105 440.485C493.76 437.902 492.413 435.318 491.063 432.738C488.37 427.589 478.675 410.257 477.704 409.035C477.642 408.958 477.511 409.042 477.539 409.13C477.981 410.463 484.016 421.929 485.408 424.487C488.19 429.602 491.122 434.623 494.011 439.678C494.836 441.122 495.691 442.547 496.528 443.983C497.364 445.417 498.258 446.83 499.023 448.303C499.072 448.391 499.212 448.312 499.161 448.224Z" fill="#263238"/>
<path d="M431.824 391.652C432.882 392.77 499.992 394.306 500.33 393.883C501.248 392.728 492.581 350.14 485.567 333.864C476.575 312.994 471.524 311.117 468.512 309.873C464.661 308.284 457.654 308.659 455.961 309.364C454.043 310.152 445.711 319.493 443.213 327.048C438.198 342.22 430.904 390.671 431.824 391.652Z" fill="#3094C6"/>
<path d="M459.842 336.483C459.392 337.332 459.161 338.206 458.968 339.107C458.814 339.994 458.711 340.92 458.801 341.858C459.264 341.01 459.495 340.135 459.688 339.235C459.829 338.348 459.945 337.422 459.842 336.483ZM469.281 380.372C468.844 381.208 468.599 382.095 468.419 382.982C468.252 383.883 468.149 384.783 468.239 385.747C468.689 384.899 468.921 384.011 469.114 383.124C469.268 382.211 469.384 381.311 469.281 380.372ZM443.678 360.646C443.228 361.495 442.984 362.382 442.804 363.269C442.649 364.182 442.534 365.082 442.637 366.021C443.087 365.185 443.318 364.298 443.511 363.411C443.652 362.51 443.781 361.61 443.678 360.646ZM488.223 357.058C487.773 357.907 487.541 358.781 487.348 359.694C487.194 360.582 487.091 361.495 487.181 362.433C487.644 361.61 487.876 360.71 488.069 359.823C488.21 358.923 488.326 358.023 488.223 357.058ZM467.198 313.028C466.298 312.861 465.385 312.758 464.433 312.848C465.282 313.298 466.156 313.529 467.056 313.722C467.944 313.889 468.87 314.005 469.808 313.889C468.96 313.452 468.085 313.208 467.198 313.028ZM488.248 341.048C487.528 340.714 486.77 340.521 486.011 340.354C485.124 340.2 484.198 340.097 483.259 340.187C484.108 340.637 484.982 340.868 485.882 341.061C486.667 341.203 487.49 341.305 488.313 341.241C488.429 341.254 488.531 341.241 488.634 341.228C488.506 341.164 488.377 341.1 488.248 341.048ZM441.994 331.211C441.942 331.43 441.878 331.648 441.814 331.88C442.624 332.021 443.434 332.098 444.295 332.008C443.562 331.61 442.778 331.391 441.994 331.211ZM451.715 390.608C450.815 390.454 449.902 390.338 448.95 390.441C449.799 390.891 450.686 391.135 451.574 391.315C452.474 391.47 453.387 391.585 454.326 391.482C453.49 391.032 452.603 390.801 451.715 390.608ZM453.361 353.676C452.461 353.535 451.548 353.406 450.596 353.522C451.445 353.972 452.332 354.203 453.22 354.396C454.133 354.551 455.033 354.653 455.972 354.563C455.136 354.1 454.249 353.869 453.361 353.676ZM500.156 390.968C499.758 390.955 499.359 390.955 498.947 390.994C499.372 391.225 499.809 391.392 500.233 391.534C500.208 391.354 500.182 391.161 500.156 390.968ZM477.601 370.638C476.714 370.47 475.788 370.355 474.849 370.458C475.698 370.908 476.572 371.139 477.46 371.332C478.36 371.499 479.286 371.602 480.224 371.499C479.376 371.062 478.501 370.805 477.601 370.638ZM454.184 323.341C453.657 322.608 453.091 321.875 452.345 321.284C452.641 322.197 453.091 322.994 453.58 323.752C454.107 324.498 454.673 325.218 455.419 325.823C455.136 324.91 454.673 324.113 454.184 323.341ZM453.708 376.206C453.181 375.447 452.615 374.74 451.87 374.135C452.152 375.048 452.603 375.833 453.117 376.604C453.631 377.35 454.197 378.07 454.93 378.675C454.66 377.762 454.21 376.977 453.708 376.206ZM480.507 390.762C479.993 390.017 479.427 389.296 478.694 388.692C478.964 389.605 479.427 390.389 479.929 391.161C480.443 391.92 481.009 392.64 481.755 393.231C481.472 392.318 481.022 391.534 480.507 390.762ZM474.078 348.905C473.563 348.159 472.997 347.439 472.252 346.835C472.534 347.748 472.997 348.532 473.486 349.304C474.013 350.05 474.566 350.783 475.325 351.374C475.029 350.461 474.579 349.677 474.078 348.905ZM442.804 342.54C442.071 343.067 441.351 343.62 440.746 344.366C441.659 344.096 442.457 343.62 443.202 343.131C443.961 342.617 444.681 342.051 445.286 341.293C444.373 341.588 443.575 342.038 442.804 342.54ZM437.66 381.298C436.927 381.812 436.207 382.378 435.603 383.124C436.516 382.841 437.313 382.391 438.072 381.889C438.817 381.362 439.537 380.809 440.142 380.063C439.229 380.333 438.432 380.784 437.66 381.298ZM464.446 362.485C463.687 362.999 462.967 363.565 462.363 364.298C463.276 364.028 464.073 363.578 464.845 363.063C465.59 362.549 466.311 361.983 466.902 361.237C465.989 361.52 465.192 361.97 464.446 362.485ZM490.203 380.192C489.444 380.706 488.737 381.285 488.133 382.031C489.046 381.735 489.843 381.285 490.589 380.784C491.348 380.256 492.068 379.703 492.672 378.958C491.759 379.228 490.962 379.703 490.203 380.192ZM472.059 327.842C471.3 328.369 470.593 328.922 469.988 329.681C470.901 329.398 471.686 328.948 472.457 328.433C473.203 327.919 473.936 327.353 474.528 326.62C473.615 326.89 472.83 327.34 472.059 327.842Z" fill="white"/>
<path d="M479.631 315.524C508.57 337.273 533.594 367.454 531.191 377.008C528.65 387.11 508.645 398.42 490.981 400.725C487.362 401.197 476.17 374.668 479.876 373.449C482.763 372.498 495.892 368.767 497.462 366.965C498.554 365.714 478.178 337.049 471.549 322.085C464.613 306.423 471.884 309.701 479.631 315.524Z" fill="#FFD9D1"/>
<path d="M487.334 372.642C487.334 372.642 476.292 373.753 469.103 374.819C465.094 375.414 458.309 377.047 455.564 378.832C451.456 381.501 435.983 395.286 439.244 399.109C442.196 402.571 446.653 397.093 446.653 397.093C446.653 397.093 441.22 402.623 445.203 405.156C449.223 407.712 454.333 400.011 454.333 400.011C454.333 400.011 448.157 405.481 452.668 407.78C456.583 409.775 463.432 401.546 463.432 401.546C463.432 401.546 456.319 406.578 460.13 409.015C464.341 411.708 476.16 400.659 476.16 400.659C485.613 401.713 491.432 401.07 498.092 399.202C499.316 398.857 487.334 372.642 487.334 372.642Z" fill="#FFD9D1"/>
<path d="M452.675 401.857C453.101 401.27 453.544 400.694 453.972 400.106C454.813 398.955 455.644 397.839 456.616 396.792C457.556 395.781 458.536 394.818 459.548 393.881C460.616 392.891 461.793 392.005 462.836 390.989C462.919 390.906 463.034 391.03 462.945 391.108C461.877 392.051 460.949 393.201 459.998 394.259C459.055 395.308 458.127 396.37 457.2 397.434C456.292 398.473 455.322 399.442 454.386 400.454C453.919 400.959 453.476 401.485 453.032 402.008C452.617 402.499 452.23 403.066 451.734 403.479C451.686 403.52 451.621 403.455 451.645 403.403C451.891 402.844 452.317 402.349 452.675 401.857Z" fill="#263238"/>
<path d="M445.547 398.266C446.075 397.159 449.4 393.014 450.313 392.005C452.078 390.055 454.025 388.254 456.141 386.694C456.215 386.64 456.312 386.744 456.251 386.813C454.494 388.776 452.705 390.716 450.92 392.655C450.047 393.603 446.217 398.03 445.757 398.443C445.647 398.544 445.489 398.385 445.547 398.266Z" fill="#263238"/>
<path d="M459.285 405.408C459.842 404.375 462.993 400.519 463.875 399.603C464.704 398.743 468.552 395.613 469.806 394.898C469.885 394.853 469.983 394.955 469.915 395.016C468.066 396.729 466.192 398.403 464.425 400.204C463.565 401.081 460.336 404.774 459.441 405.54C459.361 405.609 459.237 405.498 459.285 405.408Z" fill="#263238"/>
<path d="M511.809 342.334L489.772 356.621C489.772 356.621 473.423 331.309 469.179 319.316C464.936 307.323 469.885 307.298 481.45 315.984C493.011 324.671 511.809 342.334 511.809 342.334Z" fill="#3094C6"/>
<path d="M472.754 327.417C472.857 327.61 472.947 327.803 473.05 328.009C473.59 327.597 474.091 327.16 474.529 326.62C473.886 326.813 473.307 327.083 472.754 327.417ZM497.984 343.582C497.225 344.109 496.518 344.662 495.914 345.42C496.814 345.125 497.611 344.675 498.383 344.173C499.129 343.659 499.862 343.093 500.44 342.347C499.54 342.63 498.756 343.08 497.984 343.582ZM497.714 333.024C497.2 332.291 496.621 331.558 495.888 330.967C496.171 331.88 496.621 332.677 497.11 333.436C497.65 334.181 498.216 334.902 498.948 335.506C498.678 334.593 498.216 333.796 497.714 333.024ZM486.012 340.354C485.125 340.2 484.199 340.097 483.26 340.187C484.109 340.637 484.983 340.868 485.883 341.061C486.771 341.215 487.697 341.331 488.635 341.228C487.787 340.778 486.912 340.547 486.012 340.354ZM510.098 340.752C509.776 340.74 509.455 340.753 509.12 340.778C509.686 341.074 510.252 341.28 510.843 341.434C510.638 341.228 510.38 340.997 510.098 340.752ZM467.688 313.144C467.7 313.362 467.713 313.594 467.752 313.825C468.421 313.928 469.115 313.979 469.809 313.889C469.115 313.529 468.408 313.298 467.688 313.144ZM486.385 321.284C485.935 322.132 485.691 323.007 485.511 323.907C485.356 324.794 485.241 325.707 485.343 326.659C485.793 325.81 486.025 324.936 486.218 324.035C486.372 323.135 486.475 322.222 486.385 321.284Z" fill="white"/>
<path d="M506.8 339.176C498.394 345.863 490.098 350.43 488.454 351.556C488.375 351.608 488.299 351.477 488.38 351.428C490.052 350.409 499.039 343.802 506.72 339.037C506.809 338.981 506.881 339.112 506.8 339.176Z" fill="#263238"/>
<path d="M491.185 355.644C491.037 355.667 490.051 356.22 489.846 356.339C487.395 352.111 484.756 347.829 482.267 343.623C481.047 341.561 479.824 339.503 478.607 337.44C477.343 335.295 476.19 333.051 474.81 330.978C474.769 330.916 474.686 330.968 474.713 331.033C475.565 333.087 476.669 335.057 477.721 337.022C477.496 336.721 477.281 336.412 477.038 336.123C476.496 335.476 475.962 334.828 475.471 334.14C475.395 334.035 475.219 334.135 475.295 334.242C475.763 334.899 476.182 335.578 476.599 336.268C477.016 336.96 477.47 337.616 477.935 338.277C478.382 338.914 478.871 339.515 479.363 340.119C479.424 340.192 479.483 340.268 479.542 340.341C480.215 341.57 480.87 342.807 481.57 344.023C484.021 348.275 489.584 356.845 489.66 356.82C489.958 356.722 491.137 355.86 491.256 355.762C491.313 355.713 491.247 355.633 491.185 355.644Z" fill="#263238"/>
<path d="M443.361 316.533C420.073 329.121 398.265 344.318 394.295 354.695C391.796 361.223 395.2 372.925 397.938 379.955C399.27 383.379 431.532 369.446 428.787 366.637C421.996 359.687 420.889 356.872 421.58 355.431C422.021 354.511 447.356 331.781 454.403 321.605C464.22 307.426 453.549 311.026 443.361 316.533Z" fill="#FFD9D1"/>
<path d="M441.575 398.292C438.536 400.064 434.803 392.2 434.803 392.2C434.803 392.2 434.733 394.629 433.057 396.255C431.137 398.115 427.377 395.922 427.377 395.922C427.377 395.922 426.797 398.365 424.854 399.904C422.838 401.5 418.728 399.828 418.728 399.828C418.728 399.828 416.937 401.807 414.304 401.933C409.802 402.147 405.881 396.489 403.352 392.918C400.823 389.347 396.994 376.847 396.023 374.54L418.805 358.111C418.805 358.111 434.702 370.899 437.079 375.52C439.082 379.412 446.22 395.583 441.575 398.292Z" fill="#FFD9D1"/>
<path d="M434.855 392.087C433.72 387.437 431.472 383.067 429.257 378.875C429.208 378.781 429.062 378.861 429.113 378.954C431.364 383.097 432.561 387.942 434.643 392.168C434.699 392.285 434.885 392.213 434.855 392.087Z" fill="#263238"/>
<path d="M427.624 395.633C427.335 394.589 426.704 393.643 426.155 392.72C425.564 391.726 424.956 390.742 424.334 389.767C423.086 387.816 421.795 385.894 420.448 384.011C420.388 383.928 420.246 383.998 420.304 384.09C421.543 386.037 422.753 388.001 423.909 389.997C424.488 390.996 425.058 392.001 425.622 393.009C426.147 393.946 426.621 394.979 427.345 395.784C427.452 395.902 427.668 395.79 427.624 395.633Z" fill="#263238"/>
<path d="M418.679 399.743C418.464 398.825 417.733 397.964 417.216 397.191C416.629 396.314 416.047 395.434 415.471 394.551C414.317 392.784 413.164 391.017 412.073 389.211C412.019 389.121 411.874 389.199 411.929 389.29C413.029 391.13 414.103 392.986 415.219 394.816C415.767 395.714 416.32 396.611 416.878 397.503C417.352 398.262 417.859 399.265 418.593 399.805C418.634 399.836 418.69 399.79 418.679 399.743Z" fill="#263238"/>
<path d="M409.736 335.373L427.204 351.953C427.204 351.953 449.492 331.562 455.859 320.548C462.225 309.535 457.365 308.603 444.406 315.026C431.449 321.449 409.736 335.373 409.736 335.373Z" fill="#3094C6"/>
<path d="M440.541 319.252C439.795 319.766 439.088 320.332 438.483 321.078C439.384 320.795 440.181 320.345 440.939 319.831C441.698 319.316 442.418 318.75 443.01 318.017C442.11 318.287 441.312 318.737 440.541 319.252ZM429.392 343.685C428.865 342.939 428.312 342.219 427.566 341.627C427.849 342.527 428.312 343.312 428.8 344.083C429.315 344.842 429.88 345.562 430.639 346.154C430.343 345.253 429.893 344.456 429.392 343.685ZM452.346 321.284C452.641 322.197 453.092 322.994 453.58 323.753C453.606 323.791 453.632 323.83 453.67 323.868C453.825 323.663 453.979 323.444 454.107 323.238C453.606 322.544 453.053 321.849 452.346 321.284ZM441.672 331.134C440.772 330.98 439.872 330.864 438.908 330.967C439.756 331.417 440.644 331.648 441.544 331.841C442.444 331.995 443.344 332.111 444.296 332.008C443.46 331.558 442.56 331.327 441.672 331.134ZM416.52 336.123C415.607 335.982 414.706 335.853 413.755 335.969C414.604 336.419 415.491 336.65 416.378 336.843C417.278 336.985 418.178 337.101 419.13 337.011C418.294 336.548 417.407 336.316 416.52 336.123ZM428.697 328.241C428.247 329.089 428.016 329.964 427.823 330.864C427.669 331.751 427.553 332.677 427.656 333.616C428.106 332.767 428.337 331.893 428.53 330.992C428.685 330.105 428.787 329.179 428.697 328.241Z" fill="white"/>
<path d="M430.71 347.488C422.658 340.872 416.691 333.956 415.293 332.625C415.228 332.562 415.341 332.465 415.404 332.533C416.703 333.907 424.785 341.084 430.831 347.385C430.902 347.459 430.787 347.553 430.71 347.488Z" fill="#263238"/>
<path d="M443.942 327.707C443.104 329.561 442.273 331.415 441.581 333.326C441.59 333.199 441.597 333.072 441.606 332.944C441.679 331.771 441.835 330.623 442.078 329.473C442.105 329.346 441.908 329.293 441.881 329.421C441.638 330.57 441.423 331.735 441.257 332.899C441.178 333.459 441.135 334.023 441.102 334.586C441.098 334.644 441.089 334.719 441.081 334.788C441.073 334.813 441.064 334.836 441.057 334.86C440.267 337.4 439.779 339.998 439.103 342.564C439.07 342.692 439.267 342.743 439.3 342.617C439.962 340.102 440.932 337.661 441.778 335.202C442.623 332.746 443.296 330.239 444.103 327.772C444.13 327.681 443.982 327.617 443.942 327.707Z" fill="#263238"/>
<path d="M458.264 321.11C462.11 321.852 468.405 315.76 470.79 310.937C470.952 310.605 470.315 307.218 469.735 303.064C469.393 300.543 469.071 297.726 468.963 295.137C468.944 294.604 452.88 299.76 452.88 299.76C452.88 299.76 454.703 305.123 454.863 309.641C454.872 310.019 454.85 310.371 454.796 310.708C454.792 310.757 454.78 310.817 454.779 310.885C454.534 312.918 454.548 320.39 458.264 321.11Z" fill="#FFD9D1"/>
<path d="M467.966 295.245C467.395 299.655 465.11 310.35 456.449 310.907C455.846 310.947 455.291 310.939 454.783 310.887C454.775 310.815 454.79 310.761 454.796 310.708C454.844 310.368 454.873 310.02 454.866 309.643C454.704 305.118 452.877 299.754 452.877 299.754C452.877 299.754 464.467 296.037 467.966 295.245Z" fill="#263238"/>
<path d="M466.437 273.755C469.536 278.926 470.602 295.826 467.519 300.42C463.047 307.08 453.726 309.929 447.562 304.097C441.588 298.444 440.589 276.395 444.22 272.015C449.567 265.561 461.859 266.117 466.437 273.755Z" fill="#FFD9D1"/>
<path d="M454.292 289.463C454.298 289.419 454.384 289.511 454.386 289.558C454.427 290.699 454.666 291.998 455.722 292.305C455.754 292.314 455.755 292.372 455.717 292.369C454.449 292.278 454.148 290.551 454.292 289.463Z" fill="#263238"/>
<path d="M455.227 288.205C457.048 287.942 457.44 291.603 455.753 291.847C454.094 292.088 453.7 288.427 455.227 288.205Z" fill="#263238"/>
<path d="M447.948 290.178C447.935 290.136 447.864 290.241 447.87 290.287C448.027 291.418 448.018 292.738 447.033 293.224C447.002 293.24 447.011 293.296 447.049 293.287C448.283 292.978 448.278 291.224 447.948 290.178Z" fill="#263238"/>
<path d="M446.808 289.102C444.969 289.16 445.219 292.832 446.922 292.78C448.599 292.728 448.35 289.054 446.808 289.102Z" fill="#263238"/>
<path d="M456.605 285.129C456.088 285.149 455.608 285.081 455.095 285.046C454.517 285.007 454.051 285.037 453.571 284.668C453.314 284.47 453.259 283.995 453.427 283.728C453.821 283.104 454.541 282.974 455.241 282.992C455.999 283.012 456.578 283.22 457.153 283.712C457.711 284.189 457.286 285.104 456.605 285.129Z" fill="#263238"/>
<path d="M444.843 286.611C445.341 286.473 445.779 286.264 446.257 286.077C446.798 285.866 447.25 285.754 447.596 285.258C447.781 284.992 447.691 284.524 447.449 284.318C446.887 283.842 446.161 283.935 445.5 284.162C444.782 284.408 444.292 284.782 443.892 285.425C443.505 286.048 444.185 286.791 444.843 286.611Z" fill="#263238"/>
<path d="M457.316 299.798C457.073 300.093 456.842 300.487 456.434 300.566C456.043 300.642 455.561 300.513 455.184 300.412C455.147 300.401 455.115 300.444 455.142 300.475C455.483 300.878 456.132 301.084 456.648 300.936C457.152 300.791 457.358 300.32 457.432 299.838C457.441 299.77 457.352 299.755 457.316 299.798Z" fill="#263238"/>
<path d="M455.76 296.531C455.232 297.582 454.356 298.222 453.367 298.525C452.926 298.664 452.454 298.731 451.985 298.737C451.893 298.745 451.801 298.745 451.716 298.736C451.632 298.735 451.556 298.733 451.464 298.724C451.329 298.719 451.245 298.618 451.209 298.495V298.488C451.205 298.447 451.203 298.413 451.208 298.371C451.208 298.371 451.208 298.371 451.207 298.362L451.198 298.263C451.081 297.392 451.023 296.055 451.023 296.055C450.721 296.249 449.172 297.156 449.149 296.696C448.969 292.896 448.77 288.67 449.394 284.85C449.408 284.723 449.601 284.732 449.603 284.857C449.921 288.502 449.594 292.179 449.854 295.846C450.352 295.593 451.159 295.138 451.617 295.097C451.744 295.12 451.682 297.683 451.766 298.07C451.766 298.07 451.767 298.086 451.778 298.111C453.264 298.14 454.322 297.579 455.642 296.442C455.72 296.366 455.819 296.433 455.76 296.531Z" fill="#263238"/>
<path d="M452.452 298.24C452.452 298.24 453.338 299.202 454.439 299.465C454.844 299.564 455.271 299.573 455.699 299.409C456.579 299.073 456.513 298.24 456.27 297.547C456.072 296.976 455.748 296.501 455.748 296.501C455.748 296.501 454.559 297.881 452.452 298.24Z" fill="#263238"/>
<path d="M454.439 299.464C454.844 299.563 455.271 299.572 455.699 299.407C456.579 299.072 456.513 298.238 456.27 297.545C455.309 297.75 454.419 298.512 454.439 299.464Z" fill="#FF98B9"/>
<path d="M469.255 288.001C465.072 288.931 462.546 281.526 462.546 281.526C462.546 281.526 455.103 281.972 452.839 276.804C452.839 276.804 447.009 282.693 441.214 281.96C435.418 281.227 435.174 274.915 435.475 273.485C435.776 272.055 439.289 273.791 439.289 273.791C439.289 273.791 438.854 270.287 439.691 269.73C440.528 269.174 441.992 271.024 441.992 271.024C441.992 271.024 448.369 267.15 454.671 265.914C460.973 264.678 465.499 270.289 465.499 270.289C465.499 270.289 469.007 270.244 470.622 272.343C472.237 274.442 471.92 287.408 469.255 288.001Z" fill="#263238"/>
<path d="M452.689 275.747C452.974 276.855 453.424 277.908 454.068 278.807C454.728 279.693 455.589 280.406 456.6 280.82C457.617 281.225 458.726 281.346 459.843 281.351C460.401 281.335 460.962 281.264 461.525 281.213C462.083 281.117 462.639 281.004 463.211 280.923C462.676 281.124 462.127 281.292 461.579 281.479C461.015 281.587 460.445 281.708 459.867 281.777C458.706 281.875 457.507 281.767 456.388 281.332C455.284 280.867 454.333 280.05 453.716 279.043C453.105 278.035 452.749 276.893 452.689 275.747Z" fill="#263238"/>
<path d="M465.732 271.133C464.913 269.468 463.718 267.987 462.206 266.98C460.705 265.958 458.891 265.469 457.085 265.556C456.635 265.598 456.176 265.555 455.731 265.658L454.391 265.933C453.509 266.161 452.657 266.517 451.792 266.826C450.968 267.236 450.114 267.596 449.308 268.048C448.508 268.514 447.716 268.998 446.899 269.453C447.643 268.895 448.409 268.362 449.168 267.814C449.953 267.309 450.8 266.899 451.616 266.436C453.329 265.689 455.145 265.027 457.07 265.002C458.969 264.953 460.924 265.478 462.451 266.633C463.988 267.766 465.121 269.374 465.732 271.133Z" fill="#263238"/>
<path d="M466.259 287.789C466.259 287.789 468.737 281.701 471.418 282.469C474.099 283.237 473.069 291.478 470.509 293.156C467.947 294.834 466.347 292.494 466.347 292.494L466.259 287.789Z" fill="#FFD9D1"/>
<path d="M471.065 284.824C471.108 284.809 471.132 284.87 471.097 284.896C469.316 286.136 468.697 288.191 468.403 290.241C468.821 289.382 469.525 288.803 470.656 289.277C470.715 289.301 470.684 289.392 470.626 289.394C469.784 289.404 469.235 289.675 468.839 290.443C468.558 290.986 468.426 291.622 468.27 292.211C468.219 292.408 467.881 292.386 467.901 292.169C467.903 292.153 467.905 292.135 467.908 292.12C467.288 289.629 468.436 285.686 471.065 284.824Z" fill="#263238"/>
<path d="M472.845 311.981C471.175 314.278 469.59 316.615 467.674 318.706C465.88 320.665 463.689 322.475 461.061 322.951C458.516 323.412 455.907 323.113 454.684 320.058C453.714 317.634 453.614 315.061 453.773 311.837C453.78 311.69 453.588 311.675 453.581 311.824C453.358 315.982 453.303 322.396 457.161 323.487C461.475 324.709 465.38 322.199 468.063 319.059C469.878 316.933 471.613 314.541 472.926 312.039C472.952 311.987 472.879 311.935 472.845 311.981Z" fill="#263238"/>
<path d="M480.589 407.089H406.516V410.411H480.589V407.089Z" fill="#C7C7C7"/>
<path d="M464.739 407.089L467.275 410.41H406.516V407.089H464.739Z" fill="#A6A6A6"/>
<path d="M461.57 410.408H389.38L383.371 361.379H455.561L461.57 410.408Z" fill="#C7C7C7"/>
<path d="M426.865 385.893C426.907 388.319 424.975 390.287 422.548 390.287C420.121 390.287 418.119 388.319 418.077 385.893C418.034 383.466 419.967 381.499 422.394 381.499C424.82 381.499 426.821 383.466 426.865 385.893Z" fill="white"/>
<defs>
<filter id="filter0_d_358_3393" x="412.078" y="154.999" width="159.213" height="159.213" filterUnits="userSpaceOnUse" color-interpolation-filters="sRGB">
<feFlood flood-opacity="0" result="BackgroundImageFix"/>
<feColorMatrix in="SourceAlpha" type="matrix" values="0 0 0 0 0 0 0 0 0 0 0 0 0 0 0 0 0 0 127 0" result="hardAlpha"/>
<feOffset dy="20"/>
<feGaussianBlur stdDeviation="22"/>
<feComposite in2="hardAlpha" operator="out"/>
<feColorMatrix type="matrix" values="0 0 0 0 0.0302781 0 0 0 0 0.253135 0 0 0 0 0.364563 0 0 0 0.45 0"/>
<feBlend mode="normal" in2="BackgroundImageFix" result="effect1_dropShadow_358_3393"/>
<feBlend mode="normal" in="SourceGraphic" in2="effect1_dropShadow_358_3393" result="shape"/>
</filter>
<filter id="filter1_d_358_3393" x="0.078125" y="-0.000976562" width="159.213" height="159.213" filterUnits="userSpaceOnUse" color-interpolation-filters="sRGB">
<feFlood flood-opacity="0" result="BackgroundImageFix"/>
<feColorMatrix in="SourceAlpha" type="matrix" values="0 0 0 0 0 0 0 0 0 0 0 0 0 0 0 0 0 0 127 0" result="hardAlpha"/>
<feOffset dy="20"/>
<feGaussianBlur stdDeviation="22"/>
<feComposite in2="hardAlpha" operator="out"/>
<feColorMatrix type="matrix" values="0 0 0 0 0.0302781 0 0 0 0 0.253135 0 0 0 0 0.364563 0 0 0 0.45 0"/>
<feBlend mode="normal" in2="BackgroundImageFix" result="effect1_dropShadow_358_3393"/>
<feBlend mode="normal" in="SourceGraphic" in2="effect1_dropShadow_358_3393" result="shape"/>
</filter>
<clipPath id="clip0_358_3393">
<rect width="52.7812" height="52.7812" fill="white" transform="translate(53.2949 33.2147)"/>
</clipPath>
</defs>
</svg>
