<svg width="100" height="100" viewBox="0 0 100 100" fill="none" xmlns="http://www.w3.org/2000/svg">
	<path
		d="M79.7245 66.3356C75.7659 66.3356 72.5566 63.1263 72.5566 59.1678V47.5667H86.8924V59.1678C86.8924 63.1263 83.6831 66.3356 79.7245 66.3356Z"
		fill="#00AAFF" />
	<path
		d="M53.0486 59.6853C53.0486 66.2146 47.7554 71.5079 41.226 71.5079C34.6967 71.5079 29.4028 66.2146 29.4028 59.6853C29.4028 53.1553 34.6967 47.8621 41.226 47.8621C47.7554 47.8621 53.0486 53.1553 53.0486 59.6853Z"
		fill="#00AAFF" />
	<path d="M22.3096 18.379H24.5262V20.5957H22.3096V18.379Z" fill="white" />
	<path d="M65.6104 18.379H67.827V20.5957H65.6104V18.379Z" fill="white" />
	<path
		d="M67.827 60.5718H65.6104V58.3551H67.827V60.5718ZM67.827 56.1379H65.6104V53.9213H67.827V56.1379ZM67.827 51.7047H65.6104V49.488H67.827V51.7047ZM67.827 47.2708H65.6104V45.0542H67.827V47.2708Z"
		fill="white" />
	<path
		d="M27.9786 37.2956C24.4042 37.2956 21.4966 34.3874 21.4966 30.813H23.7132C23.7132 33.1652 25.6265 35.0784 27.9786 35.0784C30.3308 35.0784 32.2446 33.1652 32.2446 30.813V22.1472H34.4613V30.813C34.4613 34.3874 31.553 37.2956 27.9786 37.2956Z"
		fill="black" />
	<path
		d="M44.2019 37.2956C40.1274 37.2956 36.8125 33.9808 36.8125 29.9063V28.9655C36.8125 24.891 40.1274 21.5762 44.2019 21.5762C48.2764 21.5762 51.5912 24.891 51.5912 28.9655V29.9063C51.5912 33.9808 48.2764 37.2956 44.2019 37.2956ZM44.2019 23.7934C41.3496 23.7934 39.0297 26.1138 39.0297 28.9655V29.9063C39.0297 32.758 41.3496 35.0784 44.2019 35.0784C47.0541 35.0784 49.3746 32.758 49.3746 29.9063V28.9655C49.3746 26.1138 47.0541 23.7934 44.2019 23.7934Z"
		fill="black" />
	<path
		d="M60.9959 30.6452H53.7139V21.7781H60.9959C63.4404 21.7781 65.4292 23.7669 65.4292 26.2113C65.4292 28.6564 63.4404 30.6452 60.9959 30.6452ZM55.9311 28.428H60.9959C62.2182 28.428 63.2126 27.4336 63.2126 26.2113C63.2126 24.9891 62.2182 23.9947 60.9959 23.9947H55.9311V28.428Z"
		fill="black" />
	<path
		d="M60.9959 37.2957H53.7139V28.428H60.9959C63.4404 28.428 65.4292 30.4174 65.4292 32.8618C65.4292 35.3063 63.4404 37.2957 60.9959 37.2957ZM55.9311 35.0785H60.9959C62.2182 35.0785 63.2126 34.0841 63.2126 32.8618C63.2126 31.6396 62.2182 30.6452 60.9959 30.6452H55.9311V35.0785Z"
		fill="black" />
	<path
		d="M54.1571 59.6853C54.1571 52.5549 48.3562 46.754 41.2259 46.754C40.8423 46.754 40.4553 46.7708 40.0757 46.8042L40.2707 49.0122C40.5856 48.9845 40.9069 48.9707 41.2259 48.9707C47.134 48.9707 51.9405 53.7771 51.9405 59.6853C51.9405 65.5934 47.134 70.3998 41.2259 70.3998C39.2296 70.3998 37.2823 69.8473 35.5946 68.8027L34.4277 70.6871C36.4661 71.9491 38.8172 72.6165 41.2259 72.6165C48.3562 72.6165 54.1571 66.8156 54.1571 59.6853Z"
		fill="black" />
	<path
		d="M38.2984 49.3749L37.6945 47.2419C32.1596 48.8097 28.2944 53.9264 28.2944 59.6846C28.2944 63.304 29.8264 66.7821 32.4981 69.2266L33.9943 67.5914C31.7806 65.5656 30.5111 62.684 30.5111 59.6852C30.5111 54.9133 33.7134 50.6739 38.2984 49.3749Z"
		fill="black" />
	<path d="M18.9837 16.1618H46.6937V13.9452H16.7671V42.394H18.9837V16.1618Z" fill="black" />
	<path
		d="M73.6649 46.4581V13.9452H45.7302L41.6775 16.1618H71.4483V59.1678C71.4483 61.5587 72.4687 63.7147 74.0952 65.2271H59.2364C59.7768 63.4742 60.0687 61.6129 60.0687 59.6852C60.0687 54.944 58.3014 50.4138 55.0932 46.9276L53.462 48.429C56.293 51.5045 57.852 55.5017 57.852 59.6852C57.852 68.8523 50.3935 76.3108 41.2259 76.3108C32.0582 76.3108 24.6003 68.8523 24.6003 59.6852C24.6003 50.5176 32.0582 43.059 41.2259 43.059C45.1556 43.059 48.9688 44.4555 51.9629 46.9905L53.3957 45.2987C50.0013 42.4251 45.6793 40.8424 41.2259 40.8424C30.836 40.8424 22.383 49.2948 22.383 59.6852C22.383 61.5996 22.6709 63.4483 23.2044 65.1902C20.8297 64.9018 18.984 62.8749 18.984 60.4241V37.0779L16.7673 40.5535V60.4241C16.7673 64.2944 19.9167 67.4437 23.787 67.4437H24.0558C24.2536 67.8809 24.4687 68.3083 24.6983 68.7265L14.2214 79.1596C13.0718 80.3092 12.4385 81.8377 12.4385 83.4631C12.4385 85.0891 13.0718 86.6176 14.2214 87.7672C15.4078 88.9537 16.9669 89.5472 18.5254 89.5472C20.0833 89.5472 21.6419 88.9542 22.8272 87.7689L33.6883 76.9528C35.9978 77.9645 38.5472 78.528 41.2259 78.528C48.8517 78.528 55.4335 73.9742 58.396 67.4437H80.8017L80.8045 67.3711C84.8589 66.8398 88.0001 63.3652 88.0001 59.1678V46.4581H73.6649ZM21.2612 86.1994C19.7523 87.7089 17.2974 87.7084 15.7885 86.1994C15.0577 85.4687 14.6551 84.4967 14.6551 83.4631C14.6551 82.4295 15.0577 81.4576 15.7868 80.7285L25.9038 70.6548C27.426 72.7803 29.3663 74.5603 31.6112 75.8927L21.2612 86.1994ZM85.7835 59.1678C85.7835 62.4642 83.1365 65.1527 79.8569 65.2236L79.6758 65.2259C76.3569 65.1994 73.6649 62.4925 73.6649 59.1678V48.6747H85.7835V59.1678Z"
		fill="black" />
</svg>