<svg width="513" height="512" viewBox="0 0 513 512" fill="none" xmlns="http://www.w3.org/2000/svg">
<g opacity="0.95">
<g clip-path="url(#clip0_358_3294)">
<path d="M380.516 39.243C313.823 39.243 97.9363 39.243 30.8493 39.243C14.1923 39.243 0.611328 52.739 0.611328 69.481C0.611328 87.293 0.611328 429.071 0.611328 442.853C0.611328 459.512 14.1083 473.091 30.8493 473.091C45.8103 473.091 116.233 473.091 131.23 473.091C168.539 473.091 342.524 473.091 380.516 473.091C390.848 473.091 400.097 467.891 405.59 459.759C413.228 448.453 409.985 438.308 410.754 427.05V419.147C410.754 305.46 410.754 172.987 410.754 69.481C410.754 52.82 397.255 39.243 380.516 39.243Z" fill="#1B3B4C"/>
<path d="M31.7903 442.853C31.7903 355.384 31.7903 157.318 31.7903 69.481C31.7903 52.781 45.3283 39.243 62.0283 39.243C42.7263 39.243 50.1493 39.243 30.8503 39.243C14.1513 39.243 0.612305 52.78 0.612305 69.481C0.612305 88.471 0.612305 424.016 0.612305 442.853C0.612305 459.512 14.1093 473.091 30.8503 473.091C50.1493 473.091 42.7263 473.091 62.0283 473.091C45.3933 473.091 31.7903 459.615 31.7903 442.853Z" fill="#10181F"/>
<rect x="54.5005" y="324" width="30.87" height="6" fill="#C08930"/>
<rect x="54.5005" y="362" width="30.87" height="6" fill="#BF1E62"/>
<rect x="54.5005" y="400" width="30.87" height="6" fill="#D9D9D9"/>
<rect x="54.5005" y="286" width="30.87" height="6" fill="white"/>
<rect x="54.5005" y="248" width="30.87" height="6" fill="#D9D9D9"/>
<rect x="54.5005" y="210" width="30.87" height="6" fill="#C08930"/>
<rect x="54.5005" y="172" width="30.87" height="6" fill="#D9D9D9"/>
<path d="M410.754 69.481C410.754 52.781 397.216 39.243 380.516 39.243H219.755C11.5433 39.243 20.3383 36.091 8.46633 49.15C3.58633 54.52 0.611328 61.653 0.611328 69.481V120.976H219.755H410.754V69.481Z" fill="white"/>
<path d="M31.7906 69.481C31.7906 52.752 45.3566 39.244 62.0266 39.243C34.9766 39.378 12.0896 34.626 2.71557 58.382C-0.00442863 65.274 0.494572 65.244 0.613572 120.976H31.7916C31.7906 112.771 31.7906 82.324 31.7906 69.481Z" fill="#D9D9D9"/>
<path d="M501.086 276H170.914C164.636 276 159.5 270.394 159.5 263.542V179.458C159.5 172.605 164.637 167 170.914 167H501.086C507.364 167 512.5 172.606 512.5 179.458V263.542C512.5 270.395 507.363 276 501.086 276Z" fill="#10181F"/>
<path d="M160.927 414.682V331.202C160.927 324.399 166.493 318.834 173.295 318.834H142.374C135.571 318.834 130.006 324.4 130.006 331.202V414.682C130.006 421.485 135.572 427.05 142.374 427.05H173.295C166.493 427.05 160.927 421.485 160.927 414.682Z" fill="#1F5773"/>
<path d="M501.086 427H170.914C164.636 427 159.5 421.445 159.5 414.657V331.343C159.5 324.554 164.637 319 170.914 319H501.086C507.364 319 512.5 324.555 512.5 331.343V414.657C512.5 421.446 507.363 427 501.086 427Z" fill="#10181F"/>
<path d="M160.927 263.179V179.699C160.927 172.896 166.493 167.331 173.295 167.331H142.374C135.571 167.331 130.006 172.897 130.006 179.699V263.179C130.006 269.982 135.572 275.547 142.374 275.547H173.295C166.493 275.547 160.927 269.982 160.927 263.179Z" fill="#3094C6"/>
<rect x="184.5" y="198" width="31" height="6" fill="#D9D9D9"/>
<rect x="234.5" y="198" width="113" height="6" fill="#BF1E62"/>
<rect x="366.5" y="198" width="45" height="6" fill="#D9D9D9"/>
<rect x="430.5" y="198" width="63" height="6" fill="white"/>
<rect x="184.5" y="218" width="113" height="6" fill="#C08930"/>
<rect x="316.5" y="218" width="31" height="6" fill="#D9D9D9"/>
<rect x="366.5" y="218" width="63" height="6" fill="#10AFFF"/>
<rect x="448.5" y="218" width="45" height="6" fill="#1F5773"/>
<rect x="184.5" y="238" width="31" height="6" fill="#D9D9D9"/>
<path d="M234.5 238H291H347.5V244H234.5V238Z" fill="white"/>
<rect x="366.5" y="238" width="63" height="6" fill="#BF1E62"/>
<rect x="448.5" y="238" width="45" height="6" fill="#1F5773"/>
<path d="M266.462 369.554L252.653 356.034C252.653 356.033 252.653 356.033 252.653 356.033C251.245 354.656 248.946 354.656 247.538 356.033L266.462 369.554ZM266.462 369.554C266.462 369.555 266.462 369.555 266.462 369.555C267.846 370.911 267.846 373.09 266.462 374.446M266.462 369.554V374.446M266.462 374.446L252.653 387.967C251.954 388.651 251.032 389 250.096 389C249.159 389 248.238 388.651 247.538 387.967C246.154 386.61 246.154 384.431 247.538 383.075L257.391 373.429L258.85 372L257.391 370.571L247.538 360.925C247.538 360.924 247.538 360.924 247.538 360.924C246.154 359.568 246.154 357.39 247.538 356.034L266.462 374.446Z" fill="#F9F9F9" stroke="#10181F" stroke-width="4"/>
<path d="M188.538 369.554L202.347 356.034C202.347 356.033 202.347 356.033 202.347 356.033C203.755 354.656 206.054 354.656 207.462 356.033L188.538 369.554ZM188.538 369.554C188.538 369.555 188.538 369.555 188.538 369.555C187.154 370.911 187.154 373.09 188.538 374.446M188.538 369.554V374.446M188.538 374.446L202.347 387.967C203.046 388.651 203.968 389 204.904 389C205.841 389 206.762 388.651 207.462 387.967C208.846 386.61 208.846 384.431 207.462 383.075L197.609 373.429L196.15 372L197.609 370.571L207.462 360.925C207.462 360.924 207.462 360.924 207.462 360.924C208.846 359.568 208.846 357.39 207.462 356.034L188.538 374.446Z" fill="#F9F9F9" stroke="#10181F" stroke-width="4"/>
<path d="M215.716 392.301C215.052 394.079 215.973 396.1 217.891 396.781C219.849 397.473 221.933 396.462 222.602 394.672L215.716 392.301ZM215.716 392.301C215.716 392.301 215.716 392.301 215.716 392.301L231.398 350.327C232.071 348.525 234.163 347.531 236.108 348.218L215.716 392.301ZM236.109 348.219C238.027 348.899 238.948 350.92 238.284 352.698C238.284 352.698 238.284 352.698 238.284 352.698L222.603 394.671L236.109 348.219Z" fill="#F9F9F9" stroke="#10181F" stroke-width="4"/>
<path d="M45.4126 87.841C43.3826 87.841 41.3826 87.016 39.9506 85.573C38.5076 84.14 37.6826 82.141 37.6826 80.111C37.6826 73.834 44.7106 70.304 49.7006 73.679C50.1236 73.968 50.5246 74.287 50.8756 74.647C52.3186 76.08 53.1426 78.079 53.1426 80.11C53.1426 82.14 52.3186 84.139 50.8756 85.572C50.5246 85.932 50.1236 86.252 49.7006 86.53C49.2886 86.809 48.8346 87.055 48.3706 87.242C47.9066 87.437 47.4226 87.592 46.9276 87.685C46.4226 87.788 45.9176 87.841 45.4126 87.841Z" fill="#F94A46"/>
<path d="M71.6123 87.8411C71.1073 87.8411 70.6013 87.789 70.1073 87.686C69.6123 87.593 69.1283 87.438 68.6643 87.243C68.1903 87.057 67.7473 86.81 67.3243 86.531C66.9013 86.253 66.5103 85.933 66.1493 85.573C64.7063 84.14 63.8823 82.1411 63.8823 80.1111C63.8823 78.0801 64.7063 76.0811 66.1493 74.6481C66.5103 74.2881 66.9013 73.9691 67.3243 73.6801C67.7473 73.4011 68.1903 73.1651 68.6643 72.9681C69.1283 72.7831 69.6123 72.6281 70.1073 72.5251C71.0973 72.3291 72.1283 72.3291 73.1273 72.5251C73.6223 72.6281 74.1063 72.7831 74.5703 72.9681C75.0443 73.1641 75.4883 73.4011 75.9103 73.6801C76.3323 73.9691 76.7243 74.2881 77.0853 74.6481C78.5183 76.0811 79.3533 78.0801 79.3533 80.1111C79.3533 82.1411 78.5183 84.14 77.0853 85.573C76.7253 85.933 76.3333 86.253 75.9103 86.531C75.4873 86.81 75.0443 87.056 74.5703 87.243C74.1063 87.438 73.6223 87.593 73.1273 87.686C72.6223 87.788 72.1173 87.8411 71.6123 87.8411Z" fill="#FFB70D"/>
<path d="M97.8228 87.841C97.3178 87.841 96.8128 87.7889 96.3078 87.6859C95.8128 87.5929 95.3288 87.4379 94.8648 87.2429C94.4018 87.0569 93.9478 86.8099 93.5248 86.5309C93.1018 86.2529 92.7108 85.9329 92.3498 85.5729C90.9178 84.1399 90.0928 82.141 90.0928 80.111C90.0928 79.606 90.1448 79.1 90.2368 78.595C90.3398 78.111 90.4838 77.617 90.6798 77.153C90.8758 76.689 91.1128 76.2349 91.3908 75.8229C91.6688 75.3899 91.9988 74.999 92.3488 74.647C92.7098 74.287 93.1008 73.968 93.5238 73.679C93.9468 73.4 94.3998 73.164 94.8638 72.967C95.3278 72.782 95.8128 72.627 96.3068 72.524C97.3058 72.328 98.3368 72.328 99.3258 72.524C99.8208 72.627 100.305 72.782 100.769 72.967C101.244 73.163 101.687 73.4 102.109 73.679C102.532 73.968 102.923 74.287 103.284 74.647C103.644 74.998 103.964 75.3899 104.242 75.8229C104.52 76.2349 104.768 76.689 104.953 77.153C105.149 77.617 105.293 78.111 105.396 78.595C105.499 79.1 105.55 79.606 105.55 80.111C105.55 82.151 104.726 84.1399 103.283 85.5729C102.922 85.9329 102.531 86.2529 102.108 86.5309C101.685 86.8099 101.242 87.0559 100.768 87.2429C100.304 87.4379 99.8198 87.5929 99.3248 87.6859C98.8328 87.7879 98.3278 87.841 97.8228 87.841Z" fill="#92B620"/>
<path d="M314.325 87.84H130.005C125.736 87.84 122.275 84.38 122.275 80.11C122.275 75.84 125.736 72.38 130.005 72.38H314.325C318.594 72.38 322.055 75.841 322.055 80.11C322.055 84.379 318.594 87.84 314.325 87.84Z" fill="#D9D9D9"/>
<path d="M373.116 87.84H341.509C337.24 87.84 333.779 84.38 333.779 80.11C333.779 75.84 337.24 72.38 341.509 72.38H373.116C377.385 72.38 380.846 75.841 380.846 80.11C380.846 84.379 377.385 87.84 373.116 87.84Z" fill="#D9D9D9"/>
</g>
</g>
<defs>
<clipPath id="clip0_358_3294">
<rect width="511.999" height="511.999" fill="white" transform="translate(0.500488)"/>
</clipPath>
</defs>
</svg>
