<svg width="512" height="512" viewBox="0 0 512 512" fill="none" xmlns="http://www.w3.org/2000/svg">
	<g opacity="0.95">
		<g clip-path="url(#clip0_236_760)">
			<path
				d="M380.016 39.243C313.323 39.243 97.4358 39.243 30.3488 39.243C13.6918 39.243 0.11084 52.739 0.11084 69.481C0.11084 87.293 0.11084 429.071 0.11084 442.853C0.11084 459.512 13.6078 473.091 30.3488 473.091C45.3098 473.091 115.733 473.091 130.73 473.091C168.039 473.091 342.024 473.091 380.016 473.091C390.348 473.091 399.597 467.891 405.09 459.759C412.728 448.453 409.485 438.308 410.254 427.05V419.147C410.254 305.46 410.254 172.987 410.254 69.481C410.254 52.82 396.755 39.243 380.016 39.243Z"
				fill="#1B3B4C" />
			<path
				d="M31.2898 442.853C31.2898 355.384 31.2898 157.318 31.2898 69.481C31.2898 52.781 44.8278 39.243 61.5278 39.243C42.2258 39.243 49.6488 39.243 30.3498 39.243C13.6508 39.243 0.111816 52.78 0.111816 69.481C0.111816 88.471 0.111816 424.016 0.111816 442.853C0.111816 459.512 13.6088 473.091 30.3498 473.091C49.6488 473.091 42.2258 473.091 61.5278 473.091C44.8928 473.091 31.2898 459.615 31.2898 442.853Z"
				fill="#10181F" />
			<rect x="54" y="324" width="30.87" height="6" fill="#C08930" />
			<rect x="54" y="362" width="30.87" height="6" fill="#BF1E62" />
			<rect x="54" y="400" width="30.87" height="6" fill="#D9D9D9" />
			<rect x="54" y="286" width="30.87" height="6" fill="white" />
			<rect x="54" y="248" width="30.87" height="6" fill="#D9D9D9" />
			<rect x="54" y="210" width="30.87" height="6" fill="#C08930" />
			<rect x="54" y="172" width="30.87" height="6" fill="#D9D9D9" />
			<path
				d="M410.254 69.481C410.254 52.781 396.716 39.243 380.016 39.243H219.255C11.0428 39.243 19.8378 36.091 7.96584 49.15C3.08584 54.52 0.11084 61.653 0.11084 69.481V120.976H219.255H410.254V69.481Z"
				fill="white" />
			<path
				d="M31.2901 69.481C31.2901 52.752 44.8561 39.244 61.5261 39.243C34.4761 39.378 11.5891 34.626 2.21508 58.382C-0.504917 65.274 -0.00591671 65.244 0.113083 120.976H31.2911C31.2901 112.771 31.2901 82.324 31.2901 69.481Z"
				fill="#D9D9D9" />
			<path
				d="M500.586 276H170.414C164.136 276 159 270.394 159 263.542V179.458C159 172.605 164.137 167 170.414 167H500.586C506.864 167 512 172.606 512 179.458V263.542C512 270.395 506.863 276 500.586 276Z"
				fill="#10181F" />
			<path
				d="M160.426 414.682V331.202C160.426 324.399 165.992 318.834 172.794 318.834H141.873C135.07 318.834 129.505 324.4 129.505 331.202V414.682C129.505 421.485 135.071 427.05 141.873 427.05H172.794C165.992 427.05 160.426 421.485 160.426 414.682Z"
				fill="#1F5773" />
			<path
				d="M500.586 427H170.414C164.136 427 159 421.445 159 414.657V331.343C159 324.554 164.137 319 170.414 319H500.586C506.864 319 512 324.555 512 331.343V414.657C512 421.446 506.863 427 500.586 427Z"
				fill="#10181F" />
			<path
				d="M160.426 263.179V179.699C160.426 172.896 165.992 167.331 172.794 167.331H141.873C135.07 167.331 129.505 172.897 129.505 179.699V263.179C129.505 269.982 135.071 275.547 141.873 275.547H172.794C165.992 275.547 160.426 269.982 160.426 263.179Z"
				fill="#3094C6" />
			<rect x="184" y="198" width="31" height="6" fill="#D9D9D9" />
			<rect x="234" y="198" width="113" height="6" fill="#BF1E62" />
			<rect x="366" y="198" width="45" height="6" fill="#D9D9D9" />
			<rect x="430" y="198" width="63" height="6" fill="white" />
			<rect x="184" y="218" width="113" height="6" fill="#C08930" />
			<rect x="316" y="218" width="31" height="6" fill="#D9D9D9" />
			<rect x="366" y="218" width="63" height="6" fill="#10AFFF" />
			<rect x="448" y="218" width="45" height="6" fill="#1F5773" />
			<rect x="184" y="238" width="31" height="6" fill="#D9D9D9" />
			<path d="M234 238H290.5H347V244H234V238Z" fill="white" />
			<rect x="366" y="238" width="63" height="6" fill="#BF1E62" />
			<rect x="448" y="238" width="45" height="6" fill="#1F5773" />
			<path
				d="M265.962 369.554L252.153 356.034C252.153 356.033 252.153 356.033 252.153 356.033C250.745 354.656 248.446 354.656 247.038 356.033L265.962 369.554ZM265.962 369.554C265.962 369.555 265.962 369.555 265.962 369.555C267.346 370.911 267.346 373.09 265.962 374.446M265.962 369.554V374.446M265.962 374.446L252.153 387.967C251.454 388.651 250.532 389 249.596 389C248.659 389 247.738 388.651 247.038 387.967C245.654 386.61 245.654 384.431 247.038 383.075L256.891 373.429L258.35 372L256.891 370.571L247.038 360.925C247.038 360.924 247.038 360.924 247.038 360.924C245.654 359.568 245.654 357.39 247.038 356.034L265.962 374.446Z"
				fill="#F9F9F9" stroke="#10181F" stroke-width="4" />
			<path
				d="M188.038 369.554L201.847 356.034C201.847 356.033 201.847 356.033 201.847 356.033C203.255 354.656 205.554 354.656 206.962 356.033L188.038 369.554ZM188.038 369.554C188.038 369.555 188.038 369.555 188.038 369.555C186.654 370.911 186.654 373.09 188.038 374.446M188.038 369.554V374.446M188.038 374.446L201.847 387.967C202.546 388.651 203.468 389 204.404 389C205.341 389 206.262 388.651 206.962 387.967C208.346 386.61 208.346 384.431 206.962 383.075L197.109 373.429L195.65 372L197.109 370.571L206.962 360.925C206.962 360.924 206.962 360.924 206.962 360.924C208.346 359.568 208.346 357.39 206.962 356.034L188.038 374.446Z"
				fill="#F9F9F9" stroke="#10181F" stroke-width="4" />
			<path
				d="M215.216 392.301C214.552 394.079 215.473 396.1 217.391 396.781C219.349 397.473 221.433 396.462 222.102 394.672L215.216 392.301ZM215.216 392.301C215.216 392.301 215.216 392.301 215.216 392.301L230.898 350.327C231.571 348.525 233.663 347.531 235.608 348.218L215.216 392.301ZM235.609 348.219C237.527 348.899 238.448 350.92 237.784 352.698C237.784 352.698 237.784 352.698 237.784 352.698L222.103 394.671L235.609 348.219Z"
				fill="#F9F9F9" stroke="#10181F" stroke-width="4" />
			<path
				d="M44.9121 87.841C42.8821 87.841 40.8821 87.016 39.4501 85.573C38.0071 84.14 37.1821 82.141 37.1821 80.111C37.1821 73.834 44.2101 70.304 49.2001 73.679C49.6231 73.968 50.0241 74.287 50.3751 74.647C51.8181 76.08 52.6421 78.079 52.6421 80.11C52.6421 82.14 51.8181 84.139 50.3751 85.572C50.0241 85.932 49.6231 86.252 49.2001 86.53C48.7881 86.809 48.3341 87.055 47.8701 87.242C47.4061 87.437 46.9221 87.592 46.4271 87.685C45.9221 87.788 45.4171 87.841 44.9121 87.841Z"
				fill="#F94A46" />
			<path
				d="M71.1118 87.8411C70.6068 87.8411 70.1008 87.789 69.6068 87.686C69.1118 87.593 68.6278 87.438 68.1638 87.243C67.6898 87.057 67.2468 86.81 66.8238 86.531C66.4008 86.253 66.0098 85.933 65.6488 85.573C64.2058 84.14 63.3818 82.1411 63.3818 80.1111C63.3818 78.0801 64.2058 76.0811 65.6488 74.6481C66.0098 74.2881 66.4008 73.9691 66.8238 73.6801C67.2468 73.4011 67.6898 73.1651 68.1638 72.9681C68.6278 72.7831 69.1118 72.6281 69.6068 72.5251C70.5968 72.3291 71.6278 72.3291 72.6268 72.5251C73.1218 72.6281 73.6058 72.7831 74.0698 72.9681C74.5438 73.1641 74.9878 73.4011 75.4098 73.6801C75.8318 73.9691 76.2238 74.2881 76.5848 74.6481C78.0178 76.0811 78.8528 78.0801 78.8528 80.1111C78.8528 82.1411 78.0178 84.14 76.5848 85.573C76.2248 85.933 75.8328 86.253 75.4098 86.531C74.9868 86.81 74.5438 87.056 74.0698 87.243C73.6058 87.438 73.1218 87.593 72.6268 87.686C72.1218 87.788 71.6168 87.8411 71.1118 87.8411Z"
				fill="#FFB70D" />
			<path
				d="M97.3218 87.841C96.8168 87.841 96.3118 87.7889 95.8068 87.6859C95.3118 87.5929 94.8278 87.4379 94.3638 87.2429C93.9008 87.0569 93.4468 86.8099 93.0238 86.5309C92.6008 86.2529 92.2098 85.9329 91.8488 85.5729C90.4168 84.1399 89.5918 82.141 89.5918 80.111C89.5918 79.606 89.6438 79.1 89.7358 78.595C89.8388 78.111 89.9828 77.617 90.1788 77.153C90.3748 76.689 90.6118 76.2349 90.8898 75.8229C91.1678 75.3899 91.4978 74.999 91.8478 74.647C92.2088 74.287 92.5998 73.968 93.0228 73.679C93.4458 73.4 93.8988 73.164 94.3628 72.967C94.8268 72.782 95.3118 72.627 95.8058 72.524C96.8048 72.328 97.8358 72.328 98.8248 72.524C99.3198 72.627 99.8038 72.782 100.268 72.967C100.743 73.163 101.186 73.4 101.608 73.679C102.031 73.968 102.422 74.287 102.783 74.647C103.143 74.998 103.463 75.3899 103.741 75.8229C104.019 76.2349 104.267 76.689 104.452 77.153C104.648 77.617 104.792 78.111 104.895 78.595C104.998 79.1 105.049 79.606 105.049 80.111C105.049 82.151 104.225 84.1399 102.782 85.5729C102.421 85.9329 102.03 86.2529 101.607 86.5309C101.184 86.8099 100.741 87.0559 100.267 87.2429C99.8028 87.4379 99.3188 87.5929 98.8238 87.6859C98.3318 87.7879 97.8268 87.841 97.3218 87.841Z"
				fill="#92B620" />
			<path
				d="M313.825 87.84H129.505C125.236 87.84 121.775 84.38 121.775 80.11C121.775 75.84 125.236 72.38 129.505 72.38H313.825C318.094 72.38 321.555 75.841 321.555 80.11C321.555 84.379 318.094 87.84 313.825 87.84Z"
				fill="#D9D9D9" />
			<path
				d="M372.616 87.84H341.009C336.74 87.84 333.279 84.38 333.279 80.11C333.279 75.84 336.74 72.38 341.009 72.38H372.616C376.885 72.38 380.346 75.841 380.346 80.11C380.346 84.379 376.885 87.84 372.616 87.84Z"
				fill="#D9D9D9" />
		</g>
	</g>
	<defs>
		<clipPath id="clip0_236_760">
			<rect width="511.999" height="511.999" fill="white" />
		</clipPath>
	</defs>
</svg>