<svg width="30" height="31" viewBox="0 0 30 31" fill="none" xmlns="http://www.w3.org/2000/svg">
  <path
    d="M18.6811 2.2627C16.9718 2.26267 15.5938 2.26265 14.5101 2.40835C13.385 2.55962 12.4376 2.88323 11.6852 3.63563C11.0291 4.29179 10.6975 5.09814 10.5235 6.04563C10.3544 6.96633 10.322 8.09307 10.3145 9.44498C10.3116 9.96273 10.729 10.3848 11.2467 10.3877C11.7645 10.3906 12.1866 9.97317 12.1894 9.45542C12.1971 8.08854 12.2326 7.11969 12.3676 6.38438C12.4978 5.67587 12.7068 5.26577 13.011 4.96146C13.357 4.61551 13.8428 4.38994 14.7599 4.26663C15.7041 4.13968 16.9555 4.13769 18.7498 4.13769H19.9998C21.794 4.13769 23.0454 4.13968 23.9896 4.26663C24.9069 4.38994 25.3925 4.61551 25.7385 4.96146C26.0845 5.30741 26.31 5.79313 26.4334 6.71034C26.5603 7.65453 26.5623 8.90593 26.5623 10.7002V20.7002C26.5623 22.4944 26.5603 23.7458 26.4334 24.6901C26.31 25.6073 26.0845 26.0929 25.7385 26.4389C25.3925 26.7849 24.9069 27.0104 23.9896 27.1338C23.0454 27.2607 21.794 27.2627 19.9998 27.2627H18.7498C16.9555 27.2627 15.7041 27.2607 14.7599 27.1338C13.8428 27.0104 13.357 26.7849 13.011 26.4389C12.7068 26.1346 12.4978 25.7246 12.3676 25.0161C12.2326 24.2807 12.1971 23.3118 12.1894 21.9449C12.1866 21.4272 11.7645 21.0098 11.2467 21.0127C10.729 21.0156 10.3116 21.4377 10.3145 21.9554C10.322 23.3073 10.3544 24.4341 10.5235 25.3547C10.6975 26.3022 11.0291 27.1086 11.6852 27.7648C12.4376 28.5172 13.385 28.8408 14.5101 28.9921C15.5938 29.1377 16.9718 29.1377 18.6811 29.1377H20.0684C21.7779 29.1377 23.1558 29.1377 24.2395 28.9921C25.3646 28.8408 26.3119 28.5172 27.0644 27.7648C27.8168 27.0123 28.1404 26.0651 28.2916 24.9399C28.4374 23.8562 28.4373 22.4783 28.4373 20.7688V10.6316C28.4373 8.92212 28.4374 7.54422 28.2916 6.46051C28.1404 5.33537 27.8168 4.38803 27.0644 3.63563C26.3119 2.88323 25.3646 2.55962 24.2395 2.40835C23.1558 2.26265 21.7779 2.26267 20.0684 2.2627H18.6811Z"
    fill="white" />
  <path
    d="M2.50098 14.7612C1.9832 14.7612 1.56348 15.181 1.56348 15.6987C1.56348 16.2165 1.9832 16.6362 2.50098 16.6362H17.4666L15.0159 18.737C14.6227 19.0738 14.5772 19.6657 14.9141 20.0588C15.2511 20.452 15.843 20.4975 16.2361 20.1606L20.6111 16.4106C20.8189 16.2325 20.9385 15.9725 20.9385 15.6987C20.9385 15.4251 20.8189 15.1651 20.6111 14.987L16.2361 11.2369C15.843 10.9 15.2511 10.9455 14.9141 11.3386C14.5772 11.7318 14.6227 12.3236 15.0159 12.6606L17.4666 14.7612H2.50098Z"
    fill="white" />
</svg>