<svg width="398" height="398" viewBox="0 0 398 398" fill="none" xmlns="http://www.w3.org/2000/svg">
  <g filter="url(#filter0_d_150_1162)">
    <rect x="91" y="61" width="216" height="216" rx="108" fill="white" />
  </g>
  <rect x="183.75" y="267.75" width="30.5" height="30.5" rx="15.25" fill="#04A9FF" />
  <rect x="183.75" y="267.75" width="30.5" height="30.5" rx="15.25" stroke="white" stroke-width="1.5" />
  <path
    d="M202.639 287.52V289H196.239V287.52H198.583V280.776C198.583 280.509 198.591 280.235 198.607 279.952L196.943 281.344C196.847 281.419 196.751 281.467 196.655 281.488C196.565 281.504 196.477 281.504 196.391 281.488C196.311 281.472 196.239 281.445 196.175 281.408C196.111 281.365 196.063 281.32 196.031 281.272L195.407 280.416L198.935 277.416H200.559V287.52H202.639Z"
    fill="white" />
  <path
    d="M191.473 142.55C191.473 142.507 191.507 142.473 191.55 142.473H206.95C206.993 142.473 207.027 142.507 207.027 142.55V157.95C207.027 157.993 206.993 158.027 206.95 158.027H202.55C201.985 158.027 201.527 158.485 201.527 159.05V166.2C201.527 166.765 201.985 167.223 202.55 167.223H218.5C221.291 167.223 223.527 169.459 223.527 172.25V179.95C223.527 180.515 223.985 180.973 224.55 180.973H228.95C228.993 180.973 229.027 181.007 229.027 181.05V196.45C229.027 196.493 228.993 196.527 228.95 196.527H213.55C213.507 196.527 213.473 196.493 213.473 196.45V181.05C213.473 181.007 213.507 180.973 213.55 180.973H217.95C218.515 180.973 218.973 180.515 218.973 179.95V172.8C218.973 172.235 218.515 171.777 217.95 171.777H202.55C201.985 171.777 201.527 172.235 201.527 172.8V179.95C201.527 180.515 201.985 180.973 202.55 180.973H206.95C206.993 180.973 207.027 181.007 207.027 181.05V196.45C207.027 196.493 206.993 196.527 206.95 196.527H191.55C191.507 196.527 191.473 196.493 191.473 196.45V181.05C191.473 181.007 191.507 180.973 191.55 180.973H195.95C196.515 180.973 196.973 180.515 196.973 179.95V172.8C196.973 172.235 196.515 171.777 195.95 171.777H180.55C179.985 171.777 179.527 172.235 179.527 172.8V179.95C179.527 180.515 179.985 180.973 180.55 180.973H184.95C184.993 180.973 185.027 181.007 185.027 181.05V196.45C185.027 196.493 184.993 196.527 184.95 196.527H169.55C169.507 196.527 169.473 196.493 169.473 196.45V181.05C169.473 181.007 169.507 180.973 169.55 180.973H173.95C174.515 180.973 174.973 180.515 174.973 179.95V172.25C174.973 169.459 177.209 167.223 180 167.223H195.95C196.515 167.223 196.973 166.765 196.973 166.2V159.05C196.973 158.485 196.515 158.027 195.95 158.027H191.55C191.507 158.027 191.473 157.993 191.473 157.95V142.55Z"
    fill="#04A9FF" stroke="#04A9FF" stroke-width="0.945313" />
  <defs>
    <filter id="filter0_d_150_1162" x="0.28001" y="0.520006" width="397.44" height="397.44" filterUnits="userSpaceOnUse"
      color-interpolation-filters="sRGB">
      <feFlood flood-opacity="0" result="BackgroundImageFix" />
      <feColorMatrix in="SourceAlpha" type="matrix" values="0 0 0 0 0 0 0 0 0 0 0 0 0 0 0 0 0 0 127 0"
        result="hardAlpha" />
      <feMorphology radius="6.48" operator="dilate" in="SourceAlpha" result="effect1_dropShadow_150_1162" />
      <feOffset dy="30.24" />
      <feGaussianBlur stdDeviation="42.12" />
      <feComposite in2="hardAlpha" operator="out" />
      <feColorMatrix type="matrix" values="0 0 0 0 0.0156863 0 0 0 0 0.662745 0 0 0 0 1 0 0 0 0.15 0" />
      <feBlend mode="normal" in2="BackgroundImageFix" result="effect1_dropShadow_150_1162" />
      <feBlend mode="normal" in="SourceGraphic" in2="effect1_dropShadow_150_1162" result="shape" />
    </filter>
  </defs>
</svg>