<svg width="398" height="398" viewBox="0 0 398 398" fill="none" xmlns="http://www.w3.org/2000/svg">
  <g filter="url(#filter0_d_150_1148)">
    <rect x="91" y="61" width="216" height="216" rx="108" fill="white" />
  </g>
  <rect x="186.25" y="267.75" width="30.5" height="30.5" rx="15.25" fill="#04A9FF" />
  <rect x="186.25" y="267.75" width="30.5" height="30.5" rx="15.25" stroke="white" stroke-width="1.5" />
  <path
    d="M204.707 287.16C204.921 287.16 205.089 287.221 205.211 287.344C205.339 287.461 205.403 287.619 205.403 287.816V289H197.467V288.344C197.467 288.211 197.494 288.072 197.547 287.928C197.606 287.779 197.697 287.645 197.819 287.528L201.331 284.008C201.625 283.709 201.886 283.424 202.115 283.152C202.35 282.88 202.545 282.611 202.699 282.344C202.854 282.077 202.971 281.808 203.051 281.536C203.137 281.259 203.179 280.968 203.179 280.664C203.179 280.387 203.139 280.144 203.059 279.936C202.979 279.723 202.865 279.544 202.715 279.4C202.571 279.256 202.395 279.149 202.187 279.08C201.985 279.005 201.755 278.968 201.499 278.968C201.265 278.968 201.046 279.003 200.843 279.072C200.646 279.136 200.47 279.229 200.315 279.352C200.161 279.469 200.03 279.608 199.923 279.768C199.817 279.928 199.737 280.104 199.683 280.296C199.593 280.541 199.475 280.704 199.331 280.784C199.187 280.864 198.979 280.883 198.707 280.84L197.667 280.656C197.747 280.101 197.902 279.616 198.131 279.2C198.361 278.779 198.646 278.429 198.987 278.152C199.334 277.869 199.729 277.659 200.171 277.52C200.619 277.376 201.099 277.304 201.611 277.304C202.145 277.304 202.633 277.384 203.075 277.544C203.518 277.699 203.897 277.92 204.211 278.208C204.526 278.496 204.771 278.843 204.947 279.248C205.123 279.653 205.211 280.104 205.211 280.6C205.211 281.027 205.147 281.421 205.019 281.784C204.897 282.147 204.729 282.493 204.515 282.824C204.307 283.155 204.062 283.475 203.779 283.784C203.497 284.093 203.201 284.408 202.891 284.728L200.283 287.392C200.534 287.317 200.782 287.261 201.027 287.224C201.278 287.181 201.515 287.16 201.739 287.16H204.707Z"
    fill="white" />
  <defs>
    <filter id="filter0_d_150_1148" x="0.28001" y="0.520006" width="397.44" height="397.44" filterUnits="userSpaceOnUse"
      color-interpolation-filters="sRGB">
      <feFlood flood-opacity="0" result="BackgroundImageFix" />
      <feColorMatrix in="SourceAlpha" type="matrix" values="0 0 0 0 0 0 0 0 0 0 0 0 0 0 0 0 0 0 127 0"
        result="hardAlpha" />
      <feMorphology radius="6.48" operator="dilate" in="SourceAlpha" result="effect1_dropShadow_150_1148" />
      <feOffset dy="30.24" />
      <feGaussianBlur stdDeviation="42.12" />
      <feComposite in2="hardAlpha" operator="out" />
      <feColorMatrix type="matrix" values="0 0 0 0 0.0156863 0 0 0 0 0.662745 0 0 0 0 1 0 0 0 0.15 0" />
      <feBlend mode="normal" in2="BackgroundImageFix" result="effect1_dropShadow_150_1148" />
      <feBlend mode="normal" in="SourceGraphic" in2="effect1_dropShadow_150_1148" result="shape" />
    </filter>
  </defs>
</svg>