<svg width="398" height="398" viewBox="0 0 398 398" fill="none" xmlns="http://www.w3.org/2000/svg">
  <g filter="url(#filter0_d_150_1097)">
    <rect x="91" y="61" width="216" height="216" rx="108" fill="white" />
  </g>
  <rect x="183.75" y="267.75" width="30.5" height="30.5" rx="15.25" fill="#04A9FF" />
  <rect x="183.75" y="267.75" width="30.5" height="30.5" rx="15.25" stroke="white" stroke-width="1.5" />
  <path
    d="M195.223 280.656C195.303 280.101 195.458 279.616 195.687 279.2C195.917 278.779 196.202 278.429 196.543 278.152C196.89 277.869 197.285 277.659 197.727 277.52C198.175 277.376 198.655 277.304 199.167 277.304C199.701 277.304 200.181 277.381 200.607 277.536C201.039 277.685 201.407 277.896 201.711 278.168C202.015 278.435 202.247 278.749 202.407 279.112C202.573 279.475 202.655 279.867 202.655 280.288C202.655 280.656 202.613 280.981 202.527 281.264C202.447 281.541 202.33 281.784 202.175 281.992C202.021 282.2 201.829 282.376 201.599 282.52C201.37 282.664 201.111 282.784 200.823 282.88C201.517 283.099 202.034 283.432 202.375 283.88C202.717 284.328 202.887 284.891 202.887 285.568C202.887 286.144 202.781 286.653 202.567 287.096C202.354 287.539 202.066 287.912 201.703 288.216C201.341 288.515 200.919 288.741 200.439 288.896C199.965 289.051 199.461 289.128 198.927 289.128C198.346 289.128 197.839 289.061 197.407 288.928C196.975 288.795 196.599 288.597 196.279 288.336C195.959 288.075 195.687 287.755 195.463 287.376C195.239 286.997 195.047 286.56 194.887 286.064L195.759 285.704C195.989 285.608 196.202 285.584 196.399 285.632C196.602 285.675 196.749 285.781 196.839 285.952C196.935 286.139 197.039 286.323 197.151 286.504C197.269 286.685 197.407 286.848 197.567 286.992C197.727 287.131 197.914 287.245 198.127 287.336C198.346 287.421 198.605 287.464 198.903 287.464C199.239 287.464 199.533 287.411 199.783 287.304C200.034 287.192 200.242 287.048 200.407 286.872C200.578 286.696 200.703 286.501 200.783 286.288C200.869 286.069 200.911 285.851 200.911 285.632C200.911 285.355 200.882 285.104 200.823 284.88C200.765 284.651 200.642 284.456 200.455 284.296C200.269 284.136 199.999 284.011 199.647 283.92C199.301 283.829 198.834 283.784 198.247 283.784V282.376C198.733 282.371 199.135 282.325 199.455 282.24C199.775 282.155 200.029 282.037 200.215 281.888C200.407 281.733 200.541 281.549 200.615 281.336C200.69 281.123 200.727 280.888 200.727 280.632C200.727 280.088 200.575 279.675 200.271 279.392C199.967 279.109 199.562 278.968 199.055 278.968C198.821 278.968 198.605 279.003 198.407 279.072C198.21 279.136 198.031 279.229 197.871 279.352C197.717 279.469 197.586 279.608 197.479 279.768C197.373 279.928 197.293 280.104 197.239 280.296C197.149 280.541 197.029 280.704 196.879 280.784C196.735 280.864 196.53 280.883 196.263 280.84L195.223 280.656Z"
    fill="white" />
  <path
    d="M178.979 139C173.468 139 169 143.468 169 148.979V188.896C169 194.407 173.468 198.875 178.979 198.875H218.896C224.407 198.875 228.875 194.407 228.875 188.896V148.979C228.875 143.468 224.407 139 218.896 139H178.979ZM203.376 182.426C205.767 184.353 208.157 185.304 210.548 185.28C212.012 185.28 213.134 185.012 213.914 184.475C214.67 183.963 215.049 183.231 215.049 182.28C215.049 181.304 214.67 180.474 213.914 179.792C213.134 179.109 211.658 178.425 209.487 177.742C206.877 176.986 204.864 176.01 203.449 174.815C202.059 173.62 201.351 171.949 201.327 169.802C201.327 167.778 202.205 166.082 203.962 164.716C205.669 163.35 207.853 162.667 210.511 162.667C214.219 162.667 217.195 163.57 219.439 165.375L216.878 169.363C215.976 168.656 214.939 168.143 213.768 167.826C212.597 167.461 211.548 167.278 210.621 167.278C209.353 167.278 208.34 167.509 207.584 167.973C206.828 168.436 206.45 169.046 206.45 169.802C206.45 170.632 206.913 171.339 207.84 171.925C208.767 172.486 210.353 173.108 212.597 173.791C215.305 174.596 217.232 175.669 218.378 177.011C219.525 178.352 220.098 180.06 220.098 182.133C220.098 184.256 219.281 186.085 217.646 187.622C216.036 189.134 213.695 189.927 210.621 190C206.596 190 203.23 188.793 200.522 186.378L203.376 182.426ZM184.98 184.548C185.761 185.036 186.7 185.28 187.798 185.28C188.944 185.28 189.895 184.951 190.652 184.292C191.408 183.609 191.786 182.426 191.786 180.743V163.106H196.726V181.694C196.653 184.573 195.823 186.646 194.238 187.915C193.335 188.671 192.347 189.208 191.274 189.525C190.2 189.842 189.164 190 188.163 190C186.334 190 184.712 189.683 183.297 189.049C181.785 188.366 180.516 187.158 179.492 185.426L182.931 182.609C183.565 183.463 184.248 184.109 184.98 184.548Z"
    fill="#04A9FF" />
  <defs>
    <filter id="filter0_d_150_1097" x="0.28001" y="0.520006" width="397.44" height="397.44" filterUnits="userSpaceOnUse"
      color-interpolation-filters="sRGB">
      <feFlood flood-opacity="0" result="BackgroundImageFix" />
      <feColorMatrix in="SourceAlpha" type="matrix" values="0 0 0 0 0 0 0 0 0 0 0 0 0 0 0 0 0 0 127 0"
        result="hardAlpha" />
      <feMorphology radius="6.48" operator="dilate" in="SourceAlpha" result="effect1_dropShadow_150_1097" />
      <feOffset dy="30.24" />
      <feGaussianBlur stdDeviation="42.12" />
      <feComposite in2="hardAlpha" operator="out" />
      <feColorMatrix type="matrix" values="0 0 0 0 0.0156863 0 0 0 0 0.662745 0 0 0 0 1 0 0 0 0.15 0" />
      <feBlend mode="normal" in2="BackgroundImageFix" result="effect1_dropShadow_150_1097" />
      <feBlend mode="normal" in="SourceGraphic" in2="effect1_dropShadow_150_1097" result="shape" />
    </filter>
  </defs>
</svg>