<svg width="100" height="100" viewBox="0 0 100 100" fill="none" xmlns="http://www.w3.org/2000/svg">
	<path
		d="M62.7019 37.8931H37.2987C33.0898 37.8931 29.6777 41.3396 29.6777 45.591V58.4209C29.6777 62.6724 33.0898 66.1189 37.2987 66.1189H62.7019C66.9109 66.1189 70.3229 62.6724 70.3229 58.4209V45.591C70.3229 41.3396 66.9109 37.8931 62.7019 37.8931Z"
		fill="#00AAFF" />
	<path
		d="M21.2413 71.2743C21.2738 73.62 22.0719 75.8908 23.514 77.7411C24.9561 79.5914 26.9633 80.9199 29.23 81.5242C29.8798 83.6682 31.155 85.5694 32.8921 86.9842C34.6291 88.3989 36.7491 89.2628 38.9802 89.4652C41.2114 89.6675 43.4521 89.1991 45.4154 88.12C47.3787 87.0408 48.975 85.4001 50 83.408C51.0242 85.4003 52.6198 87.0414 54.5825 88.1212C56.5453 89.201 58.7856 89.6702 61.0167 89.4688C63.2478 89.2674 65.3679 88.4045 67.1055 86.9907C68.8431 85.5769 70.119 83.6765 70.7699 81.533C73.0366 80.9286 75.0438 79.6002 76.4859 77.7499C77.928 75.8996 78.7261 73.6287 78.7586 71.283C80.6007 70.5288 82.1773 69.2446 83.2884 67.5931C84.3996 65.9416 84.9952 63.9973 84.9998 62.0068C85.0049 60.704 84.7525 59.4129 84.2569 58.208C83.7614 57.003 83.0326 55.9079 82.1124 54.9856C83.3382 53.1192 83.9024 50.8954 83.7145 48.6703C83.5266 46.4453 82.5976 44.3476 81.0761 42.7131C81.1918 42.0675 81.25 41.4128 81.2499 40.7569C81.2528 38.3212 80.4641 35.9506 79.0027 34.002C77.5414 32.0534 75.4864 30.6325 73.1474 29.9532C73.6347 28.8125 73.8314 27.5688 73.72 26.3334C73.6086 25.098 73.1925 23.9095 72.5091 22.8744C71.8256 21.8393 70.8961 20.9898 69.8037 20.4022C68.7114 19.8145 67.4903 19.5069 66.2499 19.507C65.9743 19.5067 65.6988 19.5221 65.4249 19.5532C64.7522 18.1162 63.7014 16.8892 62.3849 16.0035C61.0685 15.1177 59.536 14.6066 57.9515 14.5248C56.3669 14.443 54.7899 14.7936 53.3893 15.5391C51.9887 16.2846 50.8171 17.3969 50 18.757C49.1825 17.397 48.0107 16.285 46.6098 15.5398C45.209 14.7946 43.6319 14.4444 42.0473 14.5266C40.4628 14.6088 38.9304 15.1203 37.6141 16.0064C36.2979 16.8924 35.2474 18.1198 34.575 19.557C34.3012 19.5246 34.0257 19.5079 33.75 19.507C32.3472 19.508 30.9729 19.9025 29.783 20.6455C28.5932 21.3885 27.6356 22.4503 27.019 23.7103C26.4024 24.9703 26.1516 26.378 26.2949 27.7734C26.4383 29.1689 26.9701 30.4961 27.83 31.6044C27.9316 31.7334 28.0575 31.8412 28.2007 31.9216C28.3439 32.0019 28.5015 32.0533 28.6645 32.0727C28.8275 32.0921 28.9928 32.0793 29.1508 32.0349C29.3089 31.9904 29.4566 31.9153 29.5857 31.8138C29.7147 31.7123 29.8224 31.5863 29.9028 31.4431C29.9831 31.3 30.0345 31.1424 30.0539 30.9793C30.0734 30.8163 30.0605 30.6511 30.0161 30.493C29.9717 30.335 29.8966 30.1872 29.795 30.0582C29.1158 29.1863 28.748 28.1122 28.75 27.0069C28.7546 26.2415 28.934 25.4872 29.2747 24.8017C29.6153 24.1162 30.1082 23.5176 30.7156 23.0517C31.3229 22.5858 32.0288 22.2649 32.7791 22.1135C33.5295 21.9621 34.3045 21.9842 35.045 22.1782C35.3546 22.2593 35.6835 22.2186 35.964 22.0644C36.2445 21.9102 36.4551 21.6543 36.5525 21.3495C37.0098 19.9335 37.9573 18.7272 39.2245 17.9474C40.4917 17.1676 41.9956 16.8654 43.4657 17.0953C44.9357 17.3252 46.2756 18.0721 47.2442 19.2015C48.2129 20.331 48.7468 21.769 48.75 23.2569C48.75 23.5885 48.8817 23.9064 49.1161 24.1408C49.3505 24.3752 49.6684 24.5069 50 24.5069C50.3315 24.5069 50.6494 24.3752 50.8838 24.1408C51.1183 23.9064 51.25 23.5885 51.25 23.2569C51.2531 21.769 51.787 20.331 52.7557 19.2015C53.7244 18.0721 55.0642 17.3252 56.5343 17.0953C58.0043 16.8654 59.5082 17.1676 60.7754 17.9474C62.0427 18.7272 62.9901 19.9335 63.4474 21.3495C63.5448 21.6543 63.7555 21.9102 64.0359 22.0644C64.3164 22.2186 64.6453 22.2593 64.9549 22.1782C65.6954 21.984 66.4706 21.9617 67.221 22.113C67.9715 22.2642 68.6774 22.5851 69.2848 23.0511C69.8923 23.517 70.3851 24.1157 70.7257 24.8013C71.0663 25.487 71.2456 26.2414 71.2499 27.0069C71.252 28.1122 70.8841 29.1863 70.2049 30.0582C70.0673 30.2329 69.9788 30.4413 69.9486 30.6616C69.9184 30.882 69.9475 31.1064 70.033 31.3118C70.1185 31.5171 70.2572 31.696 70.4349 31.8298C70.6125 31.9636 70.8227 32.0477 71.0436 32.0732C73.1698 32.3231 75.1298 33.346 76.5508 34.9472C77.9717 36.5484 78.7544 38.6161 78.7499 40.7569C78.7512 41.4504 78.6673 42.1414 78.4999 42.8144C78.445 43.0326 78.4501 43.2616 78.5145 43.4772C78.579 43.6929 78.7005 43.8871 78.8661 44.0394C79.619 44.7371 80.2194 45.583 80.6297 46.5239C81.0399 47.4648 81.251 48.4804 81.2499 49.5069C81.2603 51.2811 80.6295 52.9995 79.4736 54.3456C79.3643 54.4738 79.282 54.6228 79.2317 54.7836C79.1814 54.9445 79.1641 55.1138 79.1809 55.2815C79.1977 55.4491 79.2483 55.6117 79.3295 55.7593C79.4107 55.907 79.521 56.0366 79.6536 56.1406C80.5443 56.8364 81.2638 57.7267 81.7572 58.7436C82.2505 59.7604 82.5046 60.8766 82.4999 62.0068C82.4963 63.622 81.9727 65.1931 81.0067 66.4876C80.0407 67.7821 78.6835 68.7312 77.1361 69.1943C76.8642 69.2739 76.6274 69.4436 76.4646 69.6755C76.3017 69.9074 76.2225 70.1877 76.2399 70.4705C76.3996 72.5171 75.7962 74.5503 74.5459 76.1783C73.2957 77.8064 71.4871 78.9141 69.4687 79.288C69.2404 79.3405 69.0314 79.4562 68.8657 79.6217C68.6999 79.7872 68.584 79.996 68.5312 80.2243C68.0527 82.3237 66.817 84.173 65.0603 85.4183C63.3037 86.6636 61.1495 87.2175 59.0101 86.9739C56.8706 86.7303 54.8961 85.7064 53.4644 84.0981C52.0326 82.4898 51.2442 80.41 51.25 78.2568C51.25 77.9252 51.1183 77.6073 50.8838 77.3729C50.6494 77.1385 50.3315 77.0068 50 77.0068C49.6684 77.0068 49.3505 77.1385 49.1161 77.3729C48.8817 77.6073 48.75 77.9252 48.75 78.2568C48.7557 80.41 47.9673 82.4898 46.5355 84.0981C45.1038 85.7064 43.1293 86.7303 40.9898 86.9739C38.8504 87.2175 36.6962 86.6636 34.9396 85.4183C33.183 84.173 31.9472 82.3237 31.4688 80.2243C31.4159 79.996 31.3 79.7872 31.1343 79.6217C30.9685 79.4562 30.7596 79.3405 30.5313 79.288C28.5129 78.9141 26.7043 77.8064 25.454 76.1783C24.2038 74.5503 23.6003 72.5171 23.76 70.4705C23.7774 70.1877 23.6982 69.9074 23.5354 69.6755C23.3725 69.4436 23.1357 69.2739 22.8638 69.1943C21.3164 68.7312 19.9593 67.7821 18.9932 66.4876C18.0272 65.1931 17.5037 63.622 17.5001 62.0068C17.4954 60.8766 17.7494 59.7604 18.2428 58.7436C18.7361 57.7267 19.4557 56.8364 20.3463 56.1406C20.4789 56.0366 20.5892 55.907 20.6704 55.7593C20.7516 55.6117 20.8022 55.4491 20.819 55.2815C20.8358 55.1138 20.8186 54.9445 20.7683 54.7836C20.718 54.6228 20.6357 54.4738 20.5263 54.3456C19.3704 52.9995 18.7396 51.2811 18.7501 49.5069C18.7489 48.4804 18.96 47.4648 19.3703 46.5239C19.7805 45.583 20.3809 44.7371 21.1338 44.0394C21.2995 43.8871 21.4209 43.6929 21.4854 43.4772C21.5499 43.2616 21.5549 43.0326 21.5001 42.8144C21.3326 42.1414 21.2487 41.4504 21.2501 40.7569C21.2469 39.4442 21.5404 38.1478 22.1086 36.9645C22.6768 35.7812 23.505 34.7415 24.5313 33.9232C24.6652 33.8226 24.7775 33.6962 24.8615 33.5513C24.9456 33.4065 24.9997 33.2463 25.0207 33.0802C25.0416 32.9141 25.029 32.7455 24.9835 32.5843C24.9381 32.4232 24.8607 32.2728 24.756 32.1421C24.6513 32.0115 24.5214 31.9032 24.374 31.8237C24.2267 31.7442 24.0649 31.6951 23.8982 31.6793C23.7315 31.6636 23.5633 31.6814 23.4037 31.7319C23.244 31.7824 23.0961 31.8644 22.9688 31.9732C21.6492 33.0248 20.5844 34.361 19.8539 35.8821C19.1233 37.4031 18.746 39.0695 18.7501 40.7569C18.7499 41.4128 18.8081 42.0675 18.9238 42.7131C17.4024 44.3476 16.4733 46.4453 16.2854 48.6703C16.0976 50.8954 16.6617 53.1192 17.8876 54.9856C16.9674 55.9079 16.2385 57.003 15.743 58.208C15.2475 59.4129 14.995 60.704 15.0001 62.0068C15.0064 63.9958 15.6029 65.9382 16.7139 67.588C17.825 69.2377 19.4006 70.5207 21.2413 71.2743Z"
		fill="black" />
	<path
		d="M28.75 45.7568V58.2568C28.753 60.5765 29.6758 62.8003 31.3161 64.4406C32.9564 66.0809 35.1802 67.0038 37.5 67.0067H62.4999C64.8196 67.0038 67.0435 66.0809 68.6838 64.4406C70.3241 62.8003 71.2469 60.5765 71.2499 58.2568V45.7568C71.2469 43.4371 70.3241 41.2132 68.6838 39.5729C67.0435 37.9326 64.8196 37.0098 62.4999 37.0068H37.5C35.1802 37.0098 32.9564 37.9326 31.3161 39.5729C29.6758 41.2132 28.753 43.4371 28.75 45.7568ZM37.5 39.5068H62.4999C64.1569 39.5088 65.7454 40.1679 66.9171 41.3396C68.0888 42.5113 68.7479 44.0998 68.7499 45.7568V58.2568C68.7479 59.9138 68.0888 61.5023 66.9171 62.674C65.7454 63.8456 64.1569 64.5048 62.4999 64.5067H37.5C35.843 64.5048 34.2544 63.8456 33.0828 62.674C31.9111 61.5023 31.252 59.9138 31.25 58.2568V45.7568C31.252 44.0998 31.9111 42.5113 33.0828 41.3396C34.2544 40.1679 35.843 39.5088 37.5 39.5068Z"
		fill="black" />
	<path
		d="M41.616 59.1406C41.8517 59.3683 42.1675 59.4942 42.4952 59.4914C42.823 59.4886 43.1365 59.3571 43.3682 59.1253C43.6 58.8936 43.7314 58.5801 43.7343 58.2523C43.7371 57.9246 43.6112 57.6088 43.3835 57.3731L38.0172 52.0068L43.3835 46.6406C43.6112 46.4048 43.7371 46.0891 43.7343 45.7614C43.7314 45.4336 43.6 45.1201 43.3682 44.8883C43.1365 44.6566 42.823 44.5251 42.4952 44.5223C42.1675 44.5194 41.8517 44.6454 41.616 44.8731L35.366 51.1231C35.1316 51.3575 35 51.6754 35 52.0068C35 52.3383 35.1316 52.6562 35.366 52.8906L41.616 59.1406Z"
		fill="white" />
	<path
		d="M56.616 59.1406C56.8504 59.3749 57.1683 59.5065 57.4997 59.5065C57.8312 59.5065 58.1491 59.3749 58.3835 59.1406L64.6335 52.8906C64.8678 52.6562 64.9994 52.3383 64.9994 52.0068C64.9994 51.6754 64.8678 51.3575 64.6335 51.1231L58.3835 44.8731C58.1477 44.6454 57.832 44.5194 57.5042 44.5223C57.1765 44.5251 56.863 44.6566 56.6312 44.8883C56.3994 45.1201 56.268 45.4336 56.2651 45.7614C56.2623 46.0891 56.3883 46.4048 56.616 46.6406L61.9822 52.0068L56.616 57.3731C56.3816 57.6075 56.25 57.9254 56.25 58.2568C56.25 58.5883 56.3816 58.9062 56.616 59.1406Z"
		fill="white" />
	<path
		d="M47.1581 61.9594C47.2696 61.9904 47.3848 62.0064 47.5006 62.0069C47.7722 62.0067 48.0364 61.918 48.2531 61.7542C48.4699 61.5905 48.6274 61.3606 48.7018 61.0994L53.7018 43.5994C53.7926 43.2805 53.7531 42.9385 53.5918 42.6488C53.4305 42.3591 53.1607 42.1453 52.8418 42.0544C52.5229 41.9636 52.1809 42.0032 51.8912 42.1644C51.6015 42.3257 51.3877 42.5955 51.2968 42.9144L46.2968 60.4144C46.2518 60.5724 46.2384 60.7377 46.2574 60.9009C46.2763 61.064 46.3272 61.2219 46.4072 61.3654C46.4872 61.5089 46.5947 61.6352 46.7235 61.7371C46.8524 61.839 47 61.9145 47.1581 61.9594Z"
		fill="white" />
	<path
		d="M43.7497 73.2567C43.7497 72.9252 43.618 72.6073 43.3836 72.3728C43.1492 72.1384 42.8313 72.0067 42.4997 72.0067C40.5526 72.0041 38.644 72.5495 36.9923 73.5805C35.6702 72.6484 34.1145 72.1034 32.4998 72.0067C32.1683 72.0052 31.8497 72.1355 31.6142 72.3689C31.3788 72.6022 31.2456 72.9196 31.2442 73.2511C31.2427 73.5826 31.3729 73.9012 31.6063 74.1366C31.8397 74.3721 32.157 74.5052 32.4885 74.5067C32.6598 74.5067 36.7073 74.6417 38.8385 79.9704C38.9312 80.2026 39.0915 80.4016 39.2985 80.5418C39.5055 80.6819 39.7498 80.7568 39.9998 80.7567C40.1586 80.7573 40.3161 80.7271 40.4635 80.6679C40.616 80.6071 40.7551 80.5168 40.8727 80.4022C40.9903 80.2876 41.0842 80.1509 41.149 80C41.2137 79.8491 41.2481 79.6869 41.2502 79.5227C41.2523 79.3585 41.222 79.1954 41.161 79.043C40.6356 77.6908 39.8859 76.437 38.9435 75.3342C40.0488 74.7865 41.2662 74.5032 42.4997 74.5067C42.8313 74.5067 43.1492 74.375 43.3836 74.1406C43.618 73.9062 43.7497 73.5882 43.7497 73.2567Z"
		fill="black" />
	<path
		d="M42.7105 31.4506C42.8016 31.5871 42.9187 31.7044 43.0551 31.7958C43.1915 31.8871 43.3446 31.9506 43.5056 31.9828C43.6666 32.0149 43.8324 32.015 43.9934 31.9831C44.1544 31.9512 44.3076 31.8879 44.4442 31.7968C44.5808 31.7057 44.6981 31.5886 44.7894 31.4522C44.8807 31.3157 44.9442 31.1627 44.9764 31.0017C45.0085 30.8407 45.0087 30.6749 44.9768 30.5139C44.9449 30.3528 44.8816 30.1997 44.7904 30.0631C44.0027 28.8198 42.9311 27.7811 41.6638 27.0325C40.3965 26.2839 38.9696 25.8467 37.5005 25.7568C37.169 25.7557 36.8506 25.8863 36.6153 26.1199C36.3801 26.3535 36.2473 26.6709 36.2461 27.0025C36.2449 27.334 36.3755 27.6524 36.6091 27.8876C36.8427 28.1229 37.1602 28.2557 37.4917 28.2568C38.5504 28.3454 39.5737 28.6803 40.4798 29.2349C41.3859 29.7894 42.1498 30.5482 42.7105 31.4506Z"
		fill="black" />
	<path
		d="M59.5362 80.6679C59.6837 80.7271 59.8411 80.7573 60 80.7567C60.25 80.7568 60.4943 80.6819 60.7013 80.5418C60.9083 80.4016 61.0685 80.2026 61.1612 79.9704C63.2862 74.6567 67.3175 74.5067 67.51 74.5067C67.8415 74.5054 68.1589 74.3724 68.3924 74.1371C68.6259 73.9017 68.7563 73.5832 68.755 73.2517C68.7536 72.9202 68.6207 72.6028 68.3853 72.3693C68.15 72.1358 67.8315 72.0054 67.5 72.0067C65.8853 72.1034 64.3295 72.6484 63.0075 73.5805C61.3557 72.5495 59.4471 72.0041 57.5 72.0067C57.1685 72.0067 56.8505 72.1384 56.6161 72.3728C56.3817 72.6073 56.25 72.9252 56.25 73.2567C56.25 73.5882 56.3817 73.9062 56.6161 74.1406C56.8505 74.375 57.1685 74.5067 57.5 74.5067C58.7335 74.503 59.951 74.7863 61.0562 75.3342C60.1142 76.4373 59.3646 77.6911 58.8387 79.043C58.7778 79.1954 58.7475 79.3584 58.7495 79.5227C58.7516 79.6869 58.786 79.8491 58.8508 80C58.9156 80.1509 59.0094 80.2875 59.127 80.4022C59.2447 80.5168 59.3837 80.6071 59.5362 80.6679Z"
		fill="black" />
	<path
		d="M57.2902 31.4506C57.8507 30.5483 58.6143 29.7897 59.5203 29.2351C60.4262 28.6806 61.4492 28.3456 62.5076 28.2568C62.8392 28.2558 63.1567 28.1232 63.3904 27.8881C63.6241 27.6529 63.7549 27.3346 63.7539 27.0031C63.7529 26.6716 63.6202 26.354 63.3851 26.1203C63.15 25.8866 62.8317 25.7558 62.5001 25.7568C61.031 25.8467 59.6041 26.2839 58.3368 27.0325C57.0695 27.7811 55.9979 28.8198 55.2102 30.0631C55.0262 30.3389 54.9593 30.6765 55.0242 31.0017C55.0891 31.3268 55.2806 31.6128 55.5564 31.7968C55.8322 31.9808 56.1699 32.0477 56.495 31.9828C56.8201 31.9178 57.1062 31.7264 57.2902 31.4506Z"
		fill="black" />
</svg>