<svg width="21" height="21" viewBox="0 0 21 21" fill="none" xmlns="http://www.w3.org/2000/svg">
	<path
		d="M2.16669 9.66657H16.8217L12.4109 5.25574C12.3313 5.17887 12.2678 5.08691 12.2241 4.98524C12.1804 4.88357 12.1574 4.77422 12.1565 4.66357C12.1555 4.55292 12.1766 4.44319 12.2185 4.34078C12.2604 4.23836 12.3223 4.14532 12.4005 4.06708C12.4788 3.98883 12.5718 3.92695 12.6742 3.88505C12.7766 3.84315 12.8864 3.82207 12.997 3.82303C13.1077 3.82399 13.217 3.84698 13.3187 3.89065C13.4204 3.93433 13.5123 3.99781 13.5892 4.0774L19.4225 9.91074C19.5787 10.067 19.6665 10.2789 19.6665 10.4999C19.6665 10.7209 19.5787 10.9328 19.4225 11.0891L13.5892 16.9224C13.432 17.0742 13.2215 17.1582 13.003 17.1563C12.7845 17.1544 12.5755 17.0668 12.421 16.9122C12.2665 16.7577 12.1789 16.5487 12.177 16.3302C12.1751 16.1117 12.2591 15.9012 12.4109 15.7441L16.8217 11.3332H2.16669C1.94567 11.3332 1.73371 11.2454 1.57743 11.0892C1.42115 10.9329 1.33335 10.7209 1.33335 10.4999C1.33335 10.2789 1.42115 10.0669 1.57743 9.91065C1.73371 9.75437 1.94567 9.66657 2.16669 9.66657Z"
		fill="white" />
</svg>