<svg width="100" height="100" viewBox="0 0 100 100" fill="none" xmlns="http://www.w3.org/2000/svg">
	<path
		d="M67.0009 14.0859H64.9931L60.8525 16.5403L57.4596 20.7591L54.5327 25.2904V31.2279L59.5242 38.8842L62.8181 41.7488L65.2664 42.3999L67.0008 42.6935C73.1935 40.8855 77.7179 35.1664 77.7179 28.3898C77.718 21.6132 73.1936 15.8939 67.0009 14.0859Z"
		fill="#00AAFF" />
	<path
		d="M56.284 28.3898C56.284 21.6132 60.8084 15.8939 67.0011 14.0861C65.6741 13.6986 64.2706 13.49 62.8183 13.49C54.5893 13.49 47.9185 20.161 47.9185 28.3899C47.9185 36.6189 54.5893 43.2897 62.8183 43.2897C64.2706 43.2897 65.6739 43.0812 67.0011 42.6936C60.8084 40.8857 56.284 35.1664 56.284 28.3898Z"
		fill="#00AAFF" />
	<path
		d="M11.5548 79.0017L12.883 79.6462H23.1955L24.3283 79.0407L24.8352 78.1051V65.2195C24.8352 64.0837 23.9144 63.1631 22.7787 63.1631H13.2283C12.0925 63.1631 11.1719 64.0839 11.1719 65.2195V77.9315L11.5548 79.0017Z"
		fill="#00AAFF" />
	<path
		d="M22.7787 79.3671H13.2283C12.0925 79.3671 11.1719 78.4463 11.1719 77.3107V87.4588C11.1719 88.5946 12.0927 89.5152 13.2283 89.5152H22.7787C23.9144 89.5152 24.8352 88.5944 24.8352 87.4588V77.3107C24.8352 78.4463 23.9144 79.3671 22.7787 79.3671Z"
		fill="#00AAFF" />
	<path
		d="M68.316 24.7611L62.018 31.0592L57.9718 27.0129C57.514 26.5554 56.7721 26.5554 56.3144 27.0129C55.8568 27.4708 55.8568 28.2126 56.3144 28.6703L61.1893 33.5451C61.6472 34.0028 62.389 34.0026 62.8466 33.5451L69.9732 26.4186C70.4308 25.9608 70.4308 25.2189 69.9732 24.7612C69.5157 24.3036 68.7738 24.3036 68.316 24.7611Z"
		fill="white" />
	<path
		d="M42.731 34.8052L38.818 37.0643C38.2576 37.3878 38.0655 38.1046 38.3891 38.665C38.7127 39.2258 39.4298 39.4174 39.9899 39.0939L43.9029 36.8349C44.4633 36.5113 44.6554 35.7946 44.3318 35.2341C44.0083 34.6736 43.2913 34.4818 42.731 34.8052Z"
		fill="black" />
	<path
		d="M36.8081 29.5615H41.3264C41.9737 29.5615 42.4983 29.037 42.4983 28.3896C42.4983 27.7423 41.9737 27.2178 41.3264 27.2178H36.8081C36.1608 27.2178 35.6362 27.7423 35.6362 28.3896C35.6362 29.037 36.1608 29.5615 36.8081 29.5615Z"
		fill="black" />
	<path
		d="M38.818 19.7154L42.731 21.9745C43.2922 22.2982 44.0087 22.1056 44.3318 21.5456C44.6554 20.9851 44.4633 20.2684 43.9029 19.9448L39.9899 17.6857C39.4291 17.3623 38.7126 17.554 38.3891 18.1146C38.0655 18.6751 38.2576 19.3917 38.818 19.7154Z"
		fill="black" />
	<path
		d="M86.8174 37.0642L82.9045 34.8052C82.3437 34.4816 81.627 34.6735 81.3037 35.2341C80.9801 35.7946 81.1721 36.5113 81.7326 36.8349L85.6456 39.0939C86.2068 39.4177 86.9232 39.225 87.2463 38.665C87.5701 38.1045 87.3779 37.3878 86.8174 37.0642Z"
		fill="black" />
	<path
		d="M88.828 27.2178H84.3096C83.6622 27.2178 83.1377 27.7423 83.1377 28.3896C83.1377 29.037 83.6622 29.5615 84.3096 29.5615H88.828C89.4753 29.5615 89.9999 29.037 89.9999 28.3896C89.9999 27.7423 89.4752 27.2178 88.828 27.2178Z"
		fill="black" />
	<path
		d="M82.9045 21.9744L86.8174 19.7153C87.3779 19.3917 87.5699 18.675 87.2463 18.1146C86.9229 17.5539 86.2059 17.3624 85.6456 17.6857L81.7326 19.9447C81.1721 20.2683 80.9801 20.985 81.3037 21.5455C81.6273 22.1061 82.3443 22.2978 82.9045 21.9744Z"
		fill="black" />
	<path
		d="M65.5379 62.7701H52.1405C51.7909 62.7701 51.4689 62.6107 51.257 62.3327C51.0453 62.0551 50.9767 61.7024 51.0692 61.3654L52.8916 54.7185C54.3216 50.2658 52.4889 47.6114 50.6972 46.1681C48.5765 44.4596 45.4162 45.2768 44.3967 47.8008L42.1106 53.461C41.6868 54.5102 40.893 55.4174 39.8752 56.0161C36.7333 57.8643 34.271 60.8079 33.0828 62.3979C32.7166 62.8879 32.2367 63.2731 31.6947 63.5117C30.2117 64.1648 28.638 64.496 27.0168 64.496H25.9225C25.5926 63.0637 24.31 61.9915 22.7788 61.9915H13.2285C11.4483 61.9912 10 63.4395 10 65.2195V87.4586C10 89.2389 11.4483 90.687 13.2283 90.687H22.7788C24.3098 90.687 25.5925 89.6148 25.9225 88.1825H28.2736C28.7389 88.1825 29.1986 88.3576 29.5684 88.6759C32.4163 91.1267 35.8402 92.318 40.0365 92.318H40.0379H42.9971C43.6445 92.318 44.169 91.7934 44.169 91.1461C44.169 90.4987 43.6445 89.9742 42.9971 89.9742H40.038C40.038 89.9742 40.0371 89.9742 40.0363 89.9742C36.3752 89.9742 33.5346 88.9972 31.097 86.8995C30.3023 86.2154 29.2995 85.8387 28.2734 85.8387H26.0072V66.8397H27.0168C28.9651 66.8397 30.8567 66.4415 32.6391 65.6565C33.5499 65.2556 34.3525 64.6139 34.96 63.8009C36.0427 62.352 38.2752 59.6763 41.0632 58.0363C42.524 57.1772 43.6674 55.8641 44.2834 54.3386L46.5695 48.6784C46.9987 47.6158 48.3304 47.2712 49.2265 47.9933C51.0292 49.4453 51.4958 51.4175 50.653 54.0228C50.6475 54.0396 50.6425 54.0566 50.6377 54.0736L48.8086 60.7452C48.5211 61.7932 48.734 62.8899 49.393 63.754C50.052 64.6181 51.0533 65.1137 52.1402 65.1137H65.5376C66.7901 65.1137 67.7978 66.1428 67.7656 67.4022C67.7348 68.5981 66.7011 69.5711 65.4612 69.5711H57.4788C56.8314 69.5711 56.3069 70.0956 56.3069 70.743C56.3069 71.3903 56.8314 71.9149 57.4788 71.9149H65.4612C66.7092 71.9149 67.7314 72.9433 67.6886 74.2208C67.6489 75.4069 66.61 76.3721 65.3728 76.3722C64.3748 76.3722 58.4683 76.3722 57.4788 76.3722C56.8314 76.3722 56.3069 76.8968 56.3069 77.5441C56.3069 78.1915 56.8314 78.716 57.4788 78.716H64.6179C65.874 78.716 66.8876 79.7521 66.8454 81.0221C66.8059 82.2082 65.7671 83.1734 64.5295 83.1734C63.4809 83.1734 58.3829 83.1734 57.4788 83.1734C56.8314 83.1734 56.3069 83.6979 56.3069 84.3453C56.3069 84.9926 56.8314 85.5171 57.4788 85.5171H63.7748C65.0282 85.5171 66.0445 86.5507 66.002 87.8229C65.9625 89.0094 64.9234 89.9745 63.6856 89.9745H48.4659C47.8186 89.9745 47.294 90.4991 47.294 91.1464C47.294 91.7937 47.8186 92.3183 48.4659 92.3183H63.6859C66.1735 92.3183 68.2636 90.3367 68.3448 87.9011C68.3847 86.7071 67.9717 85.5746 67.1789 84.6928C68.3487 83.8907 69.1389 82.5792 69.1881 81.1001C69.2278 79.906 68.8147 78.7733 68.0218 77.8916C69.1915 77.0894 69.9815 75.7782 70.0311 74.2996C70.0762 72.9472 69.5401 71.6747 68.5354 70.7587C69.47 69.9436 70.075 68.768 70.1084 67.4629C70.1755 64.8839 68.109 62.7701 65.5379 62.7701ZM23.6635 87.4586C23.6635 87.9464 23.2667 88.3433 22.779 88.3433H13.2285C12.7408 88.3433 12.3439 87.9464 12.3439 87.4586V65.2195C12.3439 64.7318 12.7408 64.3349 13.2285 64.3349H22.779C23.2667 64.3349 23.6635 64.7318 23.6635 65.2195V87.4586Z"
		fill="black" />
	<path
		d="M76.3141 25.8693C76.4323 26.5056 77.0441 26.9253 77.6801 26.8078C78.3163 26.6898 78.7366 26.0783 78.6185 25.4418C77.2079 17.8373 70.5627 12.318 62.8178 12.318C53.9558 12.318 46.7461 19.5279 46.7461 28.3898C46.7461 37.2518 53.956 44.4614 62.8178 44.4614C70.5627 44.4614 77.208 38.9423 78.6185 31.338C78.7366 30.7016 78.3163 30.09 77.6801 29.972C77.0434 29.8538 76.4323 30.2741 76.3141 30.9105C75.1094 37.4044 69.4335 42.1177 62.8178 42.1177C55.2482 42.1177 49.0899 35.9594 49.0899 28.39C49.0899 20.8202 55.2482 14.6619 62.8178 14.6619C69.4335 14.6618 75.1094 19.3752 76.3141 25.8693Z"
		fill="black" />
</svg>