<svg width="14" height="14" viewBox="0 0 14 14" fill="none" xmlns="http://www.w3.org/2000/svg">
	<path
		d="M6.99984 1.16669C3.78567 1.16669 1.1665 3.78585 1.1665 7.00002C1.1665 10.2142 3.78567 12.8334 6.99984 12.8334C10.214 12.8334 12.8332 10.2142 12.8332 7.00002C12.8332 3.78585 10.214 1.16669 6.99984 1.16669ZM9.78817 5.65835L6.48067 8.96585C6.399 9.04752 6.28817 9.09419 6.1715 9.09419C6.05484 9.09419 5.944 9.04752 5.86234 8.96585L4.2115 7.31502C4.04234 7.14585 4.04234 6.86585 4.2115 6.69669C4.38067 6.52752 4.66067 6.52752 4.82984 6.69669L6.1715 8.03835L9.16984 5.04002C9.339 4.87085 9.619 4.87085 9.78817 5.04002C9.95734 5.20919 9.95734 5.48335 9.78817 5.65835Z"
		fill="#05A9FF" />
</svg>